<?xml version="1.0" encoding="UTF-8"?>
<svg version="1.1" xmlns="http://www.w3.org/2000/svg" width="260" height="260">
<path d="M0 0 C1.32 0 2.64 0 4 0 C4 1.32 4 2.64 4 4 C6.64 4 9.28 4 12 4 C12 5.32 12 6.64 12 8 C14.64 8 17.28 8 20 8 C20 9.32 20 10.64 20 12 C21.32 12 22.64 12 24 12 C24 13.32 24 14.64 24 16 C25.32 16 26.64 16 28 16 C28 18.64 28 21.28 28 24 C29.32 24 30.64 24 32 24 C32 25.32 32 26.64 32 28 C33.32 28 34.64 28 36 28 C36 31.96 36 35.92 36 40 C34.68 40 33.36 40 32 40 C32 45.28 32 50.56 32 56 C30.68 56 29.36 56 28 56 C28 57.32 28 58.64 28 60 C26.68 60 25.36 60 24 60 C24 61.32 24 62.64 24 64 C22.68 64 21.36 64 20 64 C20 65.32 20 66.64 20 68 C26.6 68 33.2 68 40 68 C40 69.32 40 70.64 40 72 C43.96 72 47.92 72 52 72 C52 74.64 52 77.28 52 80 C53.32 80 54.64 80 56 80 C56 82.64 56 85.28 56 88 C57.32 88 58.64 88 60 88 C60 98.56 60 109.12 60 120 C61.32 120 62.64 120 64 120 C64 122.64 64 125.28 64 128 C67.96 128 71.92 128 76 128 C76 125.36 76 122.72 76 120 C74.68 120 73.36 120 72 120 C72 117.36 72 114.72 72 112 C73.32 112 74.64 112 76 112 C76 109.36 76 106.72 76 104 C77.32 104 78.64 104 80 104 C80 102.68 80 101.36 80 100 C83.96 100 87.92 100 92 100 C92 98.68 92 97.36 92 96 C98.6 96 105.2 96 112 96 C112 97.32 112 98.64 112 100 C113.32 100 114.64 100 116 100 C116 101.32 116 102.64 116 104 C117.32 104 118.64 104 120 104 C120 106.64 120 109.28 120 112 C121.32 112 122.64 112 124 112 C124 114.64 124 117.28 124 120 C125.32 120 126.64 120 128 120 C128 127.92 128 135.84 128 144 C126.68 144 125.36 144 124 144 C124 145.32 124 146.64 124 148 C122.68 148 121.36 148 120 148 C120 149.32 120 150.64 120 152 C118.68 152 117.36 152 116 152 C116 153.32 116 154.64 116 156 C110.72 156 105.44 156 100 156 C100 154.68 100 153.36 100 152 C98.68 152 97.36 152 96 152 C96 150.68 96 149.36 96 148 C94.68 148 93.36 148 92 148 C92 146.68 92 145.36 92 144 C88.04 144 84.08 144 80 144 C80 145.32 80 146.64 80 148 C72.08 148 64.16 148 56 148 C56 151.96 56 155.92 56 160 C54.68 160 53.36 160 52 160 C52 162.64 52 165.28 52 168 C53.32 168 54.64 168 56 168 C56 169.32 56 170.64 56 172 C57.32 172 58.64 172 60 172 C60 174.64 60 177.28 60 180 C61.32 180 62.64 180 64 180 C64 186.6 64 193.2 64 200 C65.32 200 66.64 200 68 200 C68 201.32 68 202.64 68 204 C69.32 204 70.64 204 72 204 C72 209.28 72 214.56 72 220 C73.32 220 74.64 220 76 220 C76 222.64 76 225.28 76 228 C77.32 228 78.64 228 80 228 C80 229.32 80 230.64 80 232 C81.32 232 82.64 232 84 232 C84 233.32 84 234.64 84 236 C85.32 236 86.64 236 88 236 C88 237.32 88 238.64 88 240 C89.32 240 90.64 240 92 240 C92 242.64 92 245.28 92 248 C90.68 248 89.36 248 88 248 C88 249.32 88 250.64 88 252 C76.12 252 64.24 252 52 252 C52 241.44 52 230.88 52 220 C50.68 220 49.36 220 48 220 C48 213.4 48 206.8 48 200 C46.68 200 45.36 200 44 200 C44 197.36 44 194.72 44 192 C42.68 192 41.36 192 40 192 C40 190.68 40 189.36 40 188 C37.36 188 34.72 188 32 188 C32 189.32 32 190.64 32 192 C30.68 192 29.36 192 28 192 C28 193.32 28 194.64 28 196 C20.08 196 12.16 196 4 196 C4 194.68 4 193.36 4 192 C2.68 192 1.36 192 0 192 C0 193.32 0 194.64 0 196 C-1.32 196 -2.64 196 -4 196 C-4 197.32 -4 198.64 -4 200 C-5.32 200 -6.64 200 -8 200 C-8 203.96 -8 207.92 -8 212 C-6.68 212 -5.36 212 -4 212 C-4 223.88 -4 235.76 -4 248 C-9.28 248 -14.56 248 -20 248 C-20 249.32 -20 250.64 -20 252 C-31.88 252 -43.76 252 -56 252 C-56 250.68 -56 249.36 -56 248 C-57.32 248 -58.64 248 -60 248 C-60 246.68 -60 245.36 -60 244 C-58.68 244 -57.36 244 -56 244 C-56 242.68 -56 241.36 -56 240 C-54.68 240 -53.36 240 -52 240 C-52 238.68 -52 237.36 -52 236 C-48.04 236 -44.08 236 -40 236 C-40 234.68 -40 233.36 -40 232 C-37.36 232 -34.72 232 -32 232 C-32 230.68 -32 229.36 -32 228 C-30.68 228 -29.36 228 -28 228 C-28 226.68 -28 225.36 -28 224 C-26.68 224 -25.36 224 -24 224 C-24 210.8 -24 197.6 -24 184 C-22.68 184 -21.36 184 -20 184 C-20 180.04 -20 176.08 -20 172 C-21.32 172 -22.64 172 -24 172 C-24 170.68 -24 169.36 -24 168 C-25.32 168 -26.64 168 -28 168 C-28 165.36 -28 162.72 -28 160 C-29.32 160 -30.64 160 -32 160 C-32 157.36 -32 154.72 -32 152 C-34.64 152 -37.28 152 -40 152 C-40 153.32 -40 154.64 -40 156 C-46.6 156 -53.2 156 -60 156 C-60 154.68 -60 153.36 -60 152 C-62.64 152 -65.28 152 -68 152 C-68 153.32 -68 154.64 -68 156 C-69.32 156 -70.64 156 -72 156 C-72 157.32 -72 158.64 -72 160 C-73.32 160 -74.64 160 -76 160 C-76 161.32 -76 162.64 -76 164 C-82.6 164 -89.2 164 -96 164 C-96 162.68 -96 161.36 -96 160 C-97.32 160 -98.64 160 -100 160 C-100 158.68 -100 157.36 -100 156 C-101.32 156 -102.64 156 -104 156 C-104 154.68 -104 153.36 -104 152 C-105.32 152 -106.64 152 -108 152 C-108 145.4 -108 138.8 -108 132 C-106.68 132 -105.36 132 -104 132 C-104 128.04 -104 124.08 -104 120 C-102.68 120 -101.36 120 -100 120 C-100 118.68 -100 117.36 -100 116 C-98.68 116 -97.36 116 -96 116 C-96 113.36 -96 110.72 -96 108 C-94.68 108 -93.36 108 -92 108 C-92 106.68 -92 105.36 -92 104 C-86.72 104 -81.44 104 -76 104 C-76 105.32 -76 106.64 -76 108 C-70.72 108 -65.44 108 -60 108 C-60 109.32 -60 110.64 -60 112 C-58.68 112 -57.36 112 -56 112 C-56 119.92 -56 127.84 -56 136 C-52.04 136 -48.08 136 -44 136 C-44 130.72 -44 125.44 -44 120 C-45.32 120 -46.64 120 -48 120 C-48 112.08 -48 104.16 -48 96 C-46.68 96 -45.36 96 -44 96 C-44 92.04 -44 88.08 -44 84 C-42.68 84 -41.36 84 -40 84 C-40 82.68 -40 81.36 -40 80 C-38.68 80 -37.36 80 -36 80 C-36 78.68 -36 77.36 -36 76 C-33.36 76 -30.72 76 -28 76 C-28 74.68 -28 73.36 -28 72 C-26.68 72 -25.36 72 -24 72 C-24 70.68 -24 69.36 -24 68 C-21.36 68 -18.72 68 -16 68 C-16 66.68 -16 65.36 -16 64 C-17.32 64 -18.64 64 -20 64 C-20 62.68 -20 61.36 -20 60 C-21.32 60 -22.64 60 -24 60 C-24 56.04 -24 52.08 -24 48 C-22.68 48 -21.36 48 -20 48 C-20 45.36 -20 42.72 -20 40 C-18.68 40 -17.36 40 -16 40 C-16 38.68 -16 37.36 -16 36 C-14.68 36 -13.36 36 -12 36 C-12 34.68 -12 33.36 -12 32 C-9.36 32 -6.72 32 -4 32 C-4 30.68 -4 29.36 -4 28 C-2.68 28 -1.36 28 0 28 C0 26.68 0 25.36 0 24 C1.32 24 2.64 24 4 24 C4 20.04 4 16.08 4 12 C2.68 12 1.36 12 0 12 C0 10.68 0 9.36 0 8 C-1.32 8 -2.64 8 -4 8 C-4 6.68 -4 5.36 -4 4 C-2.68 4 -1.36 4 0 4 C0 2.68 0 1.36 0 0 Z M-44 136 C-44 137.32 -44 138.64 -44 140 C-42.68 140 -41.36 140 -40 140 C-40 138.68 -40 137.36 -40 136 C-41.32 136 -42.64 136 -44 136 Z " fill="#E22424" transform="translate(120,8)"/>
<path d="M0 0 C1.32 0 2.64 0 4 0 C4 2.64 4 5.28 4 8 C5.32 8 6.64 8 8 8 C8 18.56 8 29.12 8 40 C9.32 40 10.64 40 12 40 C12 42.64 12 45.28 12 48 C15.96 48 19.92 48 24 48 C24 45.36 24 42.72 24 40 C22.68 40 21.36 40 20 40 C20 37.36 20 34.72 20 32 C21.32 32 22.64 32 24 32 C24 29.36 24 26.72 24 24 C25.32 24 26.64 24 28 24 C28 22.68 28 21.36 28 20 C31.96 20 35.92 20 40 20 C40 18.68 40 17.36 40 16 C46.6 16 53.2 16 60 16 C60 17.32 60 18.64 60 20 C61.32 20 62.64 20 64 20 C64 21.32 64 22.64 64 24 C65.32 24 66.64 24 68 24 C68 26.64 68 29.28 68 32 C69.32 32 70.64 32 72 32 C72 34.64 72 37.28 72 40 C73.32 40 74.64 40 76 40 C76 47.92 76 55.84 76 64 C74.68 64 73.36 64 72 64 C72 65.32 72 66.64 72 68 C70.68 68 69.36 68 68 68 C68 69.32 68 70.64 68 72 C66.68 72 65.36 72 64 72 C64 73.32 64 74.64 64 76 C58.72 76 53.44 76 48 76 C48 74.68 48 73.36 48 72 C46.68 72 45.36 72 44 72 C44 70.68 44 69.36 44 68 C42.68 68 41.36 68 40 68 C40 66.68 40 65.36 40 64 C36.04 64 32.08 64 28 64 C28 65.32 28 66.64 28 68 C20.08 68 12.16 68 4 68 C4 71.96 4 75.92 4 80 C2.68 80 1.36 80 0 80 C0 82.64 0 85.28 0 88 C1.32 88 2.64 88 4 88 C4 89.32 4 90.64 4 92 C5.32 92 6.64 92 8 92 C8 94.64 8 97.28 8 100 C9.32 100 10.64 100 12 100 C12 106.6 12 113.2 12 120 C13.32 120 14.64 120 16 120 C16 121.32 16 122.64 16 124 C17.32 124 18.64 124 20 124 C20 129.28 20 134.56 20 140 C21.32 140 22.64 140 24 140 C24 142.64 24 145.28 24 148 C25.32 148 26.64 148 28 148 C28 149.32 28 150.64 28 152 C29.32 152 30.64 152 32 152 C32 153.32 32 154.64 32 156 C33.32 156 34.64 156 36 156 C36 157.32 36 158.64 36 160 C37.32 160 38.64 160 40 160 C40 162.64 40 165.28 40 168 C38.68 168 37.36 168 36 168 C36 169.32 36 170.64 36 172 C24.12 172 12.24 172 0 172 C0 161.44 0 150.88 0 140 C-1.32 140 -2.64 140 -4 140 C-4 133.4 -4 126.8 -4 120 C-5.32 120 -6.64 120 -8 120 C-8 117.36 -8 114.72 -8 112 C-9.32 112 -10.64 112 -12 112 C-12 110.68 -12 109.36 -12 108 C-14.64 108 -17.28 108 -20 108 C-20 109.32 -20 110.64 -20 112 C-21.32 112 -22.64 112 -24 112 C-24 113.32 -24 114.64 -24 116 C-31.92 116 -39.84 116 -48 116 C-48 114.68 -48 113.36 -48 112 C-49.32 112 -50.64 112 -52 112 C-52 113.32 -52 114.64 -52 116 C-53.32 116 -54.64 116 -56 116 C-56 117.32 -56 118.64 -56 120 C-57.32 120 -58.64 120 -60 120 C-60 123.96 -60 127.92 -60 132 C-58.68 132 -57.36 132 -56 132 C-56 143.88 -56 155.76 -56 168 C-61.28 168 -66.56 168 -72 168 C-72 169.32 -72 170.64 -72 172 C-83.88 172 -95.76 172 -108 172 C-108 170.68 -108 169.36 -108 168 C-109.32 168 -110.64 168 -112 168 C-112 166.68 -112 165.36 -112 164 C-110.68 164 -109.36 164 -108 164 C-108 162.68 -108 161.36 -108 160 C-106.68 160 -105.36 160 -104 160 C-104 158.68 -104 157.36 -104 156 C-100.04 156 -96.08 156 -92 156 C-92 154.68 -92 153.36 -92 152 C-89.36 152 -86.72 152 -84 152 C-84 150.68 -84 149.36 -84 148 C-82.68 148 -81.36 148 -80 148 C-80 146.68 -80 145.36 -80 144 C-78.68 144 -77.36 144 -76 144 C-76 130.8 -76 117.6 -76 104 C-74.68 104 -73.36 104 -72 104 C-72 100.04 -72 96.08 -72 92 C-69.36 92 -66.72 92 -64 92 C-64 93.32 -64 94.64 -64 96 C-61.36 96 -58.72 96 -56 96 C-56 97.32 -56 98.64 -56 100 C-54.68 100 -53.36 100 -52 100 C-52 101.32 -52 102.64 -52 104 C-42.76 104 -33.52 104 -24 104 C-24 102.68 -24 101.36 -24 100 C-22.68 100 -21.36 100 -20 100 C-20 98.68 -20 97.36 -20 96 C-18.68 96 -17.36 96 -16 96 C-16 93.36 -16 90.72 -16 88 C-14.68 88 -13.36 88 -12 88 C-12 86.68 -12 85.36 -12 84 C-18.6 84 -25.2 84 -32 84 C-32 82.68 -32 81.36 -32 80 C-25.4 80 -18.8 80 -12 80 C-12 78.68 -12 77.36 -12 76 C-10.68 76 -9.36 76 -8 76 C-8 74.68 -8 73.36 -8 72 C-6.68 72 -5.36 72 -4 72 C-4 70.68 -4 69.36 -4 68 C-2.68 68 -1.36 68 0 68 C0 64.04 0 60.08 0 56 C1.32 56 2.64 56 4 56 C4 42.8 4 29.6 4 16 C2.68 16 1.36 16 0 16 C0 10.72 0 5.44 0 0 Z " fill="#A11E1E" transform="translate(172,88)"/>
<path d="M0 0 C1.32 0 2.64 0 4 0 C4 1.32 4 2.64 4 4 C6.64 4 9.28 4 12 4 C12 5.32 12 6.64 12 8 C14.64 8 17.28 8 20 8 C20 9.32 20 10.64 20 12 C21.32 12 22.64 12 24 12 C24 13.32 24 14.64 24 16 C25.32 16 26.64 16 28 16 C28 18.64 28 21.28 28 24 C29.32 24 30.64 24 32 24 C32 25.32 32 26.64 32 28 C33.32 28 34.64 28 36 28 C36 31.96 36 35.92 36 40 C34.68 40 33.36 40 32 40 C32 45.28 32 50.56 32 56 C30.68 56 29.36 56 28 56 C28 57.32 28 58.64 28 60 C26.68 60 25.36 60 24 60 C24 61.32 24 62.64 24 64 C22.68 64 21.36 64 20 64 C20 65.32 20 66.64 20 68 C26.6 68 33.2 68 40 68 C40 69.32 40 70.64 40 72 C33.4 72 26.8 72 20 72 C20 74.64 20 77.28 20 80 C12.08 80 4.16 80 -4 80 C-4 78.68 -4 77.36 -4 76 C-5.32 76 -6.64 76 -8 76 C-8 74.68 -8 73.36 -8 72 C-13.28 72 -18.56 72 -24 72 C-24 70.68 -24 69.36 -24 68 C-21.36 68 -18.72 68 -16 68 C-16 66.68 -16 65.36 -16 64 C-17.32 64 -18.64 64 -20 64 C-20 62.68 -20 61.36 -20 60 C-21.32 60 -22.64 60 -24 60 C-24 56.04 -24 52.08 -24 48 C-22.68 48 -21.36 48 -20 48 C-20 45.36 -20 42.72 -20 40 C-18.68 40 -17.36 40 -16 40 C-16 38.68 -16 37.36 -16 36 C-14.68 36 -13.36 36 -12 36 C-12 34.68 -12 33.36 -12 32 C-9.36 32 -6.72 32 -4 32 C-4 30.68 -4 29.36 -4 28 C-2.68 28 -1.36 28 0 28 C0 26.68 0 25.36 0 24 C1.32 24 2.64 24 4 24 C4 20.04 4 16.08 4 12 C2.68 12 1.36 12 0 12 C0 10.68 0 9.36 0 8 C-1.32 8 -2.64 8 -4 8 C-4 6.68 -4 5.36 -4 4 C-2.68 4 -1.36 4 0 4 C0 2.68 0 1.36 0 0 Z " fill="#24B249" transform="translate(120,8)"/>
<path d="M0 0 C5.28 0 10.56 0 16 0 C16 1.32 16 2.64 16 4 C21.28 4 26.56 4 32 4 C32 5.32 32 6.64 32 8 C33.32 8 34.64 8 36 8 C36 15.92 36 23.84 36 32 C39.96 32 43.92 32 48 32 C48 33.32 48 34.64 48 36 C49.32 36 50.64 36 52 36 C52 34.68 52 33.36 52 32 C53.32 32 54.64 32 56 32 C56 35.96 56 39.92 56 44 C57.32 44 58.64 44 60 44 C60 45.32 60 46.64 60 48 C57.36 48 54.72 48 52 48 C52 49.32 52 50.64 52 52 C45.4 52 38.8 52 32 52 C32 50.68 32 49.36 32 48 C29.36 48 26.72 48 24 48 C24 49.32 24 50.64 24 52 C22.68 52 21.36 52 20 52 C20 53.32 20 54.64 20 56 C18.68 56 17.36 56 16 56 C16 57.32 16 58.64 16 60 C9.4 60 2.8 60 -4 60 C-4 58.68 -4 57.36 -4 56 C-5.32 56 -6.64 56 -8 56 C-8 54.68 -8 53.36 -8 52 C-9.32 52 -10.64 52 -12 52 C-12 50.68 -12 49.36 -12 48 C-13.32 48 -14.64 48 -16 48 C-16 41.4 -16 34.8 -16 28 C-14.68 28 -13.36 28 -12 28 C-12 24.04 -12 20.08 -12 16 C-10.68 16 -9.36 16 -8 16 C-8 14.68 -8 13.36 -8 12 C-6.68 12 -5.36 12 -4 12 C-4 9.36 -4 6.72 -4 4 C-2.68 4 -1.36 4 0 4 C0 2.68 0 1.36 0 0 Z " fill="#DE2323" transform="translate(28,112)"/>
<path d="M0 0 C1.32 0 2.64 0 4 0 C4 2.64 4 5.28 4 8 C5.32 8 6.64 8 8 8 C8 9.32 8 10.64 8 12 C9.32 12 10.64 12 12 12 C12 14.64 12 17.28 12 20 C13.32 20 14.64 20 16 20 C16 26.6 16 33.2 16 40 C17.32 40 18.64 40 20 40 C20 41.32 20 42.64 20 44 C21.32 44 22.64 44 24 44 C24 49.28 24 54.56 24 60 C25.32 60 26.64 60 28 60 C28 62.64 28 65.28 28 68 C29.32 68 30.64 68 32 68 C32 69.32 32 70.64 32 72 C33.32 72 34.64 72 36 72 C36 73.32 36 74.64 36 76 C37.32 76 38.64 76 40 76 C40 77.32 40 78.64 40 80 C41.32 80 42.64 80 44 80 C44 82.64 44 85.28 44 88 C42.68 88 41.36 88 40 88 C40 89.32 40 90.64 40 92 C28.12 92 16.24 92 4 92 C4 81.44 4 70.88 4 60 C2.68 60 1.36 60 0 60 C0 53.4 0 46.8 0 40 C-1.32 40 -2.64 40 -4 40 C-4 37.36 -4 34.72 -4 32 C-5.32 32 -6.64 32 -8 32 C-8 30.68 -8 29.36 -8 28 C-10.64 28 -13.28 28 -16 28 C-16 26.68 -16 25.36 -16 24 C-14.68 24 -13.36 24 -12 24 C-12 22.68 -12 21.36 -12 20 C-10.68 20 -9.36 20 -8 20 C-8 18.68 -8 17.36 -8 16 C-6.68 16 -5.36 16 -4 16 C-4 13.36 -4 10.72 -4 8 C-2.68 8 -1.36 8 0 8 C0 5.36 0 2.72 0 0 Z " fill="#21A443" transform="translate(168,168)"/>
<path d="M0 0 C6.6 0 13.2 0 20 0 C20 1.32 20 2.64 20 4 C21.32 4 22.64 4 24 4 C24 5.32 24 6.64 24 8 C25.32 8 26.64 8 28 8 C28 10.64 28 13.28 28 16 C29.32 16 30.64 16 32 16 C32 18.64 32 21.28 32 24 C33.32 24 34.64 24 36 24 C36 31.92 36 39.84 36 48 C34.68 48 33.36 48 32 48 C32 49.32 32 50.64 32 52 C30.68 52 29.36 52 28 52 C28 53.32 28 54.64 28 56 C26.68 56 25.36 56 24 56 C24 57.32 24 58.64 24 60 C18.72 60 13.44 60 8 60 C8 58.68 8 57.36 8 56 C6.68 56 5.36 56 4 56 C4 54.68 4 53.36 4 52 C2.68 52 1.36 52 0 52 C0 49.36 0 46.72 0 44 C-1.32 44 -2.64 44 -4 44 C-4 38.72 -4 33.44 -4 28 C-5.32 28 -6.64 28 -8 28 C-8 25.36 -8 22.72 -8 20 C-6.68 20 -5.36 20 -4 20 C-4 18.68 -4 17.36 -4 16 C-2.68 16 -1.36 16 0 16 C0 14.68 0 13.36 0 12 C-1.32 12 -2.64 12 -4 12 C-4 10.68 -4 9.36 -4 8 C-2.68 8 -1.36 8 0 8 C0 5.36 0 2.72 0 0 Z " fill="#DE2323" transform="translate(212,104)"/>
<path d="M0 0 C1.32 0 2.64 0 4 0 C4 1.32 4 2.64 4 4 C6.64 4 9.28 4 12 4 C12 10.6 12 17.2 12 24 C13.32 24 14.64 24 16 24 C16 35.88 16 47.76 16 60 C10.72 60 5.44 60 0 60 C0 61.32 0 62.64 0 64 C-11.88 64 -23.76 64 -36 64 C-36 62.68 -36 61.36 -36 60 C-37.32 60 -38.64 60 -40 60 C-40 58.68 -40 57.36 -40 56 C-38.68 56 -37.36 56 -36 56 C-36 54.68 -36 53.36 -36 52 C-34.68 52 -33.36 52 -32 52 C-32 50.68 -32 49.36 -32 48 C-28.04 48 -24.08 48 -20 48 C-20 46.68 -20 45.36 -20 44 C-17.36 44 -14.72 44 -12 44 C-12 42.68 -12 41.36 -12 40 C-10.68 40 -9.36 40 -8 40 C-8 38.68 -8 37.36 -8 36 C-6.68 36 -5.36 36 -4 36 C-4 29.4 -4 22.8 -4 16 C-2.68 16 -1.36 16 0 16 C0 10.72 0 5.44 0 0 Z " fill="#22AB46" transform="translate(100,196)"/>
<path d="M0 0 C3.96 0 7.92 0 12 0 C12 1.32 12 2.64 12 4 C13.32 4 14.64 4 16 4 C16 5.32 16 6.64 16 8 C17.32 8 18.64 8 20 8 C20 10.64 20 13.28 20 16 C21.32 16 22.64 16 24 16 C24 17.32 24 18.64 24 20 C25.32 20 26.64 20 28 20 C28 23.96 28 27.92 28 32 C26.68 32 25.36 32 24 32 C24 37.28 24 42.56 24 48 C22.68 48 21.36 48 20 48 C20 49.32 20 50.64 20 52 C18.68 52 17.36 52 16 52 C16 53.32 16 54.64 16 56 C8.08 56 0.16 56 -8 56 C-8 52.04 -8 48.08 -8 44 C-6.68 44 -5.36 44 -4 44 C-4 42.68 -4 41.36 -4 40 C-2.68 40 -1.36 40 0 40 C0 37.36 0 34.72 0 32 C1.32 32 2.64 32 4 32 C4 28.04 4 24.08 4 20 C5.32 20 6.64 20 8 20 C8 17.36 8 14.72 8 12 C6.68 12 5.36 12 4 12 C4 10.68 4 9.36 4 8 C2.68 8 1.36 8 0 8 C0 5.36 0 2.72 0 0 Z " fill="#22A945" transform="translate(128,16)"/>
<path d="M0 0 C3.96 0 7.92 0 12 0 C12 1.32 12 2.64 12 4 C10.68 4 9.36 4 8 4 C8 5.32 8 6.64 8 8 C9.32 8 10.64 8 12 8 C12 9.32 12 10.64 12 12 C10.68 12 9.36 12 8 12 C8 13.32 8 14.64 8 16 C6.68 16 5.36 16 4 16 C4 18.64 4 21.28 4 24 C5.32 24 6.64 24 8 24 C8 29.28 8 34.56 8 40 C9.32 40 10.64 40 12 40 C12 41.32 12 42.64 12 44 C8.04 44 4.08 44 0 44 C0 45.32 0 46.64 0 48 C-7.92 48 -15.84 48 -24 48 C-24 45.36 -24 42.72 -24 40 C-22.68 40 -21.36 40 -20 40 C-20 33.4 -20 26.8 -20 20 C-18.68 20 -17.36 20 -16 20 C-16 22.64 -16 25.28 -16 28 C-12.04 28 -8.08 28 -4 28 C-4 25.36 -4 22.72 -4 20 C-5.32 20 -6.64 20 -8 20 C-8 17.36 -8 14.72 -8 12 C-6.68 12 -5.36 12 -4 12 C-4 9.36 -4 6.72 -4 4 C-2.68 4 -1.36 4 0 4 C0 2.68 0 1.36 0 0 Z " fill="#AC3232" transform="translate(200,108)"/>
<path d="M0 0 C1.32 0 2.64 0 4 0 C4 2.64 4 5.28 4 8 C5.32 8 6.64 8 8 8 C8 6.68 8 5.36 8 4 C9.32 4 10.64 4 12 4 C12 6.64 12 9.28 12 12 C15.96 12 19.92 12 24 12 C24 13.32 24 14.64 24 16 C25.32 16 26.64 16 28 16 C28 14.68 28 13.36 28 12 C29.32 12 30.64 12 32 12 C32 15.96 32 19.92 32 24 C33.32 24 34.64 24 36 24 C36 25.32 36 26.64 36 28 C33.36 28 30.72 28 28 28 C28 29.32 28 30.64 28 32 C21.4 32 14.8 32 8 32 C8 30.68 8 29.36 8 28 C5.36 28 2.72 28 0 28 C0 29.32 0 30.64 0 32 C-1.32 32 -2.64 32 -4 32 C-4 26.72 -4 21.44 -4 16 C-2.68 16 -1.36 16 0 16 C0 10.72 0 5.44 0 0 Z " fill="#22AB46" transform="translate(52,132)"/>
<path d="M0 0 C2.64 0 5.28 0 8 0 C8 2.64 8 5.28 8 8 C14.6 8 21.2 8 28 8 C28 9.32 28 10.64 28 12 C34.6 12 41.2 12 48 12 C48 13.32 48 14.64 48 16 C41.4 16 34.8 16 28 16 C28 18.64 28 21.28 28 24 C20.08 24 12.16 24 4 24 C4 22.68 4 21.36 4 20 C2.68 20 1.36 20 0 20 C0 18.68 0 17.36 0 16 C-5.28 16 -10.56 16 -16 16 C-16 14.68 -16 13.36 -16 12 C-13.36 12 -10.72 12 -8 12 C-8 10.68 -8 9.36 -8 8 C-9.32 8 -10.64 8 -12 8 C-12 6.68 -12 5.36 -12 4 C-8.04 4 -4.08 4 0 4 C0 2.68 0 1.36 0 0 Z " fill="#6C2E29" transform="translate(112,64)"/>
<path d="M0 0 C5.28 0 10.56 0 16 0 C16 1.32 16 2.64 16 4 C14.68 4 13.36 4 12 4 C12 5.32 12 6.64 12 8 C10.68 8 9.36 8 8 8 C8 9.32 8 10.64 8 12 C6.68 12 5.36 12 4 12 C4 14.64 4 17.28 4 20 C2.68 20 1.36 20 0 20 C0 23.96 0 27.92 0 32 C-1.32 32 -2.64 32 -4 32 C-4 39.92 -4 47.84 -4 56 C-5.32 56 -6.64 56 -8 56 C-8 54.68 -8 53.36 -8 52 C-9.32 52 -10.64 52 -12 52 C-12 50.68 -12 49.36 -12 48 C-13.32 48 -14.64 48 -16 48 C-16 41.4 -16 34.8 -16 28 C-14.68 28 -13.36 28 -12 28 C-12 24.04 -12 20.08 -12 16 C-10.68 16 -9.36 16 -8 16 C-8 14.68 -8 13.36 -8 12 C-6.68 12 -5.36 12 -4 12 C-4 9.36 -4 6.72 -4 4 C-2.68 4 -1.36 4 0 4 C0 2.68 0 1.36 0 0 Z " fill="#952B2B" transform="translate(28,112)"/>
<path d="M0 0 C6.6 0 13.2 0 20 0 C20 1.32 20 2.64 20 4 C21.32 4 22.64 4 24 4 C24 5.32 24 6.64 24 8 C25.32 8 26.64 8 28 8 C28 10.64 28 13.28 28 16 C29.32 16 30.64 16 32 16 C32 18.64 32 21.28 32 24 C33.32 24 34.64 24 36 24 C36 31.92 36 39.84 36 48 C34.68 48 33.36 48 32 48 C32 49.32 32 50.64 32 52 C30.68 52 29.36 52 28 52 C28 53.32 28 54.64 28 56 C26.68 56 25.36 56 24 56 C24 52.04 24 48.08 24 44 C25.32 44 26.64 44 28 44 C28 41.36 28 38.72 28 36 C26.68 36 25.36 36 24 36 C24 30.72 24 25.44 24 20 C22.68 20 21.36 20 20 20 C20 17.36 20 14.72 20 12 C18.68 12 17.36 12 16 12 C16 9.36 16 6.72 16 4 C10.72 4 5.44 4 0 4 C0 2.68 0 1.36 0 0 Z " fill="#892828" transform="translate(212,104)"/>
<path d="M0 0 C1.32 0 2.64 0 4 0 C4 2.64 4 5.28 4 8 C5.32 8 6.64 8 8 8 C8 9.32 8 10.64 8 12 C9.32 12 10.64 12 12 12 C12 13.32 12 14.64 12 16 C8.04 16 4.08 16 0 16 C0 17.32 0 18.64 0 20 C-7.92 20 -15.84 20 -24 20 C-24 17.36 -24 14.72 -24 12 C-22.68 12 -21.36 12 -20 12 C-20 9.36 -20 6.72 -20 4 C-13.4 4 -6.8 4 0 4 C0 2.68 0 1.36 0 0 Z " fill="#23AC46" transform="translate(200,136)"/>
<path d="M0 0 C6.6 0 13.2 0 20 0 C20 1.32 20 2.64 20 4 C21.32 4 22.64 4 24 4 C24 5.32 24 6.64 24 8 C17.4 8 10.8 8 4 8 C4 9.32 4 10.64 4 12 C1.36 12 -1.28 12 -4 12 C-4 14.64 -4 17.28 -4 20 C-5.32 20 -6.64 20 -8 20 C-8 22.31 -8 24.62 -8 27 C-9.32 27 -10.64 27 -12 27 C-12 28.65 -12 30.3 -12 32 C-13.32 32 -14.64 32 -16 32 C-16 25.4 -16 18.8 -16 12 C-14.68 12 -13.36 12 -12 12 C-12 10.68 -12 9.36 -12 8 C-10.68 8 -9.36 8 -8 8 C-8 6.68 -8 5.36 -8 4 C-5.36 4 -2.72 4 0 4 C0 2.68 0 1.36 0 0 Z " fill="#DE5656" transform="translate(92,80)"/>
<path d="M0 0 C2.64 0 5.28 0 8 0 C8 5.28 8 10.56 8 16 C6.68 16 5.36 16 4 16 C4 17.32 4 18.64 4 20 C1.36 20 -1.28 20 -4 20 C-4 21.32 -4 22.64 -4 24 C-6.64 24 -9.28 24 -12 24 C-12 22.68 -12 21.36 -12 20 C-13.32 20 -14.64 20 -16 20 C-16 18.68 -16 17.36 -16 16 C-17.32 16 -18.64 16 -20 16 C-20 14.68 -20 13.36 -20 12 C-17.36 12 -14.72 12 -12 12 C-12 10.68 -12 9.36 -12 8 C-13.32 8 -14.64 8 -16 8 C-16 6.68 -16 5.36 -16 4 C-12.04 4 -8.08 4 -4 4 C-4 6.64 -4 9.28 -4 12 C-1.36 12 1.28 12 4 12 C4 9.36 4 6.72 4 4 C2.68 4 1.36 4 0 4 C0 2.68 0 1.36 0 0 Z " fill="#7A1A1A" transform="translate(164,128)"/>
<path d="M0 0 C10.56 0 21.12 0 32 0 C32 5.28 32 10.56 32 16 C30.68 16 29.36 16 28 16 C28 17.32 28 18.64 28 20 C26.68 20 25.36 20 24 20 C24 17.36 24 14.72 24 12 C22.68 12 21.36 12 20 12 C20 10.68 20 9.36 20 8 C14.72 8 9.44 8 4 8 C4 6.68 4 5.36 4 4 C2.68 4 1.36 4 0 4 C0 2.68 0 1.36 0 0 Z " fill="#F45F5F" transform="translate(140,80)"/>
<path d="M0 0 C1.32 0 2.64 0 4 0 C4 1.32 4 2.64 4 4 C5.32 4 6.64 4 8 4 C8 5.32 8 6.64 8 8 C10.64 8 13.28 8 16 8 C16 9.32 16 10.64 16 12 C18.64 12 21.28 12 24 12 C24 13.32 24 14.64 24 16 C22.68 16 21.36 16 20 16 C20 17.32 20 18.64 20 20 C18.68 20 17.36 20 16 20 C16 21.32 16 22.64 16 24 C14.68 24 13.36 24 12 24 C12 21.36 12 18.72 12 16 C9.36 16 6.72 16 4 16 C4 14.68 4 13.36 4 12 C2.68 12 1.36 12 0 12 C0 17.28 0 22.56 0 28 C-1.32 28 -2.64 28 -4 28 C-4 21.4 -4 14.8 -4 8 C-2.68 8 -1.36 8 0 8 C0 5.36 0 2.72 0 0 Z " fill="#136228" transform="translate(100,184)"/>
<path d="M0 0 C1.32 0 2.64 0 4 0 C4 2.64 4 5.28 4 8 C5.32 8 6.64 8 8 8 C8 25.16 8 42.32 8 60 C6.68 60 5.36 60 4 60 C4 62.64 4 65.28 4 68 C2.68 68 1.36 68 0 68 C0 64.04 0 60.08 0 56 C1.32 56 2.64 56 4 56 C4 42.8 4 29.6 4 16 C2.68 16 1.36 16 0 16 C0 10.72 0 5.44 0 0 Z " fill="#AD2121" transform="translate(172,88)"/>
<path d="M0 0 C2.64 0 5.28 0 8 0 C8 5.28 8 10.56 8 16 C0.08 16 -7.84 16 -16 16 C-16 14.68 -16 13.36 -16 12 C-13.36 12 -10.72 12 -8 12 C-8 10.68 -8 9.36 -8 8 C-9.32 8 -10.64 8 -12 8 C-12 6.68 -12 5.36 -12 4 C-8.04 4 -4.08 4 0 4 C0 2.68 0 1.36 0 0 Z " fill="#51231F" transform="translate(112,64)"/>
<path d="M0 0 C1.32 0 2.64 0 4 0 C4 2.64 4 5.28 4 8 C5.32 8 6.64 8 8 8 C8 9.32 8 10.64 8 12 C6.68 12 5.36 12 4 12 C4 13.32 4 14.64 4 16 C2.68 16 1.36 16 0 16 C0 17.32 0 18.64 0 20 C-1.32 20 -2.64 20 -4 20 C-4 23.96 -4 27.92 -4 32 C-5.32 32 -6.64 32 -8 32 C-8 30.68 -8 29.36 -8 28 C-10.64 28 -13.28 28 -16 28 C-16 26.68 -16 25.36 -16 24 C-14.68 24 -13.36 24 -12 24 C-12 22.68 -12 21.36 -12 20 C-10.68 20 -9.36 20 -8 20 C-8 18.68 -8 17.36 -8 16 C-6.68 16 -5.36 16 -4 16 C-4 13.36 -4 10.72 -4 8 C-2.68 8 -1.36 8 0 8 C0 5.36 0 2.72 0 0 Z " fill="#0E481D" transform="translate(168,168)"/>
<path d="M0 0 C3.96 0 7.92 0 12 0 C12 2.64 12 5.28 12 8 C14.64 8 17.28 8 20 8 C20 9.32 20 10.64 20 12 C13.4 12 6.8 12 0 12 C0 13.32 0 14.64 0 16 C-1.32 16 -2.64 16 -4 16 C-4 13.36 -4 10.72 -4 8 C-2.68 8 -1.36 8 0 8 C0 5.36 0 2.72 0 0 Z " fill="#000000" transform="translate(96,132)"/>
<path d="M0 0 C1.32 0 2.64 0 4 0 C4 1.32 4 2.64 4 4 C5.32 4 6.64 4 8 4 C8 7.96 8 11.92 8 16 C6.68 16 5.36 16 4 16 C4 21.28 4 26.56 4 32 C2.68 32 1.36 32 0 32 C0 21.44 0 10.88 0 0 Z " fill="#146429" transform="translate(148,32)"/>
<path d="M0 0 C3.96 0 7.92 0 12 0 C12 2.64 12 5.28 12 8 C13.32 8 14.64 8 16 8 C16 9.32 16 10.64 16 12 C9.4 12 2.8 12 -4 12 C-4 10.68 -4 9.36 -4 8 C-1.36 8 1.28 8 4 8 C4 6.68 4 5.36 4 4 C2.68 4 1.36 4 0 4 C0 2.68 0 1.36 0 0 Z " fill="#000000" transform="translate(148,132)"/>
<path d="M0 0 C1.32 0 2.64 0 4 0 C4 2.64 4 5.28 4 8 C5.32 8 6.64 8 8 8 C8 15.92 8 23.84 8 32 C6.68 32 5.36 32 4 32 C4 26.72 4 21.44 4 16 C2.68 16 1.36 16 0 16 C0 10.72 0 5.44 0 0 Z " fill="#000000" transform="translate(172,88)"/>
<path d="M0 0 C1.32 0 2.64 0 4 0 C4 1.32 4 2.64 4 4 C6.64 4 9.28 4 12 4 C12 5.32 12 6.64 12 8 C10.68 8 9.36 8 8 8 C8 13.28 8 18.56 8 24 C6.68 24 5.36 24 4 24 C4 20.04 4 16.08 4 12 C2.68 12 1.36 12 0 12 C0 10.68 0 9.36 0 8 C-1.32 8 -2.64 8 -4 8 C-4 6.68 -4 5.36 -4 4 C-2.68 4 -1.36 4 0 4 C0 2.68 0 1.36 0 0 Z " fill="#0A3616" transform="translate(120,8)"/>
<path d="M0 0 C2.64 0 5.28 0 8 0 C8 2.64 8 5.28 8 8 C6.68 8 5.36 8 4 8 C4 11.96 4 15.92 4 20 C2.68 20 1.36 20 0 20 C0 18.68 0 17.36 0 16 C-1.32 16 -2.64 16 -4 16 C-4 13.36 -4 10.72 -4 8 C-2.68 8 -1.36 8 0 8 C0 5.36 0 2.72 0 0 Z " fill="#C31E1E" transform="translate(196,112)"/>
<path d="M0 0 C1.32 0 2.64 0 4 0 C4 3.96 4 7.92 4 12 C5.32 12 6.64 12 8 12 C8 13.32 8 14.64 8 16 C5.36 16 2.72 16 0 16 C0 17.32 0 18.64 0 20 C-2.64 20 -5.28 20 -8 20 C-8 18.68 -8 17.36 -8 16 C-6.68 16 -5.36 16 -4 16 C-4 14.68 -4 13.36 -4 12 C-2.68 12 -1.36 12 0 12 C0 8.04 0 4.08 0 0 Z " fill="#14692B" transform="translate(96,220)"/>
<path d="M0 0 C1.32 0 2.64 0 4 0 C4 2.64 4 5.28 4 8 C7.96 8 11.92 8 16 8 C16 6.68 16 5.36 16 4 C17.32 4 18.64 4 20 4 C20 6.64 20 9.28 20 12 C13.4 12 6.8 12 0 12 C0 8.04 0 4.08 0 0 Z " fill="#000000" transform="translate(180,128)"/>
<path d="M0 0 C1.32 0 2.64 0 4 0 C4 5.28 4 10.56 4 16 C-1.28 16 -6.56 16 -12 16 C-12 14.68 -12 13.36 -12 12 C-8.04 12 -4.08 12 0 12 C0 8.04 0 4.08 0 0 Z " fill="#000000" transform="translate(112,240)"/>
<path d="M0 0 C9.24 0 18.48 0 28 0 C28 1.32 28 2.64 28 4 C18.76 4 9.52 4 0 4 C0 2.68 0 1.36 0 0 Z " fill="#000000" transform="translate(112,172)"/>
<path d="M0 0 C1.32 0 2.64 0 4 0 C4 3.96 4 7.92 4 12 C5.32 12 6.64 12 8 12 C8 13.32 8 14.64 8 16 C5.36 16 2.72 16 0 16 C0 14.68 0 13.36 0 12 C-1.32 12 -2.64 12 -4 12 C-4 9.36 -4 6.72 -4 4 C-2.68 4 -1.36 4 0 4 C0 2.68 0 1.36 0 0 Z " fill="#125E27" transform="translate(80,144)"/>
<path d="M0 0 C1.32 0 2.64 0 4 0 C4 1.32 4 2.64 4 4 C10.6 4 17.2 4 24 4 C24 5.32 24 6.64 24 8 C16.08 8 8.16 8 0 8 C0 5.36 0 2.72 0 0 Z " fill="#000000" transform="translate(176,148)"/>
<path d="M0 0 C6.6 0 13.2 0 20 0 C20 1.32 20 2.64 20 4 C18.68 4 17.36 4 16 4 C16 5.32 16 6.64 16 8 C13.36 8 10.72 8 8 8 C8 6.68 8 5.36 8 4 C5.36 4 2.72 4 0 4 C0 2.68 0 1.36 0 0 Z " fill="#7A1A1A" transform="translate(96,144)"/>
<path d="M0 0 C1.32 0 2.64 0 4 0 C4 2.64 4 5.28 4 8 C5.32 8 6.64 8 8 8 C8 6.68 8 5.36 8 4 C9.32 4 10.64 4 12 4 C12 6.64 12 9.28 12 12 C9.36 12 6.72 12 4 12 C4 13.32 4 14.64 4 16 C2.68 16 1.36 16 0 16 C0 10.72 0 5.44 0 0 Z " fill="#000000" transform="translate(52,132)"/>
<path d="M0 0 C3.96 0 7.92 0 12 0 C12 1.32 12 2.64 12 4 C10.68 4 9.36 4 8 4 C8 5.32 8 6.64 8 8 C9.32 8 10.64 8 12 8 C12 9.32 12 10.64 12 12 C10.68 12 9.36 12 8 12 C8 13.32 8 14.64 8 16 C6.68 16 5.36 16 4 16 C4 12.04 4 8.08 4 4 C2.68 4 1.36 4 0 4 C0 2.68 0 1.36 0 0 Z " fill="#561919" transform="translate(200,108)"/>
<path d="M0 0 C2.64 0 5.28 0 8 0 C8 2.64 8 5.28 8 8 C9.32 8 10.64 8 12 8 C12 9.32 12 10.64 12 12 C6.72 12 1.44 12 -4 12 C-4 10.68 -4 9.36 -4 8 C-1.36 8 1.28 8 4 8 C4 6.68 4 5.36 4 4 C2.68 4 1.36 4 0 4 C0 2.68 0 1.36 0 0 Z " fill="#000000" transform="translate(100,68)"/>
<path d="M0 0 C1.32 0 2.64 0 4 0 C4 7.92 4 15.84 4 24 C2.68 24 1.36 24 0 24 C0 16.08 0 8.16 0 0 Z " fill="#000000" transform="translate(172,228)"/>
<path d="M0 0 C7.92 0 15.84 0 24 0 C24 1.32 24 2.64 24 4 C16.08 4 8.16 4 0 4 C0 2.68 0 1.36 0 0 Z " fill="#000000" transform="translate(124,200)"/>
<path d="M0 0 C2.64 0 5.28 0 8 0 C8 3.96 8 7.92 8 12 C6.68 12 5.36 12 4 12 C4 10.68 4 9.36 4 8 C1.36 8 -1.28 8 -4 8 C-4 6.68 -4 5.36 -4 4 C-2.68 4 -1.36 4 0 4 C0 2.68 0 1.36 0 0 Z " fill="#105422" transform="translate(156,188)"/>
<path d="M0 0 C1.32 0 2.64 0 4 0 C4 1.32 4 2.64 4 4 C6.64 4 9.28 4 12 4 C12 5.32 12 6.64 12 8 C9.36 8 6.72 8 4 8 C4 9.32 4 10.64 4 12 C2.68 12 1.36 12 0 12 C0 10.68 0 9.36 0 8 C-1.32 8 -2.64 8 -4 8 C-4 6.68 -4 5.36 -4 4 C-2.68 4 -1.36 4 0 4 C0 2.68 0 1.36 0 0 Z " fill="#2B0808" transform="translate(96,168)"/>
<path d="M0 0 C1.32 0 2.64 0 4 0 C4 7.92 4 15.84 4 24 C2.68 24 1.36 24 0 24 C0 16.08 0 8.16 0 0 Z " fill="#000000" transform="translate(244,128)"/>
<path d="M0 0 C1.32 0 2.64 0 4 0 C4 7.92 4 15.84 4 24 C2.68 24 1.36 24 0 24 C0 16.08 0 8.16 0 0 Z " fill="#000000" transform="translate(72,104)"/>
<path d="M0 0 C3.96 0 7.92 0 12 0 C12 2.64 12 5.28 12 8 C8.04 8 4.08 8 0 8 C0 5.36 0 2.72 0 0 Z " fill="#621A19" transform="translate(128,80)"/>
<path d="M0 0 C6.6 0 13.2 0 20 0 C20 1.32 20 2.64 20 4 C14.72 4 9.44 4 4 4 C4 5.32 4 6.64 4 8 C2.68 8 1.36 8 0 8 C0 5.36 0 2.72 0 0 Z " fill="#000000" transform="translate(120,72)"/>
<path d="M0 0 C6.6 0 13.2 0 20 0 C20 1.32 20 2.64 20 4 C13.4 4 6.8 4 0 4 C0 2.68 0 1.36 0 0 Z " fill="#146429" transform="translate(172,256)"/>
<path d="M0 0 C1.32 0 2.64 0 4 0 C4 1.32 4 2.64 4 4 C5.32 4 6.64 4 8 4 C8 7.96 8 11.92 8 16 C6.68 16 5.36 16 4 16 C4 13.36 4 10.72 4 8 C2.68 8 1.36 8 0 8 C0 5.36 0 2.72 0 0 Z " fill="#000000" transform="translate(184,208)"/>
<path d="M0 0 C1.32 0 2.64 0 4 0 C4 6.6 4 13.2 4 20 C2.68 20 1.36 20 0 20 C0 13.4 0 6.8 0 0 Z " fill="#000000" transform="translate(168,208)"/>
<path d="M0 0 C1.32 0 2.64 0 4 0 C4 6.6 4 13.2 4 20 C2.68 20 1.36 20 0 20 C0 13.4 0 6.8 0 0 Z " fill="#000000" transform="translate(96,192)"/>
<path d="M0 0 C1.32 0 2.64 0 4 0 C4 6.6 4 13.2 4 20 C2.68 20 1.36 20 0 20 C0 13.4 0 6.8 0 0 Z " fill="#000000" transform="translate(180,188)"/>
<path d="M0 0 C6.6 0 13.2 0 20 0 C20 1.32 20 2.64 20 4 C13.4 4 6.8 4 0 4 C0 2.68 0 1.36 0 0 Z " fill="#000000" transform="translate(140,168)"/>
<path d="M0 0 C6.6 0 13.2 0 20 0 C20 1.32 20 2.64 20 4 C13.4 4 6.8 4 0 4 C0 2.68 0 1.36 0 0 Z " fill="#000000" transform="translate(24,168)"/>
<path d="M0 0 C6.6 0 13.2 0 20 0 C20 1.32 20 2.64 20 4 C13.4 4 6.8 4 0 4 C0 2.68 0 1.36 0 0 Z " fill="#000000" transform="translate(60,160)"/>
<path d="M0 0 C1.32 0 2.64 0 4 0 C4 2.64 4 5.28 4 8 C5.32 8 6.64 8 8 8 C8 9.32 8 10.64 8 12 C6.68 12 5.36 12 4 12 C4 13.32 4 14.64 4 16 C2.68 16 1.36 16 0 16 C0 10.72 0 5.44 0 0 Z " fill="#000000" transform="translate(48,148)"/>
<path d="M0 0 C2.64 0 5.28 0 8 0 C8 2.64 8 5.28 8 8 C6.68 8 5.36 8 4 8 C4 9.32 4 10.64 4 12 C2.68 12 1.36 12 0 12 C0 8.04 0 4.08 0 0 Z " fill="#197E34" transform="translate(180,140)"/>
<path d="M0 0 C1.32 0 2.64 0 4 0 C4 6.6 4 13.2 4 20 C2.68 20 1.36 20 0 20 C0 13.4 0 6.8 0 0 Z " fill="#000000" transform="translate(12,140)"/>
<path d="M0 0 C6.6 0 13.2 0 20 0 C20 1.32 20 2.64 20 4 C13.4 4 6.8 4 0 4 C0 2.68 0 1.36 0 0 Z " fill="#000000" transform="translate(212,104)"/>
<path d="M0 0 C2.64 0 5.28 0 8 0 C8 1.32 8 2.64 8 4 C10.64 4 13.28 4 16 4 C16 5.32 16 6.64 16 8 C12.04 8 8.08 8 4 8 C4 6.68 4 5.36 4 4 C2.68 4 1.36 4 0 4 C0 2.68 0 1.36 0 0 Z " fill="#000000" transform="translate(112,80)"/>
<path d="M0 0 C6.6 0 13.2 0 20 0 C20 1.32 20 2.64 20 4 C13.4 4 6.8 4 0 4 C0 2.68 0 1.36 0 0 Z " fill="#000000" transform="translate(140,76)"/>
<path d="M0 0 C1.32 0 2.64 0 4 0 C4 3.96 4 7.92 4 12 C2.68 12 1.36 12 0 12 C0 10.68 0 9.36 0 8 C-1.32 8 -2.64 8 -4 8 C-4 6.68 -4 5.36 -4 4 C-2.68 4 -1.36 4 0 4 C0 2.68 0 1.36 0 0 Z " fill="#061F0D" transform="translate(64,248)"/>
<path d="M0 0 C5.28 0 10.56 0 16 0 C16 1.32 16 2.64 16 4 C10.72 4 5.44 4 0 4 C0 2.68 0 1.36 0 0 Z " fill="#000000" transform="translate(220,160)"/>
<path d="M0 0 C2.64 0 5.28 0 8 0 C8 3.96 8 7.92 8 12 C6.68 12 5.36 12 4 12 C4 9.36 4 6.72 4 4 C2.68 4 1.36 4 0 4 C0 2.68 0 1.36 0 0 Z " fill="#000000" transform="translate(168,156)"/>
<path d="M0 0 C2.64 0 5.28 0 8 0 C8 2.64 8 5.28 8 8 C5.36 8 2.72 8 0 8 C0 5.36 0 2.72 0 0 Z " fill="#FFFFFF" transform="translate(160,132)"/>
<path d="M0 0 C1.32 0 2.64 0 4 0 C4 5.28 4 10.56 4 16 C2.68 16 1.36 16 0 16 C0 10.72 0 5.44 0 0 Z " fill="#000000" transform="translate(76,128)"/>
<path d="M0 0 C5.28 0 10.56 0 16 0 C16 1.32 16 2.64 16 4 C10.72 4 5.44 4 0 4 C0 2.68 0 1.36 0 0 Z " fill="#000000" transform="translate(44,116)"/>
<path d="M0 0 C5.28 0 10.56 0 16 0 C16 1.32 16 2.64 16 4 C10.72 4 5.44 4 0 4 C0 2.68 0 1.36 0 0 Z " fill="#000000" transform="translate(28,112)"/>
<path d="M0 0 C1.32 0 2.64 0 4 0 C4 5.28 4 10.56 4 16 C2.68 16 1.36 16 0 16 C0 10.72 0 5.44 0 0 Z " fill="#AD2121" transform="translate(172,88)"/>
<path d="M0 0 C3.96 0 7.92 0 12 0 C12 2.64 12 5.28 12 8 C10.68 8 9.36 8 8 8 C8 6.68 8 5.36 8 4 C5.36 4 2.72 4 0 4 C0 2.68 0 1.36 0 0 Z " fill="#000000" transform="translate(160,80)"/>
<path d="M0 0 C2.64 0 5.28 0 8 0 C8 1.32 8 2.64 8 4 C6.68 4 5.36 4 4 4 C4 5.32 4 6.64 4 8 C1.36 8 -1.28 8 -4 8 C-4 6.68 -4 5.36 -4 4 C-2.68 4 -1.36 4 0 4 C0 2.68 0 1.36 0 0 Z " fill="#0C3F1A" transform="translate(108,40)"/>
<path d="M0 0 C3.96 0 7.92 0 12 0 C12 1.32 12 2.64 12 4 C8.04 4 4.08 4 0 4 C0 2.68 0 1.36 0 0 Z " fill="#000000" transform="translate(88,256)"/>
<path d="M0 0 C2.64 0 5.28 0 8 0 C8 1.32 8 2.64 8 4 C6.68 4 5.36 4 4 4 C4 5.32 4 6.64 4 8 C2.68 8 1.36 8 0 8 C0 5.36 0 2.72 0 0 Z " fill="#000000" transform="translate(116,196)"/>
<path d="M0 0 C1.32 0 2.64 0 4 0 C4 2.64 4 5.28 4 8 C1.36 8 -1.28 8 -4 8 C-4 6.68 -4 5.36 -4 4 C-2.68 4 -1.36 4 0 4 C0 2.68 0 1.36 0 0 Z " fill="#000000" transform="translate(156,188)"/>
<path d="M0 0 C1.32 0 2.64 0 4 0 C4 1.32 4 2.64 4 4 C5.32 4 6.64 4 8 4 C8 5.32 8 6.64 8 8 C5.36 8 2.72 8 0 8 C0 5.36 0 2.72 0 0 Z " fill="#000000" transform="translate(100,184)"/>
<path d="M0 0 C3.96 0 7.92 0 12 0 C12 1.32 12 2.64 12 4 C8.04 4 4.08 4 0 4 C0 2.68 0 1.36 0 0 Z " fill="#000000" transform="translate(200,148)"/>
<path d="M0 0 C1.32 0 2.64 0 4 0 C4 2.64 4 5.28 4 8 C1.36 8 -1.28 8 -4 8 C-4 6.68 -4 5.36 -4 4 C-2.68 4 -1.36 4 0 4 C0 2.68 0 1.36 0 0 Z " fill="#000000" transform="translate(80,144)"/>
<path d="M0 0 C3.96 0 7.92 0 12 0 C12 1.32 12 2.64 12 4 C8.04 4 4.08 4 0 4 C0 2.68 0 1.36 0 0 Z " fill="#000000" transform="translate(64,144)"/>
<path d="M0 0 C1.32 0 2.64 0 4 0 C4 3.96 4 7.92 4 12 C2.68 12 1.36 12 0 12 C0 8.04 0 4.08 0 0 Z " fill="#000000" transform="translate(204,132)"/>
<path d="M0 0 C2.64 0 5.28 0 8 0 C8 2.64 8 5.28 8 8 C6.68 8 5.36 8 4 8 C4 6.68 4 5.36 4 4 C2.68 4 1.36 4 0 4 C0 2.68 0 1.36 0 0 Z " fill="#000000" transform="translate(164,128)"/>
<path d="M0 0 C1.32 0 2.64 0 4 0 C4 3.96 4 7.92 4 12 C2.68 12 1.36 12 0 12 C0 8.04 0 4.08 0 0 Z " fill="#000000" transform="translate(16,128)"/>
<path d="M0 0 C3.96 0 7.92 0 12 0 C12 1.32 12 2.64 12 4 C8.04 4 4.08 4 0 4 C0 2.68 0 1.36 0 0 Z " fill="#000000" transform="translate(200,108)"/>
<path d="M0 0 C1.32 0 2.64 0 4 0 C4 3.96 4 7.92 4 12 C2.68 12 1.36 12 0 12 C0 8.04 0 4.08 0 0 Z " fill="#000000" transform="translate(76,92)"/>
<path d="M0 0 C3.96 0 7.92 0 12 0 C12 1.32 12 2.64 12 4 C8.04 4 4.08 4 0 4 C0 2.68 0 1.36 0 0 Z " fill="#AC3232" transform="translate(128,76)"/>
<path d="M0 0 C1.32 0 2.64 0 4 0 C4 2.64 4 5.28 4 8 C1.36 8 -1.28 8 -4 8 C-4 6.68 -4 5.36 -4 4 C-2.68 4 -1.36 4 0 4 C0 2.68 0 1.36 0 0 Z " fill="#7D3631" transform="translate(116,72)"/>
<path d="M0 0 C2.64 0 5.28 0 8 0 C8 2.64 8 5.28 8 8 C6.68 8 5.36 8 4 8 C4 6.68 4 5.36 4 4 C2.68 4 1.36 4 0 4 C0 2.68 0 1.36 0 0 Z " fill="#000000" transform="translate(112,64)"/>
<path d="M0 0 C1.32 0 2.64 0 4 0 C4 3.96 4 7.92 4 12 C2.68 12 1.36 12 0 12 C0 8.04 0 4.08 0 0 Z " fill="#000000" transform="translate(96,56)"/>
<path d="M0 0 C1.32 0 2.64 0 4 0 C4 3.96 4 7.92 4 12 C2.68 12 1.36 12 0 12 C0 8.04 0 4.08 0 0 Z " fill="#000000" transform="translate(148,52)"/>
<path d="M0 0 C1.32 0 2.64 0 4 0 C4 3.96 4 7.92 4 12 C2.68 12 1.36 12 0 12 C0 8.04 0 4.08 0 0 Z " fill="#000000" transform="translate(152,36)"/>
<path d="M0 0 C1.32 0 2.64 0 4 0 C4 3.96 4 7.92 4 12 C2.68 12 1.36 12 0 12 C0 8.04 0 4.08 0 0 Z " fill="#197E34" transform="translate(132,36)"/>
<path d="M0 0 C1.32 0 2.64 0 4 0 C4 3.96 4 7.92 4 12 C2.68 12 1.36 12 0 12 C0 8.04 0 4.08 0 0 Z " fill="#000000" transform="translate(124,20)"/>
<path d="M0 0 C2.64 0 5.28 0 8 0 C8 1.32 8 2.64 8 4 C5.36 4 2.72 4 0 4 C0 2.68 0 1.36 0 0 Z " fill="#197E34" transform="translate(200,256)"/>
<path d="M0 0 C1.32 0 2.64 0 4 0 C4 2.64 4 5.28 4 8 C2.68 8 1.36 8 0 8 C0 5.36 0 2.72 0 0 Z " fill="#000000" transform="translate(208,248)"/>
<path d="M0 0 C2.64 0 5.28 0 8 0 C8 1.32 8 2.64 8 4 C5.36 4 2.72 4 0 4 C0 2.68 0 1.36 0 0 Z " fill="#000000" transform="translate(68,244)"/>
<path d="M0 0 C2.64 0 5.28 0 8 0 C8 1.32 8 2.64 8 4 C5.36 4 2.72 4 0 4 C0 2.68 0 1.36 0 0 Z " fill="#0C3F1A" transform="translate(80,240)"/>
<path d="M0 0 C1.32 0 2.64 0 4 0 C4 2.64 4 5.28 4 8 C2.68 8 1.36 8 0 8 C0 5.36 0 2.72 0 0 Z " fill="#197E34" transform="translate(176,236)"/>
<path d="M0 0 C2.64 0 5.28 0 8 0 C8 1.32 8 2.64 8 4 C5.36 4 2.72 4 0 4 C0 2.68 0 1.36 0 0 Z " fill="#0C3F1A" transform="translate(88,236)"/>
<path d="M0 0 C1.32 0 2.64 0 4 0 C4 2.64 4 5.28 4 8 C2.68 8 1.36 8 0 8 C0 5.36 0 2.72 0 0 Z " fill="#000000" transform="translate(192,228)"/>
<path d="M0 0 C1.32 0 2.64 0 4 0 C4 2.64 4 5.28 4 8 C2.68 8 1.36 8 0 8 C0 5.36 0 2.72 0 0 Z " fill="#000000" transform="translate(112,220)"/>
<path d="M0 0 C1.32 0 2.64 0 4 0 C4 2.64 4 5.28 4 8 C2.68 8 1.36 8 0 8 C0 5.36 0 2.72 0 0 Z " fill="#0C3F1A" transform="translate(184,208)"/>
<path d="M0 0 C1.32 0 2.64 0 4 0 C4 2.64 4 5.28 4 8 C2.68 8 1.36 8 0 8 C0 5.36 0 2.72 0 0 Z " fill="#000000" transform="translate(108,208)"/>
<path d="M0 0 C1.32 0 2.64 0 4 0 C4 2.64 4 5.28 4 8 C2.68 8 1.36 8 0 8 C0 5.36 0 2.72 0 0 Z " fill="#000000" transform="translate(176,180)"/>
<path d="M0 0 C2.64 0 5.28 0 8 0 C8 1.32 8 2.64 8 4 C5.36 4 2.72 4 0 4 C0 2.68 0 1.36 0 0 Z " fill="#000000" transform="translate(100,172)"/>
<path d="M0 0 C1.32 0 2.64 0 4 0 C4 2.64 4 5.28 4 8 C2.68 8 1.36 8 0 8 C0 5.36 0 2.72 0 0 Z " fill="#000000" transform="translate(168,168)"/>
<path d="M0 0 C1.32 0 2.64 0 4 0 C4 2.64 4 5.28 4 8 C2.68 8 1.36 8 0 8 C0 5.36 0 2.72 0 0 Z " fill="#0C3F1A" transform="translate(196,132)"/>
<path d="M0 0 C1.32 0 2.64 0 4 0 C4 2.64 4 5.28 4 8 C2.68 8 1.36 8 0 8 C0 5.36 0 2.72 0 0 Z " fill="#FFFFFF" transform="translate(92,132)"/>
<path d="M0 0 C1.32 0 2.64 0 4 0 C4 2.64 4 5.28 4 8 C2.68 8 1.36 8 0 8 C0 5.36 0 2.72 0 0 Z " fill="#000000" transform="translate(88,132)"/>
<path d="M0 0 C1.32 0 2.64 0 4 0 C4 2.64 4 5.28 4 8 C2.68 8 1.36 8 0 8 C0 5.36 0 2.72 0 0 Z " fill="#000000" transform="translate(192,120)"/>
<path d="M0 0 C1.32 0 2.64 0 4 0 C4 2.64 4 5.28 4 8 C2.68 8 1.36 8 0 8 C0 5.36 0 2.72 0 0 Z " fill="#000000" transform="translate(60,120)"/>
<path d="M0 0 C1.32 0 2.64 0 4 0 C4 2.64 4 5.28 4 8 C2.68 8 1.36 8 0 8 C0 5.36 0 2.72 0 0 Z " fill="#000000" transform="translate(172,88)"/>
<path d="M0 0 C2.64 0 5.28 0 8 0 C8 1.32 8 2.64 8 4 C5.36 4 2.72 4 0 4 C0 2.68 0 1.36 0 0 Z " fill="#000000" transform="translate(84,84)"/>
<path d="M0 0 C2.64 0 5.28 0 8 0 C8 1.32 8 2.64 8 4 C5.36 4 2.72 4 0 4 C0 2.68 0 1.36 0 0 Z " fill="#0C3F1A" transform="translate(100,68)"/>
<path d="M0 0 C1.32 0 2.64 0 4 0 C4 2.64 4 5.28 4 8 C2.68 8 1.36 8 0 8 C0 5.36 0 2.72 0 0 Z " fill="#197E34" transform="translate(128,48)"/>
<path d="M0 0 C1.32 0 2.64 0 4 0 C4 2.64 4 5.28 4 8 C2.68 8 1.36 8 0 8 C0 5.36 0 2.72 0 0 Z " fill="#000000" transform="translate(100,48)"/>
<path d="M0 0 C2.64 0 5.28 0 8 0 C8 1.32 8 2.64 8 4 C5.36 4 2.72 4 0 4 C0 2.68 0 1.36 0 0 Z " fill="#000000" transform="translate(108,40)"/>
<path d="M0 0 C1.32 0 2.64 0 4 0 C4 2.64 4 5.28 4 8 C2.68 8 1.36 8 0 8 C0 5.36 0 2.72 0 0 Z " fill="#197E34" transform="translate(136,28)"/>
<path d="M0 0 C1.32 0 2.64 0 4 0 C4 2.64 4 5.28 4 8 C2.68 8 1.36 8 0 8 C0 5.36 0 2.72 0 0 Z " fill="#000000" transform="translate(144,24)"/>
</svg>
