<?xml version="1.0" encoding="UTF-8"?>
<svg version="1.1" xmlns="http://www.w3.org/2000/svg" width="260" height="260">
<path d="M0 0 C3.96 0 7.92 0 12 0 C12 1.32 12 2.64 12 4 C14.64 4 17.28 4 20 4 C20 5.32 20 6.64 20 8 C22.64 8 25.28 8 28 8 C28 6.68 28 5.36 28 4 C29.32 4 30.64 4 32 4 C32 2.68 32 1.36 32 0 C33.32 0 34.64 0 36 0 C36 3.96 36 7.92 36 12 C37.32 12 38.64 12 40 12 C40 10.68 40 9.36 40 8 C41.32 8 42.64 8 44 8 C44 9.32 44 10.64 44 12 C45.32 12 46.64 12 48 12 C48 13.32 48 14.64 48 16 C49.32 16 50.64 16 52 16 C52 18.64 52 21.28 52 24 C53.32 24 54.64 24 56 24 C56 22.68 56 21.36 56 20 C57.32 20 58.64 20 60 20 C60 21.32 60 22.64 60 24 C61.32 24 62.64 24 64 24 C64 25.32 64 26.64 64 28 C65.32 28 66.64 28 68 28 C68 30.64 68 33.28 68 36 C69.32 36 70.64 36 72 36 C72 37.32 72 38.64 72 40 C73.32 40 74.64 40 76 40 C76 41.32 76 42.64 76 44 C77.32 44 78.64 44 80 44 C80 46.64 80 49.28 80 52 C81.32 52 82.64 52 84 52 C84 57.28 84 62.56 84 68 C86.64 68 89.28 68 92 68 C92 71.96 92 75.92 92 80 C93.65 80 95.3 80 97 80 C97 85.28 97 90.56 97 96 C97.99 96 98.98 96 100 96 C100 106.56 100 117.12 100 128 C101.32 128 102.64 128 104 128 C104 129.32 104 130.64 104 132 C105.32 132 106.64 132 108 132 C108 133.32 108 134.64 108 136 C109.32 136 110.64 136 112 136 C112 138.64 112 141.28 112 144 C113.32 144 114.64 144 116 144 C116 146.64 116 149.28 116 152 C114.68 152 113.36 152 112 152 C112 154.64 112 157.28 112 160 C113.32 160 114.64 160 116 160 C116 161.32 116 162.64 116 164 C117.32 164 118.64 164 120 164 C120 165.32 120 166.64 120 168 C121.32 168 122.64 168 124 168 C124 170.64 124 173.28 124 176 C125.32 176 126.64 176 128 176 C128 179.96 128 183.92 128 188 C126.68 188 125.36 188 124 188 C124 189.32 124 190.64 124 192 C121.36 192 118.72 192 116 192 C116 193.32 116 194.64 116 196 C105.44 196 94.88 196 84 196 C84 197.32 84 198.64 84 200 C52.32 200 20.64 200 -12 200 C-12 198.68 -12 197.36 -12 196 C-13.32 196 -14.64 196 -16 196 C-16 197.32 -16 198.64 -16 200 C-26.56 200 -37.12 200 -48 200 C-48 198.68 -48 197.36 -48 196 C-53.28 196 -58.56 196 -64 196 C-64 194.68 -64 193.36 -64 192 C-66.64 192 -69.28 192 -72 192 C-72 188.04 -72 184.08 -72 180 C-70.68 180 -69.36 180 -68 180 C-68 178.68 -68 177.36 -68 176 C-66.68 176 -65.36 176 -64 176 C-64 174.68 -64 173.36 -64 172 C-61.36 172 -58.72 172 -56 172 C-56 170.68 -56 169.36 -56 168 C-49.4 168 -42.8 168 -36 168 C-36 165.36 -36 162.72 -36 160 C-37.32 160 -38.64 160 -40 160 C-40 157.36 -40 154.72 -40 152 C-41.32 152 -42.64 152 -44 152 C-44 148.04 -44 144.08 -44 140 C-45.32 140 -46.64 140 -48 140 C-48 125.48 -48 110.96 -48 96 C-46.68 96 -45.36 96 -44 96 C-44 88.08 -44 80.16 -44 72 C-42.68 72 -41.36 72 -40 72 C-40 69.36 -40 66.72 -40 64 C-38.68 64 -37.36 64 -36 64 C-36 60.04 -36 56.08 -36 52 C-34.68 52 -33.36 52 -32 52 C-32 48.04 -32 44.08 -32 40 C-30.68 40 -29.36 40 -28 40 C-28 37.36 -28 34.72 -28 32 C-26.68 32 -25.36 32 -24 32 C-24 29.36 -24 26.72 -24 24 C-22.68 24 -21.36 24 -20 24 C-20 22.68 -20 21.36 -20 20 C-18.68 20 -17.36 20 -16 20 C-16 18.68 -16 17.36 -16 16 C-14.68 16 -13.36 16 -12 16 C-12 14.68 -12 13.36 -12 12 C-10.68 12 -9.36 12 -8 12 C-8 10.68 -8 9.36 -8 8 C-6.68 8 -5.36 8 -4 8 C-4 6.68 -4 5.36 -4 4 C-2.68 4 -1.36 4 0 4 C0 2.68 0 1.36 0 0 Z M72 88 C72 89.32 72 90.64 72 92 C73.32 92 74.64 92 76 92 C76 90.68 76 89.36 76 88 C74.68 88 73.36 88 72 88 Z " fill="#E11A1A" transform="translate(112,48)"/>
<path d="M0 0 C2.64 0 5.28 0 8 0 C8 1.32 8 2.64 8 4 C10.64 4 13.28 4 16 4 C16 5.32 16 6.64 16 8 C17.32 8 18.64 8 20 8 C20 11.96 20 15.92 20 20 C22.64 20 25.28 20 28 20 C28 21.32 28 22.64 28 24 C29.32 24 30.64 24 32 24 C32 25.32 32 26.64 32 28 C33.32 28 34.64 28 36 28 C36 30.64 36 33.28 36 36 C37.32 36 38.64 36 40 36 C40 37.32 40 38.64 40 40 C41.32 40 42.64 40 44 40 C44 42.64 44 45.28 44 48 C45.32 48 46.64 48 48 48 C48 46.68 48 45.36 48 44 C49.32 44 50.64 44 52 44 C52 42.68 52 41.36 52 40 C53.32 40 54.64 40 56 40 C56 41.32 56 42.64 56 44 C57.32 44 58.64 44 60 44 C60 46.64 60 49.28 60 52 C58.68 52 57.36 52 56 52 C56 54.64 56 57.28 56 60 C52.04 60 48.08 60 44 60 C44 63.96 44 67.92 44 72 C42.68 72 41.36 72 40 72 C40 74.64 40 77.28 40 80 C38.68 80 37.36 80 36 80 C36 81.32 36 82.64 36 84 C38.64 84 41.28 84 44 84 C44 85.32 44 86.64 44 88 C49.28 88 54.56 88 60 88 C60 86.68 60 85.36 60 84 C61.32 84 62.64 84 64 84 C64 81.36 64 78.72 64 76 C62.68 76 61.36 76 60 76 C60 77.32 60 78.64 60 80 C58.68 80 57.36 80 56 80 C56 77.36 56 74.72 56 72 C53.36 72 50.72 72 48 72 C48 69.36 48 66.72 48 64 C51.96 64 55.92 64 60 64 C60 65.32 60 66.64 60 68 C61.32 68 62.64 68 64 68 C64 69.32 64 70.64 64 72 C65.32 72 66.64 72 68 72 C68 73.32 68 74.64 68 76 C69.32 76 70.64 76 72 76 C72 89.2 72 102.4 72 116 C73.32 116 74.64 116 76 116 C76 118.64 76 121.28 76 124 C77.32 124 78.64 124 80 124 C80 130.6 80 137.2 80 144 C78.68 144 77.36 144 76 144 C76 146.64 76 149.28 76 152 C74.68 152 73.36 152 72 152 C72 153.32 72 154.64 72 156 C69.36 156 66.72 156 64 156 C64 154.68 64 153.36 64 152 C61.36 152 58.72 152 56 152 C56 150.68 56 149.36 56 148 C54.68 148 53.36 148 52 148 C52 146.68 52 145.36 52 144 C50.68 144 49.36 144 48 144 C48 138.72 48 133.44 48 128 C49.32 128 50.64 128 52 128 C52 126.68 52 125.36 52 124 C50.68 124 49.36 124 48 124 C48 120.04 48 116.08 48 112 C45.36 112 42.72 112 40 112 C40 113.32 40 114.64 40 116 C41.32 116 42.64 116 44 116 C44 118.64 44 121.28 44 124 C42.68 124 41.36 124 40 124 C40 122.68 40 121.36 40 120 C28.12 120 16.24 120 4 120 C4 121.32 4 122.64 4 124 C2.68 124 1.36 124 0 124 C0 121.36 0 118.72 0 116 C-2.64 116 -5.28 116 -8 116 C-8 119.96 -8 123.92 -8 128 C-6.68 128 -5.36 128 -4 128 C-4 133.28 -4 138.56 -4 144 C-5.32 144 -6.64 144 -8 144 C-8 145.32 -8 146.64 -8 148 C-9.32 148 -10.64 148 -12 148 C-12 149.32 -12 150.64 -12 152 C-14.64 152 -17.28 152 -20 152 C-20 153.32 -20 154.64 -20 156 C-22.64 156 -25.28 156 -28 156 C-28 154.68 -28 153.36 -28 152 C-29.32 152 -30.64 152 -32 152 C-32 144.08 -32 136.16 -32 128 C-33.32 128 -34.64 128 -36 128 C-36 113.48 -36 98.96 -36 84 C-34.68 84 -33.36 84 -32 84 C-32 81.36 -32 78.72 -32 76 C-30.68 76 -29.36 76 -28 76 C-28 69.4 -28 62.8 -28 56 C-26.68 56 -25.36 56 -24 56 C-24 52.04 -24 48.08 -24 44 C-22.68 44 -21.36 44 -20 44 C-20 41.36 -20 38.72 -20 36 C-18.68 36 -17.36 36 -16 36 C-16 33.36 -16 30.72 -16 28 C-14.68 28 -13.36 28 -12 28 C-12 25.36 -12 22.72 -12 20 C-10.68 20 -9.36 20 -8 20 C-8 17.36 -8 14.72 -8 12 C-4.04 12 -0.08 12 4 12 C4 9.36 4 6.72 4 4 C2.68 4 1.36 4 0 4 C0 2.68 0 1.36 0 0 Z " fill="#D7AF89" transform="translate(112,52)"/>
<path d="M0 0 C1.32 0 2.64 0 4 0 C4 1.32 4 2.64 4 4 C5.32 4 6.64 4 8 4 C8 6.64 8 9.28 8 12 C4.04 12 0.08 12 -4 12 C-4 14.64 -4 17.28 -4 20 C-5.32 20 -6.64 20 -8 20 C-8 22.64 -8 25.28 -8 28 C-9.32 28 -10.64 28 -12 28 C-12 30.64 -12 33.28 -12 36 C-13.32 36 -14.64 36 -16 36 C-16 38.64 -16 41.28 -16 44 C-17.32 44 -18.64 44 -20 44 C-20 47.96 -20 51.92 -20 56 C-21.32 56 -22.64 56 -24 56 C-24 62.6 -24 69.2 -24 76 C-25.32 76 -26.64 76 -28 76 C-28 78.64 -28 81.28 -28 84 C-29.32 84 -30.64 84 -32 84 C-32 98.52 -32 113.04 -32 128 C-30.68 128 -29.36 128 -28 128 C-28 135.92 -28 143.84 -28 152 C-26.68 152 -25.36 152 -24 152 C-24 153.32 -24 154.64 -24 156 C-21.36 156 -18.72 156 -16 156 C-16 154.68 -16 153.36 -16 152 C-13.36 152 -10.72 152 -8 152 C-8 150.68 -8 149.36 -8 148 C-6.68 148 -5.36 148 -4 148 C-4 146.68 -4 145.36 -4 144 C-2.68 144 -1.36 144 0 144 C0 138.72 0 133.44 0 128 C-1.32 128 -2.64 128 -4 128 C-4 124.04 -4 120.08 -4 116 C-1.36 116 1.28 116 4 116 C4 118.64 4 121.28 4 124 C5.32 124 6.64 124 8 124 C8 122.68 8 121.36 8 120 C19.88 120 31.76 120 44 120 C44 121.32 44 122.64 44 124 C45.32 124 46.64 124 48 124 C48 121.36 48 118.72 48 116 C46.68 116 45.36 116 44 116 C44 114.68 44 113.36 44 112 C46.64 112 49.28 112 52 112 C52 115.96 52 119.92 52 124 C53.32 124 54.64 124 56 124 C56 125.32 56 126.64 56 128 C54.68 128 53.36 128 52 128 C52 133.28 52 138.56 52 144 C53.32 144 54.64 144 56 144 C56 145.32 56 146.64 56 148 C57.32 148 58.64 148 60 148 C60 149.32 60 150.64 60 152 C62.64 152 65.28 152 68 152 C68 153.32 68 154.64 68 156 C70.64 156 73.28 156 76 156 C76 154.68 76 153.36 76 152 C77.32 152 78.64 152 80 152 C80 149.36 80 146.72 80 144 C81.32 144 82.64 144 84 144 C84 145.32 84 146.64 84 148 C85.32 148 86.64 148 88 148 C88 150.64 88 153.28 88 156 C86.68 156 85.36 156 84 156 C84 158.64 84 161.28 84 164 C82.68 164 81.36 164 80 164 C80 165.32 80 166.64 80 168 C78.68 168 77.36 168 76 168 C76 169.32 76 170.64 76 172 C74.68 172 73.36 172 72 172 C72 173.32 72 174.64 72 176 C70.68 176 69.36 176 68 176 C68 177.32 68 178.64 68 180 C64.04 180 60.08 180 56 180 C56 181.32 56 182.64 56 184 C37.52 184 19.04 184 0 184 C0 182.68 0 181.36 0 180 C-3.96 180 -7.92 180 -12 180 C-12 181.32 -12 182.64 -12 184 C-10.68 184 -9.36 184 -8 184 C-8 185.32 -8 186.64 -8 188 C-10.64 188 -13.28 188 -16 188 C-16 189.32 -16 190.64 -16 192 C-30.52 192 -45.04 192 -60 192 C-60 190.68 -60 189.36 -60 188 C-62.64 188 -65.28 188 -68 188 C-68 184.04 -68 180.08 -68 176 C-66.68 176 -65.36 176 -64 176 C-64 174.68 -64 173.36 -64 172 C-62.68 172 -61.36 172 -60 172 C-60 170.68 -60 169.36 -60 168 C-57.36 168 -54.72 168 -52 168 C-52 166.68 -52 165.36 -52 164 C-45.4 164 -38.8 164 -32 164 C-32 161.36 -32 158.72 -32 156 C-33.32 156 -34.64 156 -36 156 C-36 153.36 -36 150.72 -36 148 C-37.32 148 -38.64 148 -40 148 C-40 144.04 -40 140.08 -40 136 C-41.32 136 -42.64 136 -44 136 C-44 121.48 -44 106.96 -44 92 C-42.68 92 -41.36 92 -40 92 C-40 84.08 -40 76.16 -40 68 C-38.68 68 -37.36 68 -36 68 C-36 65.36 -36 62.72 -36 60 C-34.68 60 -33.36 60 -32 60 C-32 56.04 -32 52.08 -32 48 C-30.68 48 -29.36 48 -28 48 C-28 44.04 -28 40.08 -28 36 C-26.68 36 -25.36 36 -24 36 C-24 33.36 -24 30.72 -24 28 C-22.68 28 -21.36 28 -20 28 C-20 25.36 -20 22.72 -20 20 C-18.68 20 -17.36 20 -16 20 C-16 18.68 -16 17.36 -16 16 C-14.68 16 -13.36 16 -12 16 C-12 14.68 -12 13.36 -12 12 C-10.68 12 -9.36 12 -8 12 C-8 10.68 -8 9.36 -8 8 C-6.68 8 -5.36 8 -4 8 C-4 6.68 -4 5.36 -4 4 C-2.68 4 -1.36 4 0 4 C0 2.68 0 1.36 0 0 Z " fill="#AC795A" transform="translate(108,52)"/>
<path d="M0 0 C3.96 0 7.92 0 12 0 C12 1.32 12 2.64 12 4 C14.64 4 17.28 4 20 4 C20 5.32 20 6.64 20 8 C22.64 8 25.28 8 28 8 C28 6.68 28 5.36 28 4 C29.32 4 30.64 4 32 4 C32 2.68 32 1.36 32 0 C33.32 0 34.64 0 36 0 C36 3.96 36 7.92 36 12 C37.32 12 38.64 12 40 12 C40 10.68 40 9.36 40 8 C41.32 8 42.64 8 44 8 C44 9.32 44 10.64 44 12 C45.32 12 46.64 12 48 12 C48 13.32 48 14.64 48 16 C49.32 16 50.64 16 52 16 C52 18.64 52 21.28 52 24 C53.32 24 54.64 24 56 24 C56 22.68 56 21.36 56 20 C57.32 20 58.64 20 60 20 C60 21.32 60 22.64 60 24 C61.32 24 62.64 24 64 24 C64 25.32 64 26.64 64 28 C65.32 28 66.64 28 68 28 C68 30.64 68 33.28 68 36 C69.32 36 70.64 36 72 36 C72 37.32 72 38.64 72 40 C73.32 40 74.64 40 76 40 C76 41.32 76 42.64 76 44 C77.32 44 78.64 44 80 44 C80 46.64 80 49.28 80 52 C81.32 52 82.64 52 84 52 C84 55.63 84 59.26 84 63 C82.68 63 81.36 63 80 63 C80 60.69 80 58.38 80 56 C77.36 56 74.72 56 72 56 C72 54.68 72 53.36 72 52 C70.68 52 69.36 52 68 52 C68 59.92 68 67.84 68 76 C66.68 76 65.36 76 64 76 C64 74.68 64 73.36 64 72 C62.68 72 61.36 72 60 72 C60 70.68 60 69.36 60 68 C56.04 68 52.08 68 48 68 C48 70.64 48 73.28 48 76 C50.64 76 53.28 76 56 76 C56 78.64 56 81.28 56 84 C57.32 84 58.64 84 60 84 C60 82.68 60 81.36 60 80 C61.32 80 62.64 80 64 80 C64 82.64 64 85.28 64 88 C62.68 88 61.36 88 60 88 C60 89.32 60 90.64 60 92 C54.72 92 49.44 92 44 92 C44 90.68 44 89.36 44 88 C41.36 88 38.72 88 36 88 C36 86.68 36 85.36 36 84 C37.32 84 38.64 84 40 84 C40 81.36 40 78.72 40 76 C41.32 76 42.64 76 44 76 C44 72.04 44 68.08 44 64 C47.96 64 51.92 64 56 64 C56 61.36 56 58.72 56 56 C57.32 56 58.64 56 60 56 C60 53.36 60 50.72 60 48 C58.68 48 57.36 48 56 48 C56 46.68 56 45.36 56 44 C54.68 44 53.36 44 52 44 C52 45.32 52 46.64 52 48 C50.68 48 49.36 48 48 48 C48 49.32 48 50.64 48 52 C46.68 52 45.36 52 44 52 C44 49.36 44 46.72 44 44 C42.68 44 41.36 44 40 44 C40 42.68 40 41.36 40 40 C38.68 40 37.36 40 36 40 C36 37.36 36 34.72 36 32 C34.68 32 33.36 32 32 32 C32 30.68 32 29.36 32 28 C30.68 28 29.36 28 28 28 C28 26.68 28 25.36 28 24 C25.36 24 22.72 24 20 24 C20 20.04 20 16.08 20 12 C18.68 12 17.36 12 16 12 C16 10.68 16 9.36 16 8 C13.36 8 10.72 8 8 8 C8 6.68 8 5.36 8 4 C5.36 4 2.72 4 0 4 C0 2.68 0 1.36 0 0 Z " fill="#DD6D08" transform="translate(112,48)"/>
<path d="M0 0 C1.32 0 2.64 0 4 0 C4 1.32 4 2.64 4 4 C5.32 4 6.64 4 8 4 C8 6.64 8 9.28 8 12 C4.04 12 0.08 12 -4 12 C-4 14.64 -4 17.28 -4 20 C-5.32 20 -6.64 20 -8 20 C-8 22.64 -8 25.28 -8 28 C-9.32 28 -10.64 28 -12 28 C-12 30.64 -12 33.28 -12 36 C-13.32 36 -14.64 36 -16 36 C-16 38.64 -16 41.28 -16 44 C-17.32 44 -18.64 44 -20 44 C-20 47.96 -20 51.92 -20 56 C-21.32 56 -22.64 56 -24 56 C-24 62.6 -24 69.2 -24 76 C-25.32 76 -26.64 76 -28 76 C-28 78.64 -28 81.28 -28 84 C-29.32 84 -30.64 84 -32 84 C-32 98.52 -32 113.04 -32 128 C-30.68 128 -29.36 128 -28 128 C-28 134.6 -28 141.2 -28 148 C-29.32 148 -30.64 148 -32 148 C-32 145.36 -32 142.72 -32 140 C-34.64 140 -37.28 140 -40 140 C-40 138.68 -40 137.36 -40 136 C-41.32 136 -42.64 136 -44 136 C-44 121.48 -44 106.96 -44 92 C-42.68 92 -41.36 92 -40 92 C-40 84.08 -40 76.16 -40 68 C-38.68 68 -37.36 68 -36 68 C-36 65.36 -36 62.72 -36 60 C-34.68 60 -33.36 60 -32 60 C-32 56.04 -32 52.08 -32 48 C-30.68 48 -29.36 48 -28 48 C-28 44.04 -28 40.08 -28 36 C-26.68 36 -25.36 36 -24 36 C-24 33.36 -24 30.72 -24 28 C-22.68 28 -21.36 28 -20 28 C-20 25.36 -20 22.72 -20 20 C-18.68 20 -17.36 20 -16 20 C-16 18.68 -16 17.36 -16 16 C-14.68 16 -13.36 16 -12 16 C-12 14.68 -12 13.36 -12 12 C-10.68 12 -9.36 12 -8 12 C-8 10.68 -8 9.36 -8 8 C-6.68 8 -5.36 8 -4 8 C-4 6.68 -4 5.36 -4 4 C-2.68 4 -1.36 4 0 4 C0 2.68 0 1.36 0 0 Z " fill="#D1975E" transform="translate(108,52)"/>
<path d="M0 0 C2.64 0 5.28 0 8 0 C8 1.32 8 2.64 8 4 C9.32 4 10.64 4 12 4 C12 13.24 12 22.48 12 32 C13.32 32 14.64 32 16 32 C16 34.64 16 37.28 16 40 C17.32 40 18.64 40 20 40 C20 50.56 20 61.12 20 72 C22.64 72 25.28 72 28 72 C28 73.32 28 74.64 28 76 C29.32 76 30.64 76 32 76 C32 81.28 32 86.56 32 92 C16.16 92 0.32 92 -16 92 C-16 90.68 -16 89.36 -16 88 C-13.36 88 -10.72 88 -8 88 C-8 86.68 -8 85.36 -8 84 C-6.68 84 -5.36 84 -4 84 C-4 82.68 -4 81.36 -4 80 C-1.36 80 1.28 80 4 80 C4 61.52 4 43.04 4 24 C2.68 24 1.36 24 0 24 C0 16.08 0 8.16 0 0 Z " fill="#FEC407" transform="translate(196,144)"/>
<path d="M0 0 C3.96 0 7.92 0 12 0 C12 1.32 12 2.64 12 4 C30.48 4 48.96 4 68 4 C68 2.68 68 1.36 68 0 C71.96 0 75.92 0 80 0 C80 2.64 80 5.28 80 8 C95.84 8 111.68 8 128 8 C128 9.32 128 10.64 128 12 C118.76 12 109.52 12 100 12 C100 13.32 100 14.64 100 16 C68.32 16 36.64 16 4 16 C4 14.68 4 13.36 4 12 C2.68 12 1.36 12 0 12 C0 13.32 0 14.64 0 16 C-10.56 16 -21.12 16 -32 16 C-32 14.68 -32 13.36 -32 12 C-22.76 12 -13.52 12 -4 12 C-4 10.68 -4 9.36 -4 8 C-1.36 8 1.28 8 4 8 C4 6.68 4 5.36 4 4 C2.68 4 1.36 4 0 4 C0 2.68 0 1.36 0 0 Z " fill="#E11A1A" transform="translate(96,232)"/>
<path d="M0 0 C1.32 0 2.64 0 4 0 C4 1.32 4 2.64 4 4 C5.32 4 6.64 4 8 4 C8 5.32 8 6.64 8 8 C9.32 8 10.64 8 12 8 C12 10.64 12 13.28 12 16 C13.32 16 14.64 16 16 16 C16 18.64 16 21.28 16 24 C14.68 24 13.36 24 12 24 C12 26.64 12 29.28 12 32 C13.32 32 14.64 32 16 32 C16 33.32 16 34.64 16 36 C17.32 36 18.64 36 20 36 C20 37.32 20 38.64 20 40 C21.32 40 22.64 40 24 40 C24 42.64 24 45.28 24 48 C25.32 48 26.64 48 28 48 C28 51.96 28 55.92 28 60 C26.68 60 25.36 60 24 60 C24 61.32 24 62.64 24 64 C21.36 64 18.72 64 16 64 C16 65.32 16 66.64 16 68 C14.68 68 13.36 68 12 68 C12 66.68 12 65.36 12 64 C-3.84 64 -19.68 64 -36 64 C-36 60.04 -36 56.08 -36 52 C-34.68 52 -33.36 52 -32 52 C-32 50.68 -32 49.36 -32 48 C-30.68 48 -29.36 48 -28 48 C-28 46.68 -28 45.36 -28 44 C-26.68 44 -25.36 44 -24 44 C-24 42.68 -24 41.36 -24 40 C-22.68 40 -21.36 40 -20 40 C-20 37.36 -20 34.72 -20 32 C-18.68 32 -17.36 32 -16 32 C-16 37.28 -16 42.56 -16 48 C-17.32 48 -18.64 48 -20 48 C-20 49.32 -20 50.64 -20 52 C-21.32 52 -22.64 52 -24 52 C-24 53.32 -24 54.64 -24 56 C-26.64 56 -29.28 56 -32 56 C-32 57.32 -32 58.64 -32 60 C-16.16 60 -0.32 60 16 60 C16 54.72 16 49.44 16 44 C14.68 44 13.36 44 12 44 C12 42.68 12 41.36 12 40 C9.36 40 6.72 40 4 40 C4 29.44 4 18.88 4 8 C2.68 8 1.36 8 0 8 C0 5.36 0 2.72 0 0 Z " fill="#E73E13" transform="translate(212,176)"/>
<path d="M0 0 C2.64 0 5.28 0 8 0 C8 2.64 8 5.28 8 8 C9.32 8 10.64 8 12 8 C12 9.32 12 10.64 12 12 C13.32 12 14.64 12 16 12 C16 9.36 16 6.72 16 4 C17.32 4 18.64 4 20 4 C20 5.32 20 6.64 20 8 C21.32 8 22.64 8 24 8 C24 9.32 24 10.64 24 12 C25.32 12 26.64 12 28 12 C28 14.64 28 17.28 28 20 C29.32 20 30.64 20 32 20 C32 23.63 32 27.26 32 31 C30.68 31 29.36 31 28 31 C28 28.69 28 26.38 28 24 C25.36 24 22.72 24 20 24 C20 22.68 20 21.36 20 20 C18.68 20 17.36 20 16 20 C16 27.92 16 35.84 16 44 C14.68 44 13.36 44 12 44 C12 42.68 12 41.36 12 40 C10.68 40 9.36 40 8 40 C8 38.68 8 37.36 8 36 C4.04 36 0.08 36 -4 36 C-4 38.64 -4 41.28 -4 44 C-1.36 44 1.28 44 4 44 C4 46.64 4 49.28 4 52 C5.32 52 6.64 52 8 52 C8 50.68 8 49.36 8 48 C9.32 48 10.64 48 12 48 C12 50.64 12 53.28 12 56 C10.68 56 9.36 56 8 56 C8 57.32 8 58.64 8 60 C2.72 60 -2.56 60 -8 60 C-8 58.68 -8 57.36 -8 56 C-10.64 56 -13.28 56 -16 56 C-16 54.68 -16 53.36 -16 52 C-14.68 52 -13.36 52 -12 52 C-12 49.36 -12 46.72 -12 44 C-10.68 44 -9.36 44 -8 44 C-8 40.04 -8 36.08 -8 32 C-4.04 32 -0.08 32 4 32 C4 29.36 4 26.72 4 24 C5.32 24 6.64 24 8 24 C8 21.36 8 18.72 8 16 C6.68 16 5.36 16 4 16 C4 14.68 4 13.36 4 12 C2.68 12 1.36 12 0 12 C0 13.32 0 14.64 0 16 C-1.32 16 -2.64 16 -4 16 C-4 17.32 -4 18.64 -4 20 C-5.32 20 -6.64 20 -8 20 C-8 17.36 -8 14.72 -8 12 C-6.68 12 -5.36 12 -4 12 C-4 10.68 -4 9.36 -4 8 C-1.36 8 1.28 8 4 8 C4 6.68 4 5.36 4 4 C2.68 4 1.36 4 0 4 C0 2.68 0 1.36 0 0 Z " fill="#E73D13" transform="translate(164,80)"/>
<path d="M0 0 C7.92 0 15.84 0 24 0 C24 2.64 24 5.28 24 8 C25.32 8 26.64 8 28 8 C28 14.6 28 21.2 28 28 C26.68 28 25.36 28 24 28 C24 30.64 24 33.28 24 36 C22.68 36 21.36 36 20 36 C20 37.32 20 38.64 20 40 C17.36 40 14.72 40 12 40 C12 38.68 12 37.36 12 36 C9.36 36 6.72 36 4 36 C4 34.68 4 33.36 4 32 C2.68 32 1.36 32 0 32 C0 30.68 0 29.36 0 28 C-1.32 28 -2.64 28 -4 28 C-4 22.72 -4 17.44 -4 12 C-2.68 12 -1.36 12 0 12 C0 8.04 0 4.08 0 0 Z " fill="#D9B18A" transform="translate(164,168)"/>
<path d="M0 0 C1.32 0 2.64 0 4 0 C4 5.28 4 10.56 4 16 C2.68 16 1.36 16 0 16 C0 18.64 0 21.28 0 24 C-1.32 24 -2.64 24 -4 24 C-4 25.32 -4 26.64 -4 28 C-5.32 28 -6.64 28 -8 28 C-8 29.32 -8 30.64 -8 32 C-14.6 32 -21.2 32 -28 32 C-28 30.68 -28 29.36 -28 28 C-29.32 28 -30.64 28 -32 28 C-32 26.68 -32 25.36 -32 24 C-33.32 24 -34.64 24 -36 24 C-36 21.36 -36 18.72 -36 16 C-37.32 16 -38.64 16 -40 16 C-40 12.04 -40 8.08 -40 4 C-37.36 4 -34.72 4 -32 4 C-32 5.32 -32 6.64 -32 8 C-30.68 8 -29.36 8 -28 8 C-28 6.68 -28 5.36 -28 4 C-21.4 4 -14.8 4 -8 4 C-8 5.32 -8 6.64 -8 8 C-6.68 8 -5.36 8 -4 8 C-4 6.68 -4 5.36 -4 4 C-2.68 4 -1.36 4 0 4 C0 2.68 0 1.36 0 0 Z " fill="#D8AF86" transform="translate(152,180)"/>
<path d="M0 0 C1.32 0 2.64 0 4 0 C4 1.32 4 2.64 4 4 C5.32 4 6.64 4 8 4 C8 6.64 8 9.28 8 12 C9.32 12 10.64 12 12 12 C12 13.32 12 14.64 12 16 C4.08 16 -3.84 16 -12 16 C-12 17.32 -12 18.64 -12 20 C-13.32 20 -14.64 20 -16 20 C-16 21.32 -16 22.64 -16 24 C-17.32 24 -18.64 24 -20 24 C-20 25.32 -20 26.64 -20 28 C-17.36 28 -14.72 28 -12 28 C-12 30.64 -12 33.28 -12 36 C-17.28 36 -22.56 36 -28 36 C-28 34.68 -28 33.36 -28 32 C-30.64 32 -33.28 32 -36 32 C-36 28.04 -36 24.08 -36 20 C-34.68 20 -33.36 20 -32 20 C-32 18.68 -32 17.36 -32 16 C-30.68 16 -29.36 16 -28 16 C-28 14.68 -28 13.36 -28 12 C-25.36 12 -22.72 12 -20 12 C-20 10.68 -20 9.36 -20 8 C-13.4 8 -6.8 8 0 8 C0 5.36 0 2.72 0 0 Z " fill="#F48207" transform="translate(76,208)"/>
<path d="M0 0 C7.92 0 15.84 0 24 0 C24 2.64 24 5.28 24 8 C26.64 8 29.28 8 32 8 C32 9.32 32 10.64 32 12 C33.32 12 34.64 12 36 12 C36 13.32 36 14.64 36 16 C33.36 16 30.72 16 28 16 C28 17.32 28 18.64 28 20 C18.76 20 9.52 20 0 20 C0 17.36 0 14.72 0 12 C-2.64 12 -5.28 12 -8 12 C-8 10.68 -8 9.36 -8 8 C-6.68 8 -5.36 8 -4 8 C-4 6.68 -4 5.36 -4 4 C-2.68 4 -1.36 4 0 4 C0 2.68 0 1.36 0 0 Z " fill="#FEC407" transform="translate(64,224)"/>
<path d="M0 0 C2.64 0 5.28 0 8 0 C8 1.32 8 2.64 8 4 C9.32 4 10.64 4 12 4 C12 13.24 12 22.48 12 32 C13.32 32 14.64 32 16 32 C16 34.64 16 37.28 16 40 C17.32 40 18.64 40 20 40 C20 41.32 20 42.64 20 44 C17.36 44 14.72 44 12 44 C12 42.68 12 41.36 12 40 C10.68 40 9.36 40 8 40 C8 53.2 8 66.4 8 80 C6.68 80 5.36 80 4 80 C4 61.52 4 43.04 4 24 C2.68 24 1.36 24 0 24 C0 16.08 0 8.16 0 0 Z " fill="#F48207" transform="translate(196,144)"/>
<path d="M0 0 C2.64 0 5.28 0 8 0 C8 3.96 8 7.92 8 12 C9.32 12 10.64 12 12 12 C12 13.32 12 14.64 12 16 C8.04 16 4.08 16 0 16 C0 17.32 0 18.64 0 20 C-1.32 20 -2.64 20 -4 20 C-4 21.32 -4 22.64 -4 24 C-5.32 24 -6.64 24 -8 24 C-8 22.68 -8 21.36 -8 20 C-14.6 20 -21.2 20 -28 20 C-28 21.32 -28 22.64 -28 24 C-29.32 24 -30.64 24 -32 24 C-32 22.68 -32 21.36 -32 20 C-34.64 20 -37.28 20 -40 20 C-40 18.68 -40 17.36 -40 16 C-38.68 16 -37.36 16 -36 16 C-36 13.36 -36 10.72 -36 8 C-24.12 8 -12.24 8 0 8 C0 9.32 0 10.64 0 12 C1.32 12 2.64 12 4 12 C4 9.36 4 6.72 4 4 C2.68 4 1.36 4 0 4 C0 2.68 0 1.36 0 0 Z " fill="#B97957" transform="translate(152,164)"/>
<path d="M0 0 C1.32 0 2.64 0 4 0 C4 2.64 4 5.28 4 8 C2.68 8 1.36 8 0 8 C0 10.64 0 13.28 0 16 C1.32 16 2.64 16 4 16 C4 17.32 4 18.64 4 20 C2.68 20 1.36 20 0 20 C0 22.64 0 25.28 0 28 C-1.32 28 -2.64 28 -4 28 C-4 29.32 -4 30.64 -4 32 C-5.32 32 -6.64 32 -8 32 C-8 33.32 -8 34.64 -8 36 C-14.6 36 -21.2 36 -28 36 C-28 30.72 -28 25.44 -28 20 C-26.68 20 -25.36 20 -24 20 C-24 21.32 -24 22.64 -24 24 C-22.68 24 -21.36 24 -20 24 C-20 22.68 -20 21.36 -20 20 C-16.04 20 -12.08 20 -8 20 C-8 17.36 -8 14.72 -8 12 C-11.96 12 -15.92 12 -20 12 C-20 10.68 -20 9.36 -20 8 C-14.72 8 -9.44 8 -4 8 C-4 6.68 -4 5.36 -4 4 C-2.68 4 -1.36 4 0 4 C0 2.68 0 1.36 0 0 Z " fill="#D98075" transform="translate(116,128)"/>
<path d="M0 0 C1.32 0 2.64 0 4 0 C4 6.6 4 13.2 4 20 C5.32 20 6.64 20 8 20 C8 21.32 8 22.64 8 24 C1.4 24 -5.2 24 -12 24 C-12 26.64 -12 29.28 -12 32 C-13.32 32 -14.64 32 -16 32 C-16 26.72 -16 21.44 -16 16 C-17.32 16 -18.64 16 -20 16 C-20 12.04 -20 8.08 -20 4 C-14.72 4 -9.44 4 -4 4 C-4 5.32 -4 6.64 -4 8 C-2.68 8 -1.36 8 0 8 C0 5.36 0 2.72 0 0 Z " fill="#DA9882" transform="translate(176,144)"/>
<path d="M0 0 C3.96 0 7.92 0 12 0 C12 15.84 12 31.68 12 48 C13.32 48 14.64 48 16 48 C16 57.24 16 66.48 16 76 C14.68 76 13.36 76 12 76 C12 68.08 12 60.16 12 52 C10.68 52 9.36 52 8 52 C8 49.36 8 46.72 8 44 C6.68 44 5.36 44 4 44 C4 34.76 4 25.52 4 16 C5.32 16 6.64 16 8 16 C8 14.68 8 13.36 8 12 C6.68 12 5.36 12 4 12 C4 9.36 4 6.72 4 4 C2.68 4 1.36 4 0 4 C0 2.68 0 1.36 0 0 Z " fill="#E11D19" transform="translate(180,124)"/>
<path d="M0 0 C1.32 0 2.64 0 4 0 C4 2.64 4 5.28 4 8 C6.64 8 9.28 8 12 8 C12 9.32 12 10.64 12 12 C13.32 12 14.64 12 16 12 C16 13.32 16 14.64 16 16 C17.32 16 18.64 16 20 16 C20 18.64 20 21.28 20 24 C18.68 24 17.36 24 16 24 C16 22.68 16 21.36 16 20 C14.68 20 13.36 20 12 20 C12 18.68 12 17.36 12 16 C10.68 16 9.36 16 8 16 C8 14.68 8 13.36 8 12 C6.68 12 5.36 12 4 12 C4 14.64 4 17.28 4 20 C5.32 20 6.64 20 8 20 C8 21.32 8 22.64 8 24 C9.32 24 10.64 24 12 24 C12 25.32 12 26.64 12 28 C13.32 28 14.64 28 16 28 C16 29.32 16 30.64 16 32 C14.68 32 13.36 32 12 32 C12 33.32 12 34.64 12 36 C10.68 36 9.36 36 8 36 C8 37.32 8 38.64 8 40 C5.36 40 2.72 40 0 40 C0 38.68 0 37.36 0 36 C-1.32 36 -2.64 36 -4 36 C-4 34.68 -4 33.36 -4 32 C-5.32 32 -6.64 32 -8 32 C-8 29.36 -8 26.72 -8 24 C-6.68 24 -5.36 24 -4 24 C-4 25.32 -4 26.64 -4 28 C-2.68 28 -1.36 28 0 28 C0 18.76 0 9.52 0 0 Z " fill="#EBD7C3" transform="translate(128,64)"/>
<path d="M0 0 C2.64 0 5.28 0 8 0 C8 3.96 8 7.92 8 12 C9.65 12 11.3 12 13 12 C13 17.28 13 22.56 13 28 C13.99 28 14.98 28 16 28 C16 38.56 16 49.12 16 60 C14.68 60 13.36 60 12 60 C12 50.76 12 41.52 12 32 C10.68 32 9.36 32 8 32 C8 30.68 8 29.36 8 28 C5.36 28 2.72 28 0 28 C0 18.76 0 9.52 0 0 Z " fill="#F69307" transform="translate(196,116)"/>
<path d="M0 0 C3.96 0 7.92 0 12 0 C12 1.32 12 2.64 12 4 C15.96 4 19.92 4 24 4 C24 6.64 24 9.28 24 12 C20.04 12 16.08 12 12 12 C12 13.32 12 14.64 12 16 C10.68 16 9.36 16 8 16 C8 14.68 8 13.36 8 12 C6.68 12 5.36 12 4 12 C4 17.28 4 22.56 4 28 C11.92 28 19.84 28 28 28 C28 29.32 28 30.64 28 32 C18.76 32 9.52 32 0 32 C0 21.44 0 10.88 0 0 Z " fill="#D8967D" transform="translate(84,136)"/>
<path d="M0 0 C5.28 0 10.56 0 16 0 C16 1.32 16 2.64 16 4 C12.04 4 8.08 4 4 4 C4 6.64 4 9.28 4 12 C6.64 12 9.28 12 12 12 C12 14.64 12 17.28 12 20 C13.32 20 14.64 20 16 20 C16 18.68 16 17.36 16 16 C17.32 16 18.64 16 20 16 C20 18.64 20 21.28 20 24 C18.68 24 17.36 24 16 24 C16 25.32 16 26.64 16 28 C10.72 28 5.44 28 0 28 C0 26.68 0 25.36 0 24 C-2.64 24 -5.28 24 -8 24 C-8 22.68 -8 21.36 -8 20 C-6.68 20 -5.36 20 -4 20 C-4 17.36 -4 14.72 -4 12 C-2.68 12 -1.36 12 0 12 C0 8.04 0 4.08 0 0 Z " fill="#1C1C1C" transform="translate(156,112)"/>
<path d="M0 0 C3.96 0 7.92 0 12 0 C12 1.32 12 2.64 12 4 C14.64 4 17.28 4 20 4 C20 5.32 20 6.64 20 8 C22.64 8 25.28 8 28 8 C28 6.68 28 5.36 28 4 C29.32 4 30.64 4 32 4 C32 2.68 32 1.36 32 0 C33.32 0 34.64 0 36 0 C36 3.96 36 7.92 36 12 C34.68 12 33.36 12 32 12 C32 15.96 32 19.92 32 24 C33.32 24 34.64 24 36 24 C36 26.64 36 29.28 36 32 C34.68 32 33.36 32 32 32 C32 30.68 32 29.36 32 28 C30.68 28 29.36 28 28 28 C28 26.68 28 25.36 28 24 C25.36 24 22.72 24 20 24 C20 20.04 20 16.08 20 12 C18.68 12 17.36 12 16 12 C16 10.68 16 9.36 16 8 C13.36 8 10.72 8 8 8 C8 6.68 8 5.36 8 4 C5.36 4 2.72 4 0 4 C0 2.68 0 1.36 0 0 Z " fill="#EF680B" transform="translate(112,48)"/>
<path d="M0 0 C31.68 0 63.36 0 96 0 C96 1.32 96 2.64 96 4 C64.32 4 32.64 4 0 4 C0 2.68 0 1.36 0 0 Z " fill="#000000" transform="translate(100,244)"/>
<path d="M0 0 C3.96 0 7.92 0 12 0 C12 1.32 12 2.64 12 4 C30.48 4 48.96 4 68 4 C68 2.68 68 1.36 68 0 C71.96 0 75.92 0 80 0 C80 2.64 80 5.28 80 8 C56.24 8 32.48 8 8 8 C8 6.68 8 5.36 8 4 C5.36 4 2.72 4 0 4 C0 2.68 0 1.36 0 0 Z " fill="#000000" transform="translate(96,232)"/>
<path d="M0 0 C1.32 0 2.64 0 4 0 C4 1.32 4 2.64 4 4 C5.32 4 6.64 4 8 4 C8 5.32 8 6.64 8 8 C9.32 8 10.64 8 12 8 C12 10.64 12 13.28 12 16 C13.32 16 14.64 16 16 16 C16 18.64 16 21.28 16 24 C14.68 24 13.36 24 12 24 C12 26.64 12 29.28 12 32 C13.32 32 14.64 32 16 32 C16 33.32 16 34.64 16 36 C17.32 36 18.64 36 20 36 C20 37.32 20 38.64 20 40 C14.72 40 9.44 40 4 40 C4 29.44 4 18.88 4 8 C2.68 8 1.36 8 0 8 C0 5.36 0 2.72 0 0 Z " fill="#E73D13" transform="translate(212,176)"/>
<path d="M0 0 C3.96 0 7.92 0 12 0 C12 1.32 12 2.64 12 4 C13.32 4 14.64 4 16 4 C16 5.32 16 6.64 16 8 C17.32 8 18.64 8 20 8 C20 9.32 20 10.64 20 12 C21.32 12 22.64 12 24 12 C24 23.88 24 35.76 24 48 C22.68 48 21.36 48 20 48 C20 41.4 20 34.8 20 28 C18.68 28 17.36 28 16 28 C16 22.72 16 17.44 16 12 C14.68 12 13.36 12 12 12 C12 13.32 12 14.64 12 16 C10.68 16 9.36 16 8 16 C8 13.36 8 10.72 8 8 C5.36 8 2.72 8 0 8 C0 5.36 0 2.72 0 0 Z " fill="#EBC9A9" transform="translate(160,116)"/>
<path d="M0 0 C1.32 0 2.64 0 4 0 C4 1.32 4 2.64 4 4 C6.64 4 9.28 4 12 4 C12 6.31 12 8.62 12 11 C13.32 11 14.64 11 16 11 C16 17.93 16 24.86 16 32 C14.68 32 13.36 32 12 32 C12 29.36 12 26.72 12 24 C8.04 24 4.08 24 0 24 C0 16.08 0 8.16 0 0 Z " fill="#F27808" transform="translate(180,100)"/>
<path d="M0 0 C1.32 0 2.64 0 4 0 C4 5.28 4 10.56 4 16 C2.68 16 1.36 16 0 16 C0 14.68 0 13.36 0 12 C-5.28 12 -10.56 12 -16 12 C-16 15.96 -16 19.92 -16 24 C-14.68 24 -13.36 24 -12 24 C-12 25.32 -12 26.64 -12 28 C-14.64 28 -17.28 28 -20 28 C-20 20.08 -20 12.16 -20 4 C-13.4 4 -6.8 4 0 4 C0 2.68 0 1.36 0 0 Z " fill="#DEA490" transform="translate(172,136)"/>
<path d="M0 0 C5.28 0 10.56 0 16 0 C16 1.32 16 2.64 16 4 C17.32 4 18.64 4 20 4 C20 9.28 20 14.56 20 20 C17.36 20 14.72 20 12 20 C12 18.68 12 17.36 12 16 C10.68 16 9.36 16 8 16 C8 14.68 8 13.36 8 12 C6.68 12 5.36 12 4 12 C4 9.36 4 6.72 4 4 C2.68 4 1.36 4 0 4 C0 2.68 0 1.36 0 0 Z " fill="#F48207" transform="translate(208,216)"/>
<path d="M0 0 C1.32 0 2.64 0 4 0 C4 1.32 4 2.64 4 4 C5.32 4 6.64 4 8 4 C8 6.64 8 9.28 8 12 C6.68 12 5.36 12 4 12 C4 14.64 4 17.28 4 20 C2.68 20 1.36 20 0 20 C0 21.32 0 22.64 0 24 C-1.32 24 -2.64 24 -4 24 C-4 25.32 -4 26.64 -4 28 C-5.32 28 -6.64 28 -8 28 C-8 29.32 -8 30.64 -8 32 C-9.32 32 -10.64 32 -12 32 C-12 33.32 -12 34.64 -12 36 C-15.96 36 -19.92 36 -24 36 C-24 34.68 -24 33.36 -24 32 C-21.36 32 -18.72 32 -16 32 C-16 30.68 -16 29.36 -16 28 C-14.68 28 -13.36 28 -12 28 C-12 26.68 -12 25.36 -12 24 C-10.68 24 -9.36 24 -8 24 C-8 22.68 -8 21.36 -8 20 C-6.68 20 -5.36 20 -4 20 C-4 18.68 -4 17.36 -4 16 C-2.68 16 -1.36 16 0 16 C0 10.72 0 5.44 0 0 Z " fill="#B38366" transform="translate(188,196)"/>
<path d="M0 0 C2.64 0 5.28 0 8 0 C8 2.64 8 5.28 8 8 C9.32 8 10.64 8 12 8 C12 9.32 12 10.64 12 12 C13.32 12 14.64 12 16 12 C16 9.36 16 6.72 16 4 C17.32 4 18.64 4 20 4 C20 5.32 20 6.64 20 8 C21.32 8 22.64 8 24 8 C24 9.32 24 10.64 24 12 C22.68 12 21.36 12 20 12 C20 13.32 20 14.64 20 16 C14.72 16 9.44 16 4 16 C4 14.68 4 13.36 4 12 C2.68 12 1.36 12 0 12 C0 13.32 0 14.64 0 16 C-1.32 16 -2.64 16 -4 16 C-4 17.32 -4 18.64 -4 20 C-5.32 20 -6.64 20 -8 20 C-8 17.36 -8 14.72 -8 12 C-6.68 12 -5.36 12 -4 12 C-4 10.68 -4 9.36 -4 8 C-1.36 8 1.28 8 4 8 C4 6.68 4 5.36 4 4 C2.68 4 1.36 4 0 4 C0 2.68 0 1.36 0 0 Z " fill="#000000" transform="translate(164,80)"/>
<path d="M0 0 C11.88 0 23.76 0 36 0 C36 1.32 36 2.64 36 4 C33.36 4 30.72 4 28 4 C28 5.32 28 6.64 28 8 C18.76 8 9.52 8 0 8 C0 5.36 0 2.72 0 0 Z " fill="#FAAA07" transform="translate(64,236)"/>
<path d="M0 0 C2.64 0 5.28 0 8 0 C8 2.64 8 5.28 8 8 C9.32 8 10.64 8 12 8 C12 14.6 12 21.2 12 28 C9.36 28 6.72 28 4 28 C4 22.72 4 17.44 4 12 C2.68 12 1.36 12 0 12 C0 8.04 0 4.08 0 0 Z " fill="#ECCBAB" transform="translate(180,168)"/>
<path d="M0 0 C18.48 0 36.96 0 56 0 C56 1.32 56 2.64 56 4 C37.52 4 19.04 4 0 4 C0 2.68 0 1.36 0 0 Z " fill="#B38366" transform="translate(108,232)"/>
<path d="M0 0 C5.28 0 10.56 0 16 0 C16 1.32 16 2.64 16 4 C17.32 4 18.64 4 20 4 C20 6.64 20 9.28 20 12 C13.4 12 6.8 12 0 12 C0 8.04 0 4.08 0 0 Z " fill="#D97E74" transform="translate(156,148)"/>
<path d="M0 0 C3.96 0 7.92 0 12 0 C12 3.96 12 7.92 12 12 C4.08 12 -3.84 12 -12 12 C-12 10.68 -12 9.36 -12 8 C-9.36 8 -6.72 8 -4 8 C-4 6.68 -4 5.36 -4 4 C-2.68 4 -1.36 4 0 4 C0 2.68 0 1.36 0 0 Z " fill="#FAAA07" transform="translate(192,224)"/>
<path d="M0 0 C1.32 0 2.64 0 4 0 C4 5.28 4 10.56 4 16 C2.68 16 1.36 16 0 16 C0 17.32 0 18.64 0 20 C-1.32 20 -2.64 20 -4 20 C-4 21.32 -4 22.64 -4 24 C-7.96 24 -11.92 24 -16 24 C-16 22.68 -16 21.36 -16 20 C-14.68 20 -13.36 20 -12 20 C-12 18.68 -12 17.36 -12 16 C-10.68 16 -9.36 16 -8 16 C-8 14.68 -8 13.36 -8 12 C-6.68 12 -5.36 12 -4 12 C-4 10.68 -4 9.36 -4 8 C-2.68 8 -1.36 8 0 8 C0 5.36 0 2.72 0 0 Z " fill="#8F1010" transform="translate(192,208)"/>
<path d="M0 0 C1.32 0 2.64 0 4 0 C4 1.32 4 2.64 4 4 C14.56 4 25.12 4 36 4 C36 5.32 36 6.64 36 8 C34.68 8 33.36 8 32 8 C32 9.32 32 10.64 32 12 C30.68 12 29.36 12 28 12 C28 10.68 28 9.36 28 8 C21.4 8 14.8 8 8 8 C8 9.32 8 10.64 8 12 C6.68 12 5.36 12 4 12 C4 10.68 4 9.36 4 8 C1.36 8 -1.28 8 -4 8 C-4 6.68 -4 5.36 -4 4 C-2.68 4 -1.36 4 0 4 C0 2.68 0 1.36 0 0 Z " fill="#A18364" transform="translate(116,176)"/>
<path d="M0 0 C1.32 0 2.64 0 4 0 C4 9.24 4 18.48 4 28 C5.32 28 6.64 28 8 28 C8 30.64 8 33.28 8 36 C9.32 36 10.64 36 12 36 C12 37.32 12 38.64 12 40 C9.36 40 6.72 40 4 40 C4 38.68 4 37.36 4 36 C2.68 36 1.36 36 0 36 C0 24.12 0 12.24 0 0 Z " fill="#E94812" transform="translate(204,148)"/>
<path d="M0 0 C1.32 0 2.64 0 4 0 C4 2.64 4 5.28 4 8 C10.6 8 17.2 8 24 8 C24 10.64 24 13.28 24 16 C18.72 16 13.44 16 8 16 C8 14.68 8 13.36 8 12 C5.36 12 2.72 12 0 12 C0 8.04 0 4.08 0 0 Z " fill="#E11A1A" transform="translate(40,228)"/>
<path d="M0 0 C1.32 0 2.64 0 4 0 C4 1.32 4 2.64 4 4 C5.32 4 6.64 4 8 4 C8 6.64 8 9.28 8 12 C9.32 12 10.64 12 12 12 C12 13.32 12 14.64 12 16 C9.36 16 6.72 16 4 16 C4 14.68 4 13.36 4 12 C-3.92 12 -11.84 12 -20 12 C-20 10.68 -20 9.36 -20 8 C-13.4 8 -6.8 8 0 8 C0 5.36 0 2.72 0 0 Z " fill="#000000" transform="translate(76,208)"/>
<path d="M0 0 C2.64 0 5.28 0 8 0 C8 7.92 8 15.84 8 24 C5.36 24 2.72 24 0 24 C0 16.08 0 8.16 0 0 Z " fill="#FFC907" transform="translate(196,144)"/>
<path d="M0 0 C1.32 0 2.64 0 4 0 C4 2.64 4 5.28 4 8 C2.68 8 1.36 8 0 8 C0 10.64 0 13.28 0 16 C1.32 16 2.64 16 4 16 C4 17.32 4 18.64 4 20 C1.36 20 -1.28 20 -4 20 C-4 18.68 -4 17.36 -4 16 C-5.32 16 -6.64 16 -8 16 C-8 14.68 -8 13.36 -8 12 C-11.96 12 -15.92 12 -20 12 C-20 10.68 -20 9.36 -20 8 C-14.72 8 -9.44 8 -4 8 C-4 6.68 -4 5.36 -4 4 C-2.68 4 -1.36 4 0 4 C0 2.68 0 1.36 0 0 Z " fill="#D89678" transform="translate(116,128)"/>
<path d="M0 0 C1.32 0 2.64 0 4 0 C4 1.32 4 2.64 4 4 C5.32 4 6.64 4 8 4 C8 5.32 8 6.64 8 8 C9.32 8 10.64 8 12 8 C12 10.64 12 13.28 12 16 C13.32 16 14.64 16 16 16 C16 18.64 16 21.28 16 24 C14.68 24 13.36 24 12 24 C12 22.68 12 21.36 12 20 C9.36 20 6.72 20 4 20 C4 16.04 4 12.08 4 8 C2.68 8 1.36 8 0 8 C0 5.36 0 2.72 0 0 Z " fill="#E11A1A" transform="translate(212,176)"/>
<path d="M0 0 C1.32 0 2.64 0 4 0 C4 14.52 4 29.04 4 44 C2.68 44 1.36 44 0 44 C0 29.48 0 14.96 0 0 Z " fill="#000000" transform="translate(64,144)"/>
<path d="M0 0 C3.96 0 7.92 0 12 0 C12 1.32 12 2.64 12 4 C14.64 4 17.28 4 20 4 C20 5.32 20 6.64 20 8 C22.64 8 25.28 8 28 8 C28 10.64 28 13.28 28 16 C25.36 16 22.72 16 20 16 C20 14.68 20 13.36 20 12 C18.68 12 17.36 12 16 12 C16 10.68 16 9.36 16 8 C13.36 8 10.72 8 8 8 C8 6.68 8 5.36 8 4 C5.36 4 2.72 4 0 4 C0 2.68 0 1.36 0 0 Z " fill="#281501" transform="translate(112,48)"/>
<path d="M0 0 C1.65 0 3.3 0 5 0 C5 1.32 5 2.64 5 4 C5.99 4 6.98 4 8 4 C8 14.56 8 25.12 8 36 C6.68 36 5.36 36 4 36 C4 26.76 4 17.52 4 8 C2.68 8 1.36 8 0 8 C0 5.36 0 2.72 0 0 Z " fill="#000000" transform="translate(204,140)"/>
<path d="M0 0 C2.64 0 5.28 0 8 0 C8 1.32 8 2.64 8 4 C6.68 4 5.36 4 4 4 C4 5.32 4 6.64 4 8 C-6.56 8 -17.12 8 -28 8 C-28 6.68 -28 5.36 -28 4 C-18.76 4 -9.52 4 0 4 C0 2.68 0 1.36 0 0 Z " fill="#000000" transform="translate(92,240)"/>
<path d="M0 0 C10.56 0 21.12 0 32 0 C32 1.32 32 2.64 32 4 C22.76 4 13.52 4 4 4 C4 5.32 4 6.64 4 8 C1.36 8 -1.28 8 -4 8 C-4 6.68 -4 5.36 -4 4 C-2.68 4 -1.36 4 0 4 C0 2.68 0 1.36 0 0 Z " fill="#E11A1A" transform="translate(48,220)"/>
<path d="M0 0 C2.64 0 5.28 0 8 0 C8 7.92 8 15.84 8 24 C6.68 24 5.36 24 4 24 C4 21.36 4 18.72 4 16 C2.68 16 1.36 16 0 16 C0 10.72 0 5.44 0 0 Z " fill="#F48207" transform="translate(208,188)"/>
<path d="M0 0 C6.6 0 13.2 0 20 0 C20 2.64 20 5.28 20 8 C13.4 8 6.8 8 0 8 C0 5.36 0 2.72 0 0 Z " fill="#D59A60" transform="translate(124,184)"/>
<path d="M0 0 C1.32 0 2.64 0 4 0 C4 3.96 4 7.92 4 12 C5.32 12 6.64 12 8 12 C8 15.96 8 19.92 8 24 C6.68 24 5.36 24 4 24 C4 25.32 4 26.64 4 28 C2.68 28 1.36 28 0 28 C0 18.76 0 9.52 0 0 Z " fill="#EBD7C3" transform="translate(132,128)"/>
<path d="M0 0 C1.32 0 2.64 0 4 0 C4 6.6 4 13.2 4 20 C5.32 20 6.64 20 8 20 C8 22.64 8 25.28 8 28 C6.68 28 5.36 28 4 28 C4 26.68 4 25.36 4 24 C2.68 24 1.36 24 0 24 C0 21.36 0 18.72 0 16 C-1.32 16 -2.64 16 -4 16 C-4 13.36 -4 10.72 -4 8 C-2.68 8 -1.36 8 0 8 C0 5.36 0 2.72 0 0 Z " fill="#E11A1A" transform="translate(172,96)"/>
<path d="M0 0 C1.32 0 2.64 0 4 0 C4 1.32 4 2.64 4 4 C5.32 4 6.64 4 8 4 C8 6.64 8 9.28 8 12 C6.68 12 5.36 12 4 12 C4 14.64 4 17.28 4 20 C2.68 20 1.36 20 0 20 C0 17.36 0 14.72 0 12 C-2.64 12 -5.28 12 -8 12 C-8 10.68 -8 9.36 -8 8 C-6.68 8 -5.36 8 -4 8 C-4 6.68 -4 5.36 -4 4 C-2.68 4 -1.36 4 0 4 C0 2.68 0 1.36 0 0 Z " fill="#ECCBAB" transform="translate(164,92)"/>
<path d="M0 0 C1.32 0 2.64 0 4 0 C4 2.64 4 5.28 4 8 C6.64 8 9.28 8 12 8 C12 9.32 12 10.64 12 12 C13.32 12 14.64 12 16 12 C16 13.32 16 14.64 16 16 C17.32 16 18.64 16 20 16 C20 18.64 20 21.28 20 24 C18.68 24 17.36 24 16 24 C16 22.68 16 21.36 16 20 C14.68 20 13.36 20 12 20 C12 18.68 12 17.36 12 16 C10.68 16 9.36 16 8 16 C8 14.68 8 13.36 8 12 C5.36 12 2.72 12 0 12 C0 8.04 0 4.08 0 0 Z " fill="#ECCBAB" transform="translate(128,64)"/>
<path d="M0 0 C1.32 0 2.64 0 4 0 C4 2.64 4 5.28 4 8 C5.32 8 6.64 8 8 8 C8 11.96 8 15.92 8 20 C6.68 20 5.36 20 4 20 C4 21.32 4 22.64 4 24 C2.68 24 1.36 24 0 24 C0 16.08 0 8.16 0 0 Z " fill="#961111" transform="translate(232,216)"/>
<path d="M0 0 C1.32 0 2.64 0 4 0 C4 1.32 4 2.64 4 4 C5.32 4 6.64 4 8 4 C8 5.32 8 6.64 8 8 C9.32 8 10.64 8 12 8 C12 11.96 12 15.92 12 20 C9.36 20 6.72 20 4 20 C4 16.04 4 12.08 4 8 C2.68 8 1.36 8 0 8 C0 5.36 0 2.72 0 0 Z " fill="#AA704A" transform="translate(84,212)"/>
<path d="M0 0 C11.88 0 23.76 0 36 0 C36 1.32 36 2.64 36 4 C24.12 4 12.24 4 0 4 C0 2.68 0 1.36 0 0 Z " fill="#AC795A" transform="translate(116,172)"/>
<path d="M0 0 C1.32 0 2.64 0 4 0 C4 1.32 4 2.64 4 4 C5.32 4 6.64 4 8 4 C8 13.24 8 22.48 8 32 C6.68 32 5.36 32 4 32 C4 24.08 4 16.16 4 8 C2.68 8 1.36 8 0 8 C0 5.36 0 2.72 0 0 Z " fill="#000000" transform="translate(188,168)"/>
<path d="M0 0 C1.32 0 2.64 0 4 0 C4 11.88 4 23.76 4 36 C2.68 36 1.36 36 0 36 C0 24.12 0 12.24 0 0 Z " fill="#E94512" transform="translate(192,132)"/>
<path d="M0 0 C1.32 0 2.64 0 4 0 C4 2.64 4 5.28 4 8 C5.32 8 6.64 8 8 8 C8 14.6 8 21.2 8 28 C6.68 28 5.36 28 4 28 C4 24.04 4 20.08 4 16 C2.68 16 1.36 16 0 16 C0 10.72 0 5.44 0 0 Z " fill="#000000" transform="translate(120,64)"/>
<path d="M0 0 C2.64 0 5.28 0 8 0 C8 2.64 8 5.28 8 8 C6.68 8 5.36 8 4 8 C4 9.32 4 10.64 4 12 C2.68 12 1.36 12 0 12 C0 13.32 0 14.64 0 16 C-2.64 16 -5.28 16 -8 16 C-8 14.68 -8 13.36 -8 12 C-6.68 12 -5.36 12 -4 12 C-4 10.68 -4 9.36 -4 8 C-2.68 8 -1.36 8 0 8 C0 5.36 0 2.72 0 0 Z " fill="#8E6640" transform="translate(120,152)"/>
<path d="M0 0 C1.32 0 2.64 0 4 0 C4 2.64 4 5.28 4 8 C2.68 8 1.36 8 0 8 C0 9.32 0 10.64 0 12 C-5.28 12 -10.56 12 -16 12 C-16 9.36 -16 6.72 -16 4 C-14.68 4 -13.36 4 -12 4 C-12 5.32 -12 6.64 -12 8 C-9.36 8 -6.72 8 -4 8 C-4 6.68 -4 5.36 -4 4 C-2.68 4 -1.36 4 0 4 C0 2.68 0 1.36 0 0 Z " fill="#000000" transform="translate(172,128)"/>
<path d="M0 0 C1.32 0 2.64 0 4 0 C4 2.64 4 5.28 4 8 C1.36 8 -1.28 8 -4 8 C-4 9.32 -4 10.64 -4 12 C-5.32 12 -6.64 12 -8 12 C-8 10.68 -8 9.36 -8 8 C-9.32 8 -10.64 8 -12 8 C-12 9.32 -12 10.64 -12 12 C-13.32 12 -14.64 12 -16 12 C-16 9.36 -16 6.72 -16 4 C-10.72 4 -5.44 4 0 4 C0 2.68 0 1.36 0 0 Z " fill="#000000" transform="translate(108,120)"/>
<path d="M0 0 C1.32 0 2.64 0 4 0 C4 1.32 4 2.64 4 4 C5.32 4 6.64 4 8 4 C8 6.64 8 9.28 8 12 C2.72 12 -2.56 12 -8 12 C-8 10.68 -8 9.36 -8 8 C-6.68 8 -5.36 8 -4 8 C-4 6.68 -4 5.36 -4 4 C-2.68 4 -1.36 4 0 4 C0 2.68 0 1.36 0 0 Z " fill="#85603C" transform="translate(108,52)"/>
<path d="M0 0 C9.24 0 18.48 0 28 0 C28 1.32 28 2.64 28 4 C18.76 4 9.52 4 0 4 C0 2.68 0 1.36 0 0 Z " fill="#000000" transform="translate(196,240)"/>
<path d="M0 0 C9.24 0 18.48 0 28 0 C28 1.32 28 2.64 28 4 C18.76 4 9.52 4 0 4 C0 2.68 0 1.36 0 0 Z " fill="#E11A1A" transform="translate(64,240)"/>
<path d="M0 0 C2.64 0 5.28 0 8 0 C8 2.64 8 5.28 8 8 C9.32 8 10.64 8 12 8 C12 9.32 12 10.64 12 12 C8.04 12 4.08 12 0 12 C0 8.04 0 4.08 0 0 Z " fill="#BA8A5F" transform="translate(104,168)"/>
<path d="M0 0 C1.32 0 2.64 0 4 0 C4 9.24 4 18.48 4 28 C2.68 28 1.36 28 0 28 C0 18.76 0 9.52 0 0 Z " fill="#000000" transform="translate(184,140)"/>
<path d="M0 0 C2.64 0 5.28 0 8 0 C8 3.96 8 7.92 8 12 C6.68 12 5.36 12 4 12 C4 13.32 4 14.64 4 16 C2.68 16 1.36 16 0 16 C0 10.72 0 5.44 0 0 Z " fill="#E73A14" transform="translate(196,116)"/>
<path d="M0 0 C1.32 0 2.64 0 4 0 C4 5.28 4 10.56 4 16 C2.68 16 1.36 16 0 16 C0 18.64 0 21.28 0 24 C-1.32 24 -2.64 24 -4 24 C-4 20.04 -4 16.08 -4 12 C-2.68 12 -1.36 12 0 12 C0 8.04 0 4.08 0 0 Z " fill="#000000" transform="translate(80,88)"/>
<path d="M0 0 C1.32 0 2.64 0 4 0 C4 1.32 4 2.64 4 4 C5.32 4 6.64 4 8 4 C8 5.32 8 6.64 8 8 C9.32 8 10.64 8 12 8 C12 10.64 12 13.28 12 16 C10.68 16 9.36 16 8 16 C8 14.68 8 13.36 8 12 C6.68 12 5.36 12 4 12 C4 10.68 4 9.36 4 8 C1.36 8 -1.28 8 -4 8 C-4 6.68 -4 5.36 -4 4 C-2.68 4 -1.36 4 0 4 C0 2.68 0 1.36 0 0 Z " fill="#000000" transform="translate(152,56)"/>
<path d="M0 0 C3.96 0 7.92 0 12 0 C12 2.64 12 5.28 12 8 C8.04 8 4.08 8 0 8 C0 5.36 0 2.72 0 0 Z " fill="#E11A1A" transform="translate(164,232)"/>
<path d="M0 0 C7.92 0 15.84 0 24 0 C24 1.32 24 2.64 24 4 C16.08 4 8.16 4 0 4 C0 2.68 0 1.36 0 0 Z " fill="#FAAA07" transform="translate(64,224)"/>
<path d="M0 0 C1.32 0 2.64 0 4 0 C4 3.96 4 7.92 4 12 C5.32 12 6.64 12 8 12 C8 14.64 8 17.28 8 20 C6.68 20 5.36 20 4 20 C4 18.68 4 17.36 4 16 C2.68 16 1.36 16 0 16 C0 10.72 0 5.44 0 0 Z " fill="#FAAA07" transform="translate(204,208)"/>
<path d="M0 0 C2.64 0 5.28 0 8 0 C8 5.28 8 10.56 8 16 C6.68 16 5.36 16 4 16 C4 13.36 4 10.72 4 8 C2.68 8 1.36 8 0 8 C0 5.36 0 2.72 0 0 Z " fill="#AA704A" transform="translate(68,192)"/>
<path d="M0 0 C3.96 0 7.92 0 12 0 C12 2.64 12 5.28 12 8 C8.04 8 4.08 8 0 8 C0 5.36 0 2.72 0 0 Z " fill="#D95763" transform="translate(160,148)"/>
<path d="M0 0 C3.96 0 7.92 0 12 0 C12 2.64 12 5.28 12 8 C8.04 8 4.08 8 0 8 C0 5.36 0 2.72 0 0 Z " fill="#D95763" transform="translate(96,148)"/>
<path d="M0 0 C6.6 0 13.2 0 20 0 C20 2.64 20 5.28 20 8 C18.68 8 17.36 8 16 8 C16 6.68 16 5.36 16 4 C10.72 4 5.44 4 0 4 C0 2.68 0 1.36 0 0 Z " fill="#EBBDB8" transform="translate(156,144)"/>
<path d="M0 0 C6.6 0 13.2 0 20 0 C20 1.32 20 2.64 20 4 C16.04 4 12.08 4 8 4 C8 5.32 8 6.64 8 8 C6.68 8 5.36 8 4 8 C4 6.68 4 5.36 4 4 C2.68 4 1.36 4 0 4 C0 2.68 0 1.36 0 0 Z " fill="#EBBDB8" transform="translate(88,144)"/>
<path d="M0 0 C1.32 0 2.64 0 4 0 C4 2.64 4 5.28 4 8 C-2.6 8 -9.2 8 -16 8 C-16 6.68 -16 5.36 -16 4 C-10.72 4 -5.44 4 0 4 C0 2.68 0 1.36 0 0 Z " fill="#D68660" transform="translate(172,136)"/>
<path d="M0 0 C1.32 0 2.64 0 4 0 C4 3.96 4 7.92 4 12 C2.68 12 1.36 12 0 12 C0 14.64 0 17.28 0 20 C-1.32 20 -2.64 20 -4 20 C-4 16.04 -4 12.08 -4 8 C-2.68 8 -1.36 8 0 8 C0 5.36 0 2.72 0 0 Z " fill="#000000" transform="translate(72,112)"/>
<path d="M0 0 C3.96 0 7.92 0 12 0 C12 1.32 12 2.64 12 4 C13.32 4 14.64 4 16 4 C16 6.64 16 9.28 16 12 C14.68 12 13.36 12 12 12 C12 10.68 12 9.36 12 8 C10.68 8 9.36 8 8 8 C8 6.68 8 5.36 8 4 C5.36 4 2.72 4 0 4 C0 2.68 0 1.36 0 0 Z " fill="#000000" transform="translate(132,68)"/>
<path d="M0 0 C1.32 0 2.64 0 4 0 C4 1.32 4 2.64 4 4 C5.32 4 6.64 4 8 4 C8 5.32 8 6.64 8 8 C6.68 8 5.36 8 4 8 C4 10.64 4 13.28 4 16 C2.68 16 1.36 16 0 16 C0 13.36 0 10.72 0 8 C-1.32 8 -2.64 8 -4 8 C-4 6.68 -4 5.36 -4 4 C-2.68 4 -1.36 4 0 4 C0 2.68 0 1.36 0 0 Z " fill="#EE7513" transform="translate(124,56)"/>
<path d="M0 0 C1.32 0 2.64 0 4 0 C4 2.64 4 5.28 4 8 C5.32 8 6.64 8 8 8 C8 11.63 8 15.26 8 19 C6.68 19 5.36 19 4 19 C4 16.69 4 14.38 4 12 C2.68 12 1.36 12 0 12 C0 8.04 0 4.08 0 0 Z " fill="#000000" transform="translate(188,92)"/>
<path d="M0 0 C2.64 0 5.28 0 8 0 C8 2.64 8 5.28 8 8 C4.04 8 0.08 8 -4 8 C-4 6.68 -4 5.36 -4 4 C-2.68 4 -1.36 4 0 4 C0 2.68 0 1.36 0 0 Z " fill="#F48207" transform="translate(192,224)"/>
<path d="M0 0 C1.32 0 2.64 0 4 0 C4 2.64 4 5.28 4 8 C5.32 8 6.64 8 8 8 C8 10.64 8 13.28 8 16 C6.68 16 5.36 16 4 16 C4 14.68 4 13.36 4 12 C2.68 12 1.36 12 0 12 C0 8.04 0 4.08 0 0 Z " fill="#000000" transform="translate(220,184)"/>
<path d="M0 0 C6.6 0 13.2 0 20 0 C20 1.32 20 2.64 20 4 C13.4 4 6.8 4 0 4 C0 2.68 0 1.36 0 0 Z " fill="#D68660" transform="translate(124,184)"/>
<path d="M0 0 C1.32 0 2.64 0 4 0 C4 1.32 4 2.64 4 4 C5.32 4 6.64 4 8 4 C8 6.64 8 9.28 8 12 C6.68 12 5.36 12 4 12 C4 10.68 4 9.36 4 8 C1.36 8 -1.28 8 -4 8 C-4 6.68 -4 5.36 -4 4 C-2.68 4 -1.36 4 0 4 C0 2.68 0 1.36 0 0 Z " fill="#000000" transform="translate(116,176)"/>
<path d="M0 0 C2.64 0 5.28 0 8 0 C8 3.96 8 7.92 8 12 C6.68 12 5.36 12 4 12 C4 10.68 4 9.36 4 8 C2.68 8 1.36 8 0 8 C0 5.36 0 2.72 0 0 Z " fill="#8E6640" transform="translate(144,152)"/>
<path d="M0 0 C3.96 0 7.92 0 12 0 C12 2.64 12 5.28 12 8 C9.36 8 6.72 8 4 8 C4 6.68 4 5.36 4 4 C2.68 4 1.36 4 0 4 C0 2.68 0 1.36 0 0 Z " fill="#000000" transform="translate(128,56)"/>
<path d="M0 0 C2.64 0 5.28 0 8 0 C8 1.32 8 2.64 8 4 C9.32 4 10.64 4 12 4 C12 5.32 12 6.64 12 8 C10.68 8 9.36 8 8 8 C8 9.32 8 10.64 8 12 C6.68 12 5.36 12 4 12 C4 9.36 4 6.72 4 4 C2.68 4 1.36 4 0 4 C0 2.68 0 1.36 0 0 Z " fill="#ECCBAB" transform="translate(112,52)"/>
<path d="M0 0 C5.28 0 10.56 0 16 0 C16 1.32 16 2.64 16 4 C10.72 4 5.44 4 0 4 C0 2.68 0 1.36 0 0 Z " fill="#000000" transform="translate(48,240)"/>
<path d="M0 0 C1.32 0 2.64 0 4 0 C4 2.64 4 5.28 4 8 C5.32 8 6.64 8 8 8 C8 9.32 8 10.64 8 12 C5.36 12 2.72 12 0 12 C0 8.04 0 4.08 0 0 Z " fill="#000000" transform="translate(40,228)"/>
<path d="M0 0 C2.64 0 5.28 0 8 0 C8 1.32 8 2.64 8 4 C6.68 4 5.36 4 4 4 C4 5.32 4 6.64 4 8 C1.36 8 -1.28 8 -4 8 C-4 6.68 -4 5.36 -4 4 C-2.68 4 -1.36 4 0 4 C0 2.68 0 1.36 0 0 Z " fill="#700D0D" transform="translate(48,220)"/>
<path d="M0 0 C1.32 0 2.64 0 4 0 C4 2.64 4 5.28 4 8 C5.32 8 6.64 8 8 8 C8 9.32 8 10.64 8 12 C5.36 12 2.72 12 0 12 C0 8.04 0 4.08 0 0 Z " fill="#000000" transform="translate(220,200)"/>
<path d="M0 0 C1.32 0 2.64 0 4 0 C4 1.32 4 2.64 4 4 C5.32 4 6.64 4 8 4 C8 6.64 8 9.28 8 12 C6.68 12 5.36 12 4 12 C4 10.68 4 9.36 4 8 C2.68 8 1.36 8 0 8 C0 5.36 0 2.72 0 0 Z " fill="#AA704A" transform="translate(76,200)"/>
<path d="M0 0 C1.32 0 2.64 0 4 0 C4 2.64 4 5.28 4 8 C5.32 8 6.64 8 8 8 C8 9.32 8 10.64 8 12 C5.36 12 2.72 12 0 12 C0 8.04 0 4.08 0 0 Z " fill="#E94512" transform="translate(208,176)"/>
<path d="M0 0 C1.32 0 2.64 0 4 0 C4 5.28 4 10.56 4 16 C2.68 16 1.36 16 0 16 C0 10.72 0 5.44 0 0 Z " fill="#FAAA07" transform="translate(204,184)"/>
<path d="M0 0 C2.64 0 5.28 0 8 0 C8 3.96 8 7.92 8 12 C6.68 12 5.36 12 4 12 C4 9.36 4 6.72 4 4 C2.68 4 1.36 4 0 4 C0 2.68 0 1.36 0 0 Z " fill="#000000" transform="translate(152,164)"/>
<path d="M0 0 C2.64 0 5.28 0 8 0 C8 2.64 8 5.28 8 8 C5.36 8 2.72 8 0 8 C0 5.36 0 2.72 0 0 Z " fill="#D59A60" transform="translate(132,160)"/>
<path d="M0 0 C1.32 0 2.64 0 4 0 C4 5.28 4 10.56 4 16 C2.68 16 1.36 16 0 16 C0 10.72 0 5.44 0 0 Z " fill="#F48207" transform="translate(196,152)"/>
<path d="M0 0 C5.28 0 10.56 0 16 0 C16 1.32 16 2.64 16 4 C10.72 4 5.44 4 0 4 C0 2.68 0 1.36 0 0 Z " fill="#000000" transform="translate(96,136)"/>
<path d="M0 0 C2.64 0 5.28 0 8 0 C8 3.96 8 7.92 8 12 C6.68 12 5.36 12 4 12 C4 9.36 4 6.72 4 4 C2.68 4 1.36 4 0 4 C0 2.68 0 1.36 0 0 Z " fill="#000000" transform="translate(180,124)"/>
<path d="M0 0 C1.32 0 2.64 0 4 0 C4 1.32 4 2.64 4 4 C5.32 4 6.64 4 8 4 C8 6.64 8 9.28 8 12 C6.68 12 5.36 12 4 12 C4 10.68 4 9.36 4 8 C2.68 8 1.36 8 0 8 C0 5.36 0 2.72 0 0 Z " fill="#000000" transform="translate(172,112)"/>
<path d="M0 0 C5.28 0 10.56 0 16 0 C16 1.32 16 2.64 16 4 C10.72 4 5.44 4 0 4 C0 2.68 0 1.36 0 0 Z " fill="#7F6E5C" transform="translate(156,112)"/>
<path d="M0 0 C5.28 0 10.56 0 16 0 C16 1.32 16 2.64 16 4 C10.72 4 5.44 4 0 4 C0 2.68 0 1.36 0 0 Z " fill="#75604B" transform="translate(92,112)"/>
<path d="M0 0 C1.32 0 2.64 0 4 0 C4 1.32 4 2.64 4 4 C5.32 4 6.64 4 8 4 C8 6.64 8 9.28 8 12 C6.68 12 5.36 12 4 12 C4 10.68 4 9.36 4 8 C2.68 8 1.36 8 0 8 C0 5.36 0 2.72 0 0 Z " fill="#ECCBAB" transform="translate(148,88)"/>
<path d="M0 0 C1.32 0 2.64 0 4 0 C4 1.32 4 2.64 4 4 C5.32 4 6.64 4 8 4 C8 6.64 8 9.28 8 12 C6.68 12 5.36 12 4 12 C4 10.68 4 9.36 4 8 C2.68 8 1.36 8 0 8 C0 5.36 0 2.72 0 0 Z " fill="#F48207" transform="translate(172,80)"/>
<path d="M0 0 C1.32 0 2.64 0 4 0 C4 1.32 4 2.64 4 4 C5.32 4 6.64 4 8 4 C8 6.64 8 9.28 8 12 C6.68 12 5.36 12 4 12 C4 10.68 4 9.36 4 8 C2.68 8 1.36 8 0 8 C0 5.36 0 2.72 0 0 Z " fill="#000000" transform="translate(172,72)"/>
<path d="M0 0 C1.32 0 2.64 0 4 0 C4 2.64 4 5.28 4 8 C2.68 8 1.36 8 0 8 C0 9.32 0 10.64 0 12 C-1.32 12 -2.64 12 -4 12 C-4 9.36 -4 6.72 -4 4 C-2.68 4 -1.36 4 0 4 C0 2.68 0 1.36 0 0 Z " fill="#000000" transform="translate(92,68)"/>
<path d="M0 0 C1.65 0 3.3 0 5 0 C5 3.96 5 7.92 5 12 C3.35 12 1.7 12 0 12 C0 8.04 0 4.08 0 0 Z " fill="#E11A1A" transform="translate(204,128)"/>
<path d="M0 0 C3.96 0 7.92 0 12 0 C12 1.32 12 2.64 12 4 C8.04 4 4.08 4 0 4 C0 2.68 0 1.36 0 0 Z " fill="#E94512" transform="translate(164,240)"/>
<path d="M0 0 C3.96 0 7.92 0 12 0 C12 1.32 12 2.64 12 4 C8.04 4 4.08 4 0 4 C0 2.68 0 1.36 0 0 Z " fill="#F48207" transform="translate(88,236)"/>
<path d="M0 0 C3.96 0 7.92 0 12 0 C12 1.32 12 2.64 12 4 C8.04 4 4.08 4 0 4 C0 2.68 0 1.36 0 0 Z " fill="#000000" transform="translate(164,232)"/>
<path d="M0 0 C3.96 0 7.92 0 12 0 C12 1.32 12 2.64 12 4 C8.04 4 4.08 4 0 4 C0 2.68 0 1.36 0 0 Z " fill="#B38366" transform="translate(96,228)"/>
<path d="M0 0 C1.32 0 2.64 0 4 0 C4 3.96 4 7.92 4 12 C2.68 12 1.36 12 0 12 C0 8.04 0 4.08 0 0 Z " fill="#000000" transform="translate(236,224)"/>
<path d="M0 0 C1.32 0 2.64 0 4 0 C4 1.32 4 2.64 4 4 C5.32 4 6.64 4 8 4 C8 5.32 8 6.64 8 8 C5.36 8 2.72 8 0 8 C0 5.36 0 2.72 0 0 Z " fill="#000000" transform="translate(88,224)"/>
<path d="M0 0 C3.96 0 7.92 0 12 0 C12 1.32 12 2.64 12 4 C8.04 4 4.08 4 0 4 C0 2.68 0 1.36 0 0 Z " fill="#961111" transform="translate(220,212)"/>
<path d="M0 0 C2.64 0 5.28 0 8 0 C8 1.32 8 2.64 8 4 C6.68 4 5.36 4 4 4 C4 5.32 4 6.64 4 8 C2.68 8 1.36 8 0 8 C0 5.36 0 2.72 0 0 Z " fill="#000000" transform="translate(144,180)"/>
<path d="M0 0 C1.32 0 2.64 0 4 0 C4 1.32 4 2.64 4 4 C5.32 4 6.64 4 8 4 C8 5.32 8 6.64 8 8 C5.36 8 2.72 8 0 8 C0 5.36 0 2.72 0 0 Z " fill="#000000" transform="translate(212,176)"/>
<path d="M0 0 C1.32 0 2.64 0 4 0 C4 3.96 4 7.92 4 12 C2.68 12 1.36 12 0 12 C0 8.04 0 4.08 0 0 Z " fill="#FAAA07" transform="translate(200,156)"/>
<path d="M0 0 C3.96 0 7.92 0 12 0 C12 1.32 12 2.64 12 4 C8.04 4 4.08 4 0 4 C0 2.68 0 1.36 0 0 Z " fill="#D59A60" transform="translate(96,140)"/>
<path d="M0 0 C1.32 0 2.64 0 4 0 C4 3.96 4 7.92 4 12 C2.68 12 1.36 12 0 12 C0 8.04 0 4.08 0 0 Z " fill="#FAAA07" transform="translate(196,132)"/>
<path d="M0 0 C1.32 0 2.64 0 4 0 C4 2.64 4 5.28 4 8 C1.36 8 -1.28 8 -4 8 C-4 6.68 -4 5.36 -4 4 C-2.68 4 -1.36 4 0 4 C0 2.68 0 1.36 0 0 Z " fill="#473320" transform="translate(116,128)"/>
<path d="M0 0 C1.32 0 2.64 0 4 0 C4 2.64 4 5.28 4 8 C1.36 8 -1.28 8 -4 8 C-4 6.68 -4 5.36 -4 4 C-2.68 4 -1.36 4 0 4 C0 2.68 0 1.36 0 0 Z " fill="#37946E" transform="translate(164,128)"/>
<path d="M0 0 C1.32 0 2.64 0 4 0 C4 2.64 4 5.28 4 8 C1.36 8 -1.28 8 -4 8 C-4 6.68 -4 5.36 -4 4 C-2.68 4 -1.36 4 0 4 C0 2.68 0 1.36 0 0 Z " fill="#37946E" transform="translate(104,128)"/>
<path d="M0 0 C1.32 0 2.64 0 4 0 C4 2.64 4 5.28 4 8 C1.36 8 -1.28 8 -4 8 C-4 6.68 -4 5.36 -4 4 C-2.68 4 -1.36 4 0 4 C0 2.68 0 1.36 0 0 Z " fill="#FFFFFF" transform="translate(96,128)"/>
<path d="M0 0 C1.32 0 2.64 0 4 0 C4 3.96 4 7.92 4 12 C2.68 12 1.36 12 0 12 C0 8.04 0 4.08 0 0 Z " fill="#FFC907" transform="translate(192,120)"/>
<path d="M0 0 C1.32 0 2.64 0 4 0 C4 1.32 4 2.64 4 4 C5.32 4 6.64 4 8 4 C8 5.32 8 6.64 8 8 C5.36 8 2.72 8 0 8 C0 5.36 0 2.72 0 0 Z " fill="#E63614" transform="translate(180,116)"/>
<path d="M0 0 C2.64 0 5.28 0 8 0 C8 2.64 8 5.28 8 8 C6.68 8 5.36 8 4 8 C4 6.68 4 5.36 4 4 C2.68 4 1.36 4 0 4 C0 2.68 0 1.36 0 0 Z " fill="#000000" transform="translate(196,116)"/>
<path d="M0 0 C1.32 0 2.64 0 4 0 C4 1.32 4 2.64 4 4 C5.32 4 6.64 4 8 4 C8 5.32 8 6.64 8 8 C5.36 8 2.72 8 0 8 C0 5.36 0 2.72 0 0 Z " fill="#D9B18A" transform="translate(160,116)"/>
<path d="M0 0 C3.96 0 7.92 0 12 0 C12 1.32 12 2.64 12 4 C8.04 4 4.08 4 0 4 C0 2.68 0 1.36 0 0 Z " fill="#EBD7C3" transform="translate(92,108)"/>
<path d="M0 0 C1.32 0 2.64 0 4 0 C4 3.96 4 7.92 4 12 C2.68 12 1.36 12 0 12 C0 8.04 0 4.08 0 0 Z " fill="#E11A1A" transform="translate(184,92)"/>
<path d="M0 0 C2.64 0 5.28 0 8 0 C8 2.64 8 5.28 8 8 C6.68 8 5.36 8 4 8 C4 6.68 4 5.36 4 4 C2.68 4 1.36 4 0 4 C0 2.68 0 1.36 0 0 Z " fill="#4B0808" transform="translate(148,84)"/>
<path d="M0 0 C1.32 0 2.64 0 4 0 C4 3.96 4 7.92 4 12 C2.68 12 1.36 12 0 12 C0 8.04 0 4.08 0 0 Z " fill="#923424" transform="translate(124,80)"/>
<path d="M0 0 C1.32 0 2.64 0 4 0 C4 1.32 4 2.64 4 4 C5.32 4 6.64 4 8 4 C8 5.32 8 6.64 8 8 C5.36 8 2.72 8 0 8 C0 5.36 0 2.72 0 0 Z " fill="#FFC907" transform="translate(156,68)"/>
<path d="M0 0 C1.32 0 2.64 0 4 0 C4 1.32 4 2.64 4 4 C5.32 4 6.64 4 8 4 C8 5.32 8 6.64 8 8 C5.36 8 2.72 8 0 8 C0 5.36 0 2.72 0 0 Z " fill="#FFC907" transform="translate(144,60)"/>
<path d="M0 0 C1.32 0 2.64 0 4 0 C4 2.64 4 5.28 4 8 C1.36 8 -1.28 8 -4 8 C-4 6.68 -4 5.36 -4 4 C-2.68 4 -1.36 4 0 4 C0 2.68 0 1.36 0 0 Z " fill="#000000" transform="translate(144,48)"/>
<path d="M0 0 C1.32 0 2.64 0 4 0 C4 2.97 4 5.94 4 9 C2.68 9 1.36 9 0 9 C0 6.03 0 3.06 0 0 Z " fill="#E11A1A" transform="translate(192,111)"/>
<path d="M0 0 C2.64 0 5.28 0 8 0 C8 1.32 8 2.64 8 4 C5.36 4 2.72 4 0 4 C0 2.68 0 1.36 0 0 Z " fill="#F48207" transform="translate(180,232)"/>
<path d="M0 0 C2.64 0 5.28 0 8 0 C8 1.32 8 2.64 8 4 C5.36 4 2.72 4 0 4 C0 2.68 0 1.36 0 0 Z " fill="#FAAA07" transform="translate(88,232)"/>
<path d="M0 0 C1.32 0 2.64 0 4 0 C4 2.64 4 5.28 4 8 C2.68 8 1.36 8 0 8 C0 5.36 0 2.72 0 0 Z " fill="#E11A1A" transform="translate(44,228)"/>
<path d="M0 0 C2.64 0 5.28 0 8 0 C8 1.32 8 2.64 8 4 C5.36 4 2.72 4 0 4 C0 2.68 0 1.36 0 0 Z " fill="#000000" transform="translate(48,220)"/>
<path d="M0 0 C2.64 0 5.28 0 8 0 C8 1.32 8 2.64 8 4 C5.36 4 2.72 4 0 4 C0 2.68 0 1.36 0 0 Z " fill="#E52F16" transform="translate(224,216)"/>
<path d="M0 0 C1.32 0 2.64 0 4 0 C4 2.64 4 5.28 4 8 C2.68 8 1.36 8 0 8 C0 5.36 0 2.72 0 0 Z " fill="#E94512" transform="translate(196,216)"/>
<path d="M0 0 C1.32 0 2.64 0 4 0 C4 2.64 4 5.28 4 8 C2.68 8 1.36 8 0 8 C0 5.36 0 2.72 0 0 Z " fill="#000000" transform="translate(192,208)"/>
<path d="M0 0 C1.32 0 2.64 0 4 0 C4 2.64 4 5.28 4 8 C2.68 8 1.36 8 0 8 C0 5.36 0 2.72 0 0 Z " fill="#ECCBAB" transform="translate(192,200)"/>
<path d="M0 0 C1.32 0 2.64 0 4 0 C4 2.64 4 5.28 4 8 C2.68 8 1.36 8 0 8 C0 5.36 0 2.72 0 0 Z " fill="#000000" transform="translate(72,200)"/>
<path d="M0 0 C1.32 0 2.64 0 4 0 C4 2.64 4 5.28 4 8 C2.68 8 1.36 8 0 8 C0 5.36 0 2.72 0 0 Z " fill="#000000" transform="translate(68,192)"/>
<path d="M0 0 C1.32 0 2.64 0 4 0 C4 2.64 4 5.28 4 8 C2.68 8 1.36 8 0 8 C0 5.36 0 2.72 0 0 Z " fill="#E11A1A" transform="translate(208,176)"/>
<path d="M0 0 C1.32 0 2.64 0 4 0 C4 2.64 4 5.28 4 8 C2.68 8 1.36 8 0 8 C0 5.36 0 2.72 0 0 Z " fill="#D59A60" transform="translate(160,168)"/>
<path d="M0 0 C1.32 0 2.64 0 4 0 C4 2.64 4 5.28 4 8 C2.68 8 1.36 8 0 8 C0 5.36 0 2.72 0 0 Z " fill="#D59A60" transform="translate(152,168)"/>
<path d="M0 0 C1.32 0 2.64 0 4 0 C4 2.64 4 5.28 4 8 C2.68 8 1.36 8 0 8 C0 5.36 0 2.72 0 0 Z " fill="#D59A60" transform="translate(112,168)"/>
<path d="M0 0 C1.32 0 2.64 0 4 0 C4 2.64 4 5.28 4 8 C2.68 8 1.36 8 0 8 C0 5.36 0 2.72 0 0 Z " fill="#000000" transform="translate(108,168)"/>
<path d="M0 0 C2.64 0 5.28 0 8 0 C8 1.32 8 2.64 8 4 C5.36 4 2.72 4 0 4 C0 2.68 0 1.36 0 0 Z " fill="#6A4D30" transform="translate(152,164)"/>
<path d="M0 0 C2.64 0 5.28 0 8 0 C8 1.32 8 2.64 8 4 C5.36 4 2.72 4 0 4 C0 2.68 0 1.36 0 0 Z " fill="#000000" transform="translate(132,160)"/>
<path d="M0 0 C1.32 0 2.64 0 4 0 C4 2.64 4 5.28 4 8 C2.68 8 1.36 8 0 8 C0 5.36 0 2.72 0 0 Z " fill="#000000" transform="translate(144,152)"/>
<path d="M0 0 C1.32 0 2.64 0 4 0 C4 2.64 4 5.28 4 8 C2.68 8 1.36 8 0 8 C0 5.36 0 2.72 0 0 Z " fill="#000000" transform="translate(124,152)"/>
<path d="M0 0 C1.32 0 2.64 0 4 0 C4 2.64 4 5.28 4 8 C2.68 8 1.36 8 0 8 C0 5.36 0 2.72 0 0 Z " fill="#D9A384" transform="translate(172,136)"/>
<path d="M0 0 C2.64 0 5.28 0 8 0 C8 1.32 8 2.64 8 4 C5.36 4 2.72 4 0 4 C0 2.68 0 1.36 0 0 Z " fill="#D97E74" transform="translate(88,140)"/>
<path d="M0 0 C1.32 0 2.64 0 4 0 C4 2.64 4 5.28 4 8 C2.68 8 1.36 8 0 8 C0 5.36 0 2.72 0 0 Z " fill="#6A4D30" transform="translate(172,128)"/>
<path d="M0 0 C2.64 0 5.28 0 8 0 C8 1.32 8 2.64 8 4 C5.36 4 2.72 4 0 4 C0 2.68 0 1.36 0 0 Z " fill="#6A4D30" transform="translate(148,132)"/>
<path d="M0 0 C1.32 0 2.64 0 4 0 C4 2.64 4 5.28 4 8 C2.68 8 1.36 8 0 8 C0 5.36 0 2.72 0 0 Z " fill="#FFFFFF" transform="translate(108,128)"/>
<path d="M0 0 C2.64 0 5.28 0 8 0 C8 1.32 8 2.64 8 4 C5.36 4 2.72 4 0 4 C0 2.68 0 1.36 0 0 Z " fill="#700D0D" transform="translate(180,124)"/>
<path d="M0 0 C1.32 0 2.64 0 4 0 C4 2.64 4 5.28 4 8 C2.68 8 1.36 8 0 8 C0 5.36 0 2.72 0 0 Z " fill="#FFFFFF" transform="translate(168,124)"/>
<path d="M0 0 C2.64 0 5.28 0 8 0 C8 1.32 8 2.64 8 4 C5.36 4 2.72 4 0 4 C0 2.68 0 1.36 0 0 Z " fill="#75604B" transform="translate(156,112)"/>
<path d="M0 0 C1.32 0 2.64 0 4 0 C4 2.64 4 5.28 4 8 C2.68 8 1.36 8 0 8 C0 5.36 0 2.72 0 0 Z " fill="#FFC907" transform="translate(184,104)"/>
<path d="M0 0 C1.32 0 2.64 0 4 0 C4 2.64 4 5.28 4 8 C2.68 8 1.36 8 0 8 C0 5.36 0 2.72 0 0 Z " fill="#000000" transform="translate(168,104)"/>
<path d="M0 0 C1.32 0 2.64 0 4 0 C4 2.64 4 5.28 4 8 C2.68 8 1.36 8 0 8 C0 5.36 0 2.72 0 0 Z " fill="#000000" transform="translate(84,80)"/>
<path d="M0 0 C1.32 0 2.64 0 4 0 C4 2.64 4 5.28 4 8 C2.68 8 1.36 8 0 8 C0 5.36 0 2.72 0 0 Z " fill="#DC4F37" transform="translate(124,64)"/>
<path d="M0 0 C2.64 0 5.28 0 8 0 C8 1.32 8 2.64 8 4 C5.36 4 2.72 4 0 4 C0 2.68 0 1.36 0 0 Z " fill="#E11A1A" transform="translate(140,56)"/>
</svg>
