<?xml version="1.0" encoding="UTF-8"?>
<svg version="1.1" xmlns="http://www.w3.org/2000/svg" width="260" height="260">
<path d="M0 0 C6.6 0 13.2 0 20 0 C20 1.32 20 2.64 20 4 C25.28 4 30.56 4 36 4 C36 2.68 36 1.36 36 0 C41.28 0 46.56 0 52 0 C52 1.32 52 2.64 52 4 C57.28 4 62.56 4 68 4 C68 2.68 68 1.36 68 0 C75.92 0 83.84 0 92 0 C92 1.32 92 2.64 92 4 C93.32 4 94.64 4 96 4 C96 5.32 96 6.64 96 8 C97.32 8 98.64 8 100 8 C100 13.28 100 18.56 100 24 C98.68 24 97.36 24 96 24 C96 27.96 96 31.92 96 36 C97.32 36 98.64 36 100 36 C100 39.63 100 43.26 100 47 C98.68 47 97.36 47 96 47 C96 55.25 96 63.5 96 72 C97.32 72 98.64 72 100 72 C100 77.28 100 82.56 100 88 C98.68 88 97.36 88 96 88 C96 94.6 96 101.2 96 108 C97.32 108 98.64 108 100 108 C100 109.32 100 110.64 100 112 C101.32 112 102.64 112 104 112 C104 113.32 104 114.64 104 116 C105.32 116 106.64 116 108 116 C108 119.96 108 123.92 108 128 C106.68 128 105.36 128 104 128 C104 130.64 104 133.28 104 136 C105.32 136 106.64 136 108 136 C108 137.32 108 138.64 108 140 C109.32 140 110.64 140 112 140 C112 141.32 112 142.64 112 144 C113.32 144 114.64 144 116 144 C116 145.32 116 146.64 116 148 C117.32 148 118.64 148 120 148 C120 149.32 120 150.64 120 152 C123.96 152 127.92 152 132 152 C132 153.32 132 154.64 132 156 C133.32 156 134.64 156 136 156 C136 157.32 136 158.64 136 160 C137.32 160 138.64 160 140 160 C140 165.28 140 170.56 140 176 C138.68 176 137.36 176 136 176 C136 177.32 136 178.64 136 180 C134.68 180 133.36 180 132 180 C132 181.32 132 182.64 132 184 C126.72 184 121.44 184 116 184 C116 182.68 116 181.36 116 180 C114.68 180 113.36 180 112 180 C112 178.68 112 177.36 112 176 C110.68 176 109.36 176 108 176 C108 173.36 108 170.72 108 168 C109.32 168 110.64 168 112 168 C112 165.36 112 162.72 112 160 C110.68 160 109.36 160 108 160 C108 158.68 108 157.36 108 156 C106.68 156 105.36 156 104 156 C104 154.68 104 153.36 104 152 C102.68 152 101.36 152 100 152 C100 150.68 100 149.36 100 148 C98.68 148 97.36 148 96 148 C96 155.92 96 163.84 96 172 C94.68 172 93.36 172 92 172 C92 173.32 92 174.64 92 176 C86.72 176 81.44 176 76 176 C76 178.64 76 181.28 76 184 C74.68 184 73.36 184 72 184 C72 190.6 72 197.2 72 204 C82.56 204 93.12 204 104 204 C104 205.32 104 206.64 104 208 C109.28 208 114.56 208 120 208 C120 209.32 120 210.64 120 212 C121.32 212 122.64 212 124 212 C124 213.32 124 214.64 124 216 C125.32 216 126.64 216 128 216 C128 218.64 128 221.28 128 224 C126.68 224 125.36 224 124 224 C124 226.64 124 229.28 124 232 C122.68 232 121.36 232 120 232 C120 233.32 120 234.64 120 236 C52.68 236 -14.64 236 -84 236 C-84 234.68 -84 233.36 -84 232 C-85.32 232 -86.64 232 -88 232 C-88 230.68 -88 229.36 -88 228 C-89.32 228 -90.64 228 -92 228 C-92 224.04 -92 220.08 -92 216 C-90.68 216 -89.36 216 -88 216 C-88 214.68 -88 213.36 -88 212 C-86.68 212 -85.36 212 -84 212 C-84 210.68 -84 209.36 -84 208 C-80.04 208 -76.08 208 -72 208 C-72 206.68 -72 205.36 -72 204 C-58.8 204 -45.6 204 -32 204 C-32 200.04 -32 196.08 -32 192 C-30.68 192 -29.36 192 -28 192 C-28 189.36 -28 186.72 -28 184 C-29.32 184 -30.64 184 -32 184 C-32 181.36 -32 178.72 -32 176 C-37.28 176 -42.56 176 -48 176 C-48 174.68 -48 173.36 -48 172 C-49.32 172 -50.64 172 -52 172 C-52 162.76 -52 153.52 -52 144 C-53.32 144 -54.64 144 -56 144 C-56 146.64 -56 149.28 -56 152 C-57.32 152 -58.64 152 -60 152 C-60 153.32 -60 154.64 -60 156 C-61.32 156 -62.64 156 -64 156 C-64 157.32 -64 158.64 -64 160 C-65.32 160 -66.64 160 -68 160 C-68 161.32 -68 162.64 -68 164 C-70.64 164 -73.28 164 -76 164 C-76 162.68 -76 161.36 -76 160 C-77.32 160 -78.64 160 -80 160 C-80 158.68 -80 157.36 -80 156 C-81.32 156 -82.64 156 -84 156 C-84 154.68 -84 153.36 -84 152 C-85.32 152 -86.64 152 -88 152 C-88 148.04 -88 144.08 -88 140 C-89.32 140 -90.64 140 -92 140 C-92 138.68 -92 137.36 -92 136 C-93.32 136 -94.64 136 -96 136 C-96 134.68 -96 133.36 -96 132 C-97.32 132 -98.64 132 -100 132 C-100 129.36 -100 126.72 -100 124 C-101.32 124 -102.64 124 -104 124 C-104 118.72 -104 113.44 -104 108 C-102.68 108 -101.36 108 -100 108 C-100 106.68 -100 105.36 -100 104 C-98.68 104 -97.36 104 -96 104 C-96 102.68 -96 101.36 -96 100 C-94.68 100 -93.36 100 -92 100 C-92 98.68 -92 97.36 -92 96 C-88.04 96 -84.08 96 -80 96 C-80 97.32 -80 98.64 -80 100 C-78.68 100 -77.36 100 -76 100 C-76 101.32 -76 102.64 -76 104 C-73.36 104 -70.72 104 -68 104 C-68 105.32 -68 106.64 -68 108 C-66.68 108 -65.36 108 -64 108 C-64 109.32 -64 110.64 -64 112 C-62.68 112 -61.36 112 -60 112 C-60 110.68 -60 109.36 -60 108 C-58.68 108 -57.36 108 -56 108 C-56 106.68 -56 105.36 -56 104 C-54.68 104 -53.36 104 -52 104 C-52 100.04 -52 96.08 -52 92 C-53.32 92 -54.64 92 -56 92 C-56 86.72 -56 81.44 -56 76 C-57.32 76 -58.64 76 -60 76 C-60 70.39 -60 64.78 -60 59 C-61.32 59 -62.64 59 -64 59 C-64 54.05 -64 49.1 -64 44 C-65.32 44 -66.64 44 -68 44 C-68 38.72 -68 33.44 -68 28 C-66.68 28 -65.36 28 -64 28 C-64 26.68 -64 25.36 -64 24 C-62.68 24 -61.36 24 -60 24 C-60 22.68 -60 21.36 -60 20 C-58.68 20 -57.36 20 -56 20 C-56 18.68 -56 17.36 -56 16 C-54.68 16 -53.36 16 -52 16 C-52 14.68 -52 13.36 -52 12 C-50.68 12 -49.36 12 -48 12 C-48 10.68 -48 9.36 -48 8 C-46.68 8 -45.36 8 -44 8 C-44 6.68 -44 5.36 -44 4 C-34.76 4 -25.52 4 -16 4 C-16 5.32 -16 6.64 -16 8 C-13.36 8 -10.72 8 -8 8 C-8 6.68 -8 5.36 -8 4 C-5.36 4 -2.72 4 0 4 C0 2.68 0 1.36 0 0 Z M-68 124 C-68 125.32 -68 126.64 -68 128 C-69.32 128 -70.64 128 -72 128 C-72 130.64 -72 133.28 -72 136 C-70.68 136 -69.36 136 -68 136 C-68 134.68 -68 133.36 -68 132 C-66.68 132 -65.36 132 -64 132 C-64 129.36 -64 126.72 -64 124 C-65.32 124 -66.64 124 -68 124 Z M36 140 C36 141.32 36 142.64 36 144 C37.32 144 38.64 144 40 144 C40 142.68 40 141.36 40 140 C38.68 140 37.36 140 36 140 Z M0 176 C0 178.64 0 181.28 0 184 C-1.32 184 -2.64 184 -4 184 C-4 185.32 -4 186.64 -4 188 C-6.64 188 -9.28 188 -12 188 C-12 189.32 -12 190.64 -12 192 C-13.32 192 -14.64 192 -16 192 C-16 195.96 -16 199.92 -16 204 C-8.08 204 -0.16 204 8 204 C8 202.68 8 201.36 8 200 C22.52 200 37.04 200 52 200 C52 196.04 52 192.08 52 188 C50.68 188 49.36 188 48 188 C48 186.68 48 185.36 48 184 C46.68 184 45.36 184 44 184 C44 181.36 44 178.72 44 176 C29.48 176 14.96 176 0 176 Z M67 196 C68 200 68 200 68 200 Z " fill="#020202" transform="translate(120,24)"/>
<path d="M0 0 C1.32 0 2.64 0 4 0 C4 1.32 4 2.64 4 4 C6.64 4 9.28 4 12 4 C12 2.68 12 1.36 12 0 C13.32 0 14.64 0 16 0 C16 1.32 16 2.64 16 4 C29.2 4 42.4 4 56 4 C56 5.32 56 6.64 56 8 C50.72 8 45.44 8 40 8 C40 10.64 40 13.28 40 16 C38.68 16 37.36 16 36 16 C36 22.6 36 29.2 36 36 C46.56 36 57.12 36 68 36 C68 37.32 68 38.64 68 40 C73.28 40 78.56 40 84 40 C84 41.32 84 42.64 84 44 C85.32 44 86.64 44 88 44 C88 45.32 88 46.64 88 48 C89.32 48 90.64 48 92 48 C92 50.64 92 53.28 92 56 C90.68 56 89.36 56 88 56 C88 58.64 88 61.28 88 64 C86.68 64 85.36 64 84 64 C84 65.32 84 66.64 84 68 C16.68 68 -50.64 68 -120 68 C-120 66.68 -120 65.36 -120 64 C-121.32 64 -122.64 64 -124 64 C-124 62.68 -124 61.36 -124 60 C-125.32 60 -126.64 60 -128 60 C-128 56.04 -128 52.08 -128 48 C-126.68 48 -125.36 48 -124 48 C-124 46.68 -124 45.36 -124 44 C-122.68 44 -121.36 44 -120 44 C-120 42.68 -120 41.36 -120 40 C-116.04 40 -112.08 40 -108 40 C-108 38.68 -108 37.36 -108 36 C-94.8 36 -81.6 36 -68 36 C-68 32.04 -68 28.08 -68 24 C-66.68 24 -65.36 24 -64 24 C-64 21.36 -64 18.72 -64 16 C-65.32 16 -66.64 16 -68 16 C-68 13.36 -68 10.72 -68 8 C-73.28 8 -78.56 8 -84 8 C-84 6.68 -84 5.36 -84 4 C-56.28 4 -28.56 4 0 4 C0 2.68 0 1.36 0 0 Z M-36 8 C-36 10.64 -36 13.28 -36 16 C-37.32 16 -38.64 16 -40 16 C-40 17.32 -40 18.64 -40 20 C-42.64 20 -45.28 20 -48 20 C-48 21.32 -48 22.64 -48 24 C-49.32 24 -50.64 24 -52 24 C-52 27.96 -52 31.92 -52 36 C-44.08 36 -36.16 36 -28 36 C-28 34.68 -28 33.36 -28 32 C-13.48 32 1.04 32 16 32 C16 28.04 16 24.08 16 20 C14.68 20 13.36 20 12 20 C12 18.68 12 17.36 12 16 C10.68 16 9.36 16 8 16 C8 13.36 8 10.72 8 8 C-6.52 8 -21.04 8 -36 8 Z M31 28 C32 32 32 32 32 32 Z " fill="#000000" transform="translate(156,192)"/>
<path d="M0 0 C6.6 0 13.2 0 20 0 C20 1.32 20 2.64 20 4 C25.28 4 30.56 4 36 4 C36 2.68 36 1.36 36 0 C41.28 0 46.56 0 52 0 C52 1.32 52 2.64 52 4 C57.28 4 62.56 4 68 4 C68 2.68 68 1.36 68 0 C75.92 0 83.84 0 92 0 C92 1.32 92 2.64 92 4 C93.32 4 94.64 4 96 4 C96 5.32 96 6.64 96 8 C97.32 8 98.64 8 100 8 C100 13.28 100 18.56 100 24 C97.36 24 94.72 24 92 24 C92 26.64 92 29.28 92 32 C90.68 32 89.36 32 88 32 C88 30.68 88 29.36 88 28 C81.4 28 74.8 28 68 28 C68 29.32 68 30.64 68 32 C65.36 32 62.72 32 60 32 C60 33.32 60 34.64 60 36 C57.36 36 54.72 36 52 36 C52 38.64 52 41.28 52 44 C50.68 44 49.36 44 48 44 C48 41.36 48 38.72 48 36 C46.68 36 45.36 36 44 36 C44 38.64 44 41.28 44 44 C42.68 44 41.36 44 40 44 C40 41.36 40 38.72 40 36 C36.04 36 32.08 36 28 36 C28 34.68 28 33.36 28 32 C24.04 32 20.08 32 16 32 C16 30.68 16 29.36 16 28 C9.4 28 2.8 28 -4 28 C-4 29.32 -4 30.64 -4 32 C-6.64 32 -9.28 32 -12 32 C-12 34.64 -12 37.28 -12 40 C-9.36 40 -6.72 40 -4 40 C-4 42.64 -4 45.28 -4 48 C-2.68 48 -1.36 48 0 48 C0 51.96 0 55.92 0 60 C1.32 60 2.64 60 4 60 C4 62.64 4 65.28 4 68 C5.32 68 6.64 68 8 68 C8 70.64 8 73.28 8 76 C10.64 76 13.28 76 16 76 C16 77.32 16 78.64 16 80 C13.36 80 10.72 80 8 80 C8 81.32 8 82.64 8 84 C6.68 84 5.36 84 4 84 C4 85.32 4 86.64 4 88 C2.68 88 1.36 88 0 88 C0 98.56 0 109.12 0 120 C1.32 120 2.64 120 4 120 C4 121.32 4 122.64 4 124 C5.32 124 6.64 124 8 124 C8 125.32 8 126.64 8 128 C9.32 128 10.64 128 12 128 C12 129.32 12 130.64 12 132 C0.12 132 -11.76 132 -24 132 C-24 110.88 -24 89.76 -24 68 C-25.32 68 -26.64 68 -28 68 C-28 57.44 -28 46.88 -28 36 C-29.32 36 -30.64 36 -32 36 C-32 28.08 -32 20.16 -32 12 C-24.08 12 -16.16 12 -8 12 C-8 9.36 -8 6.72 -8 4 C-5.36 4 -2.72 4 0 4 C0 2.68 0 1.36 0 0 Z " fill="#EBD43D" transform="translate(120,24)"/>
<path d="M0 0 C9.24 0 18.48 0 28 0 C28 1.32 28 2.64 28 4 C30.64 4 33.28 4 36 4 C36 5.32 36 6.64 36 8 C28.08 8 20.16 8 12 8 C12 15.92 12 23.84 12 32 C13.32 32 14.64 32 16 32 C16 42.56 16 53.12 16 64 C17.32 64 18.64 64 20 64 C20 79.84 20 95.68 20 112 C18.68 112 17.36 112 16 112 C16 117.28 16 122.56 16 128 C13.36 128 10.72 128 8 128 C8 126.68 8 125.36 8 124 C6.68 124 5.36 124 4 124 C4 126.64 4 129.28 4 132 C2.68 132 1.36 132 0 132 C0 129.36 0 126.72 0 124 C-1.32 124 -2.64 124 -4 124 C-4 125.32 -4 126.64 -4 128 C-5.32 128 -6.64 128 -8 128 C-8 130.64 -8 133.28 -8 136 C-9.32 136 -10.64 136 -12 136 C-12 139.96 -12 143.92 -12 148 C-13.32 148 -14.64 148 -16 148 C-16 149.32 -16 150.64 -16 152 C-17.32 152 -18.64 152 -20 152 C-20 153.32 -20 154.64 -20 156 C-21.32 156 -22.64 156 -24 156 C-24 157.32 -24 158.64 -24 160 C-26.64 160 -29.28 160 -32 160 C-32 158.68 -32 157.36 -32 156 C-33.32 156 -34.64 156 -36 156 C-36 154.68 -36 153.36 -36 152 C-37.32 152 -38.64 152 -40 152 C-40 150.68 -40 149.36 -40 148 C-41.32 148 -42.64 148 -44 148 C-44 144.04 -44 140.08 -44 136 C-45.32 136 -46.64 136 -48 136 C-48 134.68 -48 133.36 -48 132 C-49.32 132 -50.64 132 -52 132 C-52 130.68 -52 129.36 -52 128 C-53.32 128 -54.64 128 -56 128 C-56 125.36 -56 122.72 -56 120 C-57.32 120 -58.64 120 -60 120 C-60 114.72 -60 109.44 -60 104 C-58.68 104 -57.36 104 -56 104 C-56 102.68 -56 101.36 -56 100 C-54.68 100 -53.36 100 -52 100 C-52 98.68 -52 97.36 -52 96 C-50.68 96 -49.36 96 -48 96 C-48 94.68 -48 93.36 -48 92 C-44.04 92 -40.08 92 -36 92 C-36 93.32 -36 94.64 -36 96 C-34.68 96 -33.36 96 -32 96 C-32 97.32 -32 98.64 -32 100 C-29.36 100 -26.72 100 -24 100 C-24 101.32 -24 102.64 -24 104 C-22.68 104 -21.36 104 -20 104 C-20 105.32 -20 106.64 -20 108 C-18.68 108 -17.36 108 -16 108 C-16 106.68 -16 105.36 -16 104 C-14.68 104 -13.36 104 -12 104 C-12 102.68 -12 101.36 -12 100 C-10.68 100 -9.36 100 -8 100 C-8 96.04 -8 92.08 -8 88 C-9.32 88 -10.64 88 -12 88 C-12 82.72 -12 77.44 -12 72 C-13.32 72 -14.64 72 -16 72 C-16 66.39 -16 60.78 -16 55 C-17.32 55 -18.64 55 -20 55 C-20 50.05 -20 45.1 -20 40 C-21.32 40 -22.64 40 -24 40 C-24 34.72 -24 29.44 -24 24 C-22.68 24 -21.36 24 -20 24 C-20 22.68 -20 21.36 -20 20 C-18.68 20 -17.36 20 -16 20 C-16 18.68 -16 17.36 -16 16 C-14.68 16 -13.36 16 -12 16 C-12 14.68 -12 13.36 -12 12 C-10.68 12 -9.36 12 -8 12 C-8 10.68 -8 9.36 -8 8 C-6.68 8 -5.36 8 -4 8 C-4 6.68 -4 5.36 -4 4 C-2.68 4 -1.36 4 0 4 C0 2.68 0 1.36 0 0 Z M-24 120 C-24 121.32 -24 122.64 -24 124 C-25.32 124 -26.64 124 -28 124 C-28 126.64 -28 129.28 -28 132 C-26.68 132 -25.36 132 -24 132 C-24 130.68 -24 129.36 -24 128 C-22.68 128 -21.36 128 -20 128 C-20 125.36 -20 122.72 -20 120 C-21.32 120 -22.64 120 -24 120 Z " fill="#BC9507" transform="translate(76,28)"/>
<path d="M0 0 C11.88 0 23.76 0 36 0 C36 1.32 36 2.64 36 4 C32.04 4 28.08 4 24 4 C24 5.32 24 6.64 24 8 C22.68 8 21.36 8 20 8 C20 9.32 20 10.64 20 12 C18.68 12 17.36 12 16 12 C16 15.96 16 19.92 16 24 C17.32 24 18.64 24 20 24 C20 25.32 20 26.64 20 28 C30.56 28 41.12 28 52 28 C52 26.68 52 25.36 52 24 C53.32 24 54.64 24 56 24 C56 20.04 56 16.08 56 12 C65.24 12 74.48 12 84 12 C84 10.68 84 9.36 84 8 C89.28 8 94.56 8 100 8 C100 6.68 100 5.36 100 4 C98.68 4 97.36 4 96 4 C96 2.68 96 1.36 96 0 C105.24 0 114.48 0 124 0 C124 2.64 124 5.28 124 8 C122.68 8 121.36 8 120 8 C120 13.28 120 18.56 120 24 C125.28 24 130.56 24 136 24 C136 22.68 136 21.36 136 20 C137.32 20 138.64 20 140 20 C140 21.32 140 22.64 140 24 C141.32 24 142.64 24 144 24 C144 25.32 144 26.64 144 28 C153.24 28 162.48 28 172 28 C172 26.68 172 25.36 172 24 C173.32 24 174.64 24 176 24 C176 20.04 176 16.08 176 12 C174.68 12 173.36 12 172 12 C172 10.68 172 9.36 172 8 C170.68 8 169.36 8 168 8 C168 6.68 168 5.36 168 4 C162.72 4 157.44 4 152 4 C152 5.32 152 6.64 152 8 C149.36 8 146.72 8 144 8 C144 5.36 144 2.72 144 0 C154.56 0 165.12 0 176 0 C176 1.32 176 2.64 176 4 C181.28 4 186.56 4 192 4 C192 5.32 192 6.64 192 8 C193.32 8 194.64 8 196 8 C196 9.32 196 10.64 196 12 C197.32 12 198.64 12 200 12 C200 14.64 200 17.28 200 20 C198.68 20 197.36 20 196 20 C196 22.64 196 25.28 196 28 C194.68 28 193.36 28 192 28 C192 29.32 192 30.64 192 32 C124.68 32 57.36 32 -12 32 C-12 30.68 -12 29.36 -12 28 C-13.32 28 -14.64 28 -16 28 C-16 26.68 -16 25.36 -16 24 C-17.32 24 -18.64 24 -20 24 C-20 20.04 -20 16.08 -20 12 C-18.68 12 -17.36 12 -16 12 C-16 10.68 -16 9.36 -16 8 C-14.68 8 -13.36 8 -12 8 C-12 6.68 -12 5.36 -12 4 C-8.04 4 -4.08 4 0 4 C0 2.68 0 1.36 0 0 Z " fill="#4756AF" transform="translate(48,228)"/>
<path d="M0 0 C27.72 0 55.44 0 84 0 C84 1.32 84 2.64 84 4 C85.32 4 86.64 4 88 4 C88 2.68 88 1.36 88 0 C90.64 0 93.28 0 96 0 C96 1.32 96 2.64 96 4 C97.32 4 98.64 4 100 4 C100 2.68 100 1.36 100 0 C113.2 0 126.4 0 140 0 C140 6.6 140 13.2 140 20 C126.8 20 113.6 20 100 20 C100 18.68 100 17.36 100 16 C98.68 16 97.36 16 96 16 C96 17.32 96 18.64 96 20 C93.36 20 90.72 20 88 20 C88 18.68 88 17.36 88 16 C86.68 16 85.36 16 84 16 C84 17.32 84 18.64 84 20 C56.28 20 28.56 20 0 20 C0 13.4 0 6.8 0 0 Z " fill="#8F563B" transform="translate(72,176)"/>
<path d="M0 0 C2.64 0 5.28 0 8 0 C8 1.32 8 2.64 8 4 C10.64 4 13.28 4 16 4 C16 2.68 16 1.36 16 0 C18.64 0 21.28 0 24 0 C24 3.63 24 7.26 24 11 C22.68 11 21.36 11 20 11 C20 19.25 20 27.5 20 36 C21.32 36 22.64 36 24 36 C24 41.28 24 46.56 24 52 C21.36 52 18.72 52 16 52 C16 66.52 16 81.04 16 96 C8.08 96 0.16 96 -8 96 C-8 94.68 -8 93.36 -8 92 C-6.68 92 -5.36 92 -4 92 C-4 90.68 -4 89.36 -4 88 C-2.68 88 -1.36 88 0 88 C0 86.68 0 85.36 0 84 C1.32 84 2.64 84 4 84 C4 73.44 4 62.88 4 52 C2.68 52 1.36 52 0 52 C0 50.68 0 49.36 0 48 C-1.32 48 -2.64 48 -4 48 C-4 46.68 -4 45.36 -4 44 C-6.64 44 -9.28 44 -12 44 C-12 42.68 -12 41.36 -12 40 C-6.72 40 -1.44 40 4 40 C4 38.68 4 37.36 4 36 C-7.88 36 -19.76 36 -32 36 C-32 37.32 -32 38.64 -32 40 C-35.96 40 -39.92 40 -44 40 C-44 38.68 -44 37.36 -44 36 C-42.68 36 -41.36 36 -40 36 C-40 32.04 -40 28.08 -40 24 C-38.68 24 -37.36 24 -36 24 C-36 20.04 -36 16.08 -36 12 C-34.68 12 -33.36 12 -32 12 C-32 15.96 -32 19.92 -32 24 C-30.68 24 -29.36 24 -28 24 C-28 20.04 -28 16.08 -28 12 C-24.04 12 -20.08 12 -16 12 C-16 14.64 -16 17.28 -16 20 C-13.36 20 -10.72 20 -8 20 C-8 17.36 -8 14.72 -8 12 C-5.36 12 -2.72 12 0 12 C0 8.04 0 4.08 0 0 Z " fill="#EAD23B" transform="translate(196,60)"/>
<path d="M0 0 C7.92 0 15.84 0 24 0 C24 3.96 24 7.92 24 12 C21.36 12 18.72 12 16 12 C16 13.32 16 14.64 16 16 C14.68 16 13.36 16 12 16 C12 19.96 12 23.92 12 28 C19.92 28 27.84 28 36 28 C36 26.68 36 25.36 36 24 C50.52 24 65.04 24 80 24 C80 25.32 80 26.64 80 28 C70.76 28 61.52 28 52 28 C52 29.32 52 30.64 52 32 C53.32 32 54.64 32 56 32 C56 33.32 56 34.64 56 36 C50.72 36 45.44 36 40 36 C40 37.32 40 38.64 40 40 C30.76 40 21.52 40 12 40 C12 43.96 12 47.92 12 52 C10.68 52 9.36 52 8 52 C8 53.32 8 54.64 8 56 C-2.56 56 -13.12 56 -24 56 C-24 54.68 -24 53.36 -24 52 C-25.32 52 -26.64 52 -28 52 C-28 48.04 -28 44.08 -28 40 C-26.68 40 -25.36 40 -24 40 C-24 38.68 -24 37.36 -24 36 C-22.68 36 -21.36 36 -20 36 C-20 34.68 -20 33.36 -20 32 C-16.04 32 -12.08 32 -8 32 C-8 30.68 -8 29.36 -8 28 C-6.68 28 -5.36 28 -4 28 C-4 24.04 -4 20.08 -4 16 C-1.36 16 1.28 16 4 16 C4 13.36 4 10.72 4 8 C5.32 8 6.64 8 8 8 C8 6.68 8 5.36 8 4 C5.36 4 2.72 4 0 4 C0 2.68 0 1.36 0 0 Z " fill="#639BFF" transform="translate(92,200)"/>
<path d="M0 0 C1.32 0 2.64 0 4 0 C4 3.96 4 7.92 4 12 C2.68 12 1.36 12 0 12 C0 13.32 0 14.64 0 16 C-2.64 16 -5.28 16 -8 16 C-8 14.68 -8 13.36 -8 12 C-10.64 12 -13.28 12 -16 12 C-16 15.96 -16 19.92 -16 24 C-18.64 24 -21.28 24 -24 24 C-24 26.64 -24 29.28 -24 32 C-26.64 32 -29.28 32 -32 32 C-32 29.36 -32 26.72 -32 24 C-35.96 24 -39.92 24 -44 24 C-44 27.96 -44 31.92 -44 36 C-45.32 36 -46.64 36 -48 36 C-48 32.04 -48 28.08 -48 24 C-49.32 24 -50.64 24 -52 24 C-52 27.96 -52 31.92 -52 36 C-53.32 36 -54.64 36 -56 36 C-56 32.04 -56 28.08 -56 24 C-58.64 24 -61.28 24 -64 24 C-64 26.64 -64 29.28 -64 32 C-66.64 32 -69.28 32 -72 32 C-72 29.36 -72 26.72 -72 24 C-77.28 24 -82.56 24 -88 24 C-88 27.96 -88 31.92 -88 36 C-89.32 36 -90.64 36 -92 36 C-92 32.04 -92 28.08 -92 24 C-93.32 24 -94.64 24 -96 24 C-96 21.36 -96 18.72 -96 16 C-98.64 16 -101.28 16 -104 16 C-104 13.36 -104 10.72 -104 8 C-101.36 8 -98.72 8 -96 8 C-96 6.68 -96 5.36 -96 4 C-89.4 4 -82.8 4 -76 4 C-76 5.32 -76 6.64 -76 8 C-72.04 8 -68.08 8 -64 8 C-64 9.32 -64 10.64 -64 12 C-60.04 12 -56.08 12 -52 12 C-52 14.64 -52 17.28 -52 20 C-50.68 20 -49.36 20 -48 20 C-48 17.36 -48 14.72 -48 12 C-46.68 12 -45.36 12 -44 12 C-44 14.64 -44 17.28 -44 20 C-42.68 20 -41.36 20 -40 20 C-40 17.36 -40 14.72 -40 12 C-37.36 12 -34.72 12 -32 12 C-32 10.68 -32 9.36 -32 8 C-29.36 8 -26.72 8 -24 8 C-24 6.68 -24 5.36 -24 4 C-17.4 4 -10.8 4 -4 4 C-4 5.32 -4 6.64 -4 8 C-2.68 8 -1.36 8 0 8 C0 5.36 0 2.72 0 0 Z " fill="#020201" transform="translate(212,48)"/>
<path d="M0 0 C9.24 0 18.48 0 28 0 C28 2.64 28 5.28 28 8 C26.68 8 25.36 8 24 8 C24 13.28 24 18.56 24 24 C29.28 24 34.56 24 40 24 C40 22.68 40 21.36 40 20 C41.32 20 42.64 20 44 20 C44 21.32 44 22.64 44 24 C45.32 24 46.64 24 48 24 C48 25.32 48 26.64 48 28 C17.64 28 -12.72 28 -44 28 C-44 26.68 -44 25.36 -44 24 C-42.68 24 -41.36 24 -40 24 C-40 20.04 -40 16.08 -40 12 C-30.76 12 -21.52 12 -12 12 C-12 10.68 -12 9.36 -12 8 C-6.72 8 -1.44 8 4 8 C4 6.68 4 5.36 4 4 C2.68 4 1.36 4 0 4 C0 2.68 0 1.36 0 0 Z " fill="#5FCDE4" transform="translate(144,228)"/>
<path d="M0 0 C3.96 0 7.92 0 12 0 C12 1.32 12 2.64 12 4 C13.32 4 14.64 4 16 4 C16 5.32 16 6.64 16 8 C18.64 8 21.28 8 24 8 C24 9.32 24 10.64 24 12 C25.32 12 26.64 12 28 12 C28 13.32 28 14.64 28 16 C29.32 16 30.64 16 32 16 C32 17.32 32 18.64 32 20 C30.68 20 29.36 20 28 20 C28 21.32 28 22.64 28 24 C31.96 24 35.92 24 40 24 C40 25.32 40 26.64 40 28 C37.36 28 34.72 28 32 28 C32 30.64 32 33.28 32 36 C30.68 36 29.36 36 28 36 C28 33.36 28 30.72 28 28 C26.68 28 25.36 28 24 28 C24 29.32 24 30.64 24 32 C22.68 32 21.36 32 20 32 C20 34.64 20 37.28 20 40 C18.68 40 17.36 40 16 40 C16 38.68 16 37.36 16 36 C14.68 36 13.36 36 12 36 C12 38.64 12 41.28 12 44 C13.32 44 14.64 44 16 44 C16 45.32 16 46.64 16 48 C17.32 48 18.64 48 20 48 C20 49.32 20 50.64 20 52 C21.32 52 22.64 52 24 52 C24 53.32 24 54.64 24 56 C21.36 56 18.72 56 16 56 C16 54.68 16 53.36 16 52 C14.68 52 13.36 52 12 52 C12 50.68 12 49.36 12 48 C9.36 48 6.72 48 4 48 C4 46.68 4 45.36 4 44 C2.68 44 1.36 44 0 44 C0 42.68 0 41.36 0 40 C-1.32 40 -2.64 40 -4 40 C-4 38.68 -4 37.36 -4 36 C-5.32 36 -6.64 36 -8 36 C-8 33.36 -8 30.72 -8 28 C-9.32 28 -10.64 28 -12 28 C-12 22.72 -12 17.44 -12 12 C-10.68 12 -9.36 12 -8 12 C-8 10.68 -8 9.36 -8 8 C-6.68 8 -5.36 8 -4 8 C-4 6.68 -4 5.36 -4 4 C-2.68 4 -1.36 4 0 4 C0 2.68 0 1.36 0 0 Z " fill="#876B05" transform="translate(28,120)"/>
<path d="M0 0 C5.28 0 10.56 0 16 0 C16 1.32 16 2.64 16 4 C17.32 4 18.64 4 20 4 C20 10.6 20 17.2 20 24 C18.68 24 17.36 24 16 24 C16 26.64 16 29.28 16 32 C14.68 32 13.36 32 12 32 C12 29.36 12 26.72 12 24 C10.68 24 9.36 24 8 24 C8 25.32 8 26.64 8 28 C6.68 28 5.36 28 4 28 C4 30.64 4 33.28 4 36 C2.68 36 1.36 36 0 36 C0 39.96 0 43.92 0 48 C-1.32 48 -2.64 48 -4 48 C-4 49.32 -4 50.64 -4 52 C-5.32 52 -6.64 52 -8 52 C-8 53.32 -8 54.64 -8 56 C-9.32 56 -10.64 56 -12 56 C-12 57.32 -12 58.64 -12 60 C-14.64 60 -17.28 60 -20 60 C-20 58.68 -20 57.36 -20 56 C-21.32 56 -22.64 56 -24 56 C-24 54.68 -24 53.36 -24 52 C-25.32 52 -26.64 52 -28 52 C-28 50.68 -28 49.36 -28 48 C-29.32 48 -30.64 48 -32 48 C-32 45.36 -32 42.72 -32 40 C-29.36 40 -26.72 40 -24 40 C-24 41.32 -24 42.64 -24 44 C-22.68 44 -21.36 44 -20 44 C-20 45.32 -20 46.64 -20 48 C-17.36 48 -14.72 48 -12 48 C-12 46.68 -12 45.36 -12 44 C-13.32 44 -14.64 44 -16 44 C-16 42.68 -16 41.36 -16 40 C-17.32 40 -18.64 40 -20 40 C-20 38.68 -20 37.36 -20 36 C-21.32 36 -22.64 36 -24 36 C-24 33.36 -24 30.72 -24 28 C-22.68 28 -21.36 28 -20 28 C-20 29.32 -20 30.64 -20 32 C-17.36 32 -14.72 32 -12 32 C-12 30.68 -12 29.36 -12 28 C-9.36 28 -6.72 28 -4 28 C-4 25.36 -4 22.72 -4 20 C-1.36 20 1.28 20 4 20 C4 18.68 4 17.36 4 16 C0.04 16 -3.92 16 -8 16 C-8 14.68 -8 13.36 -8 12 C-6.68 12 -5.36 12 -4 12 C-4 9.36 -4 6.72 -4 4 C-2.68 4 -1.36 4 0 4 C0 2.68 0 1.36 0 0 Z " fill="#CDB833" transform="translate(64,128)"/>
<path d="M0 0 C6.6 0 13.2 0 20 0 C20 1.32 20 2.64 20 4 C25.28 4 30.56 4 36 4 C36 2.68 36 1.36 36 0 C41.28 0 46.56 0 52 0 C52 1.32 52 2.64 52 4 C57.28 4 62.56 4 68 4 C68 2.68 68 1.36 68 0 C75.92 0 83.84 0 92 0 C92 1.32 92 2.64 92 4 C93.32 4 94.64 4 96 4 C96 5.32 96 6.64 96 8 C97.32 8 98.64 8 100 8 C100 13.28 100 18.56 100 24 C98.68 24 97.36 24 96 24 C96 20.04 96 16.08 96 12 C94.68 12 93.36 12 92 12 C92 13.32 92 14.64 92 16 C89.36 16 86.72 16 84 16 C84 17.32 84 18.64 84 20 C81.36 20 78.72 20 76 20 C76 21.32 76 22.64 76 24 C74.68 24 73.36 24 72 24 C72 22.68 72 21.36 72 20 C66.72 20 61.44 20 56 20 C56 18.68 56 17.36 56 16 C54.68 16 53.36 16 52 16 C52 14.68 52 13.36 52 12 C50.68 12 49.36 12 48 12 C48 13.32 48 14.64 48 16 C46.68 16 45.36 16 44 16 C44 14.68 44 13.36 44 12 C42.68 12 41.36 12 40 12 C40 10.68 40 9.36 40 8 C24.16 8 8.32 8 -8 8 C-8 6.68 -8 5.36 -8 4 C-5.36 4 -2.72 4 0 4 C0 2.68 0 1.36 0 0 Z " fill="#6DA2F9" transform="translate(120,24)"/>
<path d="M0 0 C1.32 0 2.64 0 4 0 C4 3.96 4 7.92 4 12 C6.64 12 9.28 12 12 12 C12 10.68 12 9.36 12 8 C10.68 8 9.36 8 8 8 C8 6.68 8 5.36 8 4 C22.52 4 37.04 4 52 4 C52 6.64 52 9.28 52 12 C53.32 12 54.64 12 56 12 C56 9.36 56 6.72 56 4 C57.32 4 58.64 4 60 4 C60 9.28 60 14.56 60 20 C58.68 20 57.36 20 56 20 C56 21.32 56 22.64 56 24 C53.36 24 50.72 24 48 24 C48 25.32 48 26.64 48 28 C45.36 28 42.72 28 40 28 C40 26.68 40 25.36 40 24 C41.32 24 42.64 24 44 24 C44 22.68 44 21.36 44 20 C37.4 20 30.8 20 24 20 C24 21.32 24 22.64 24 24 C25.32 24 26.64 24 28 24 C28 25.32 28 26.64 28 28 C22.72 28 17.44 28 12 28 C12 26.68 12 25.36 12 24 C9.36 24 6.72 24 4 24 C4 22.68 4 21.36 4 20 C1.36 20 -1.28 20 -4 20 C-4 14.72 -4 9.44 -4 4 C-2.68 4 -1.36 4 0 4 C0 2.68 0 1.36 0 0 Z " fill="#ECD53E" transform="translate(132,116)"/>
<path d="M0 0 C1.32 0 2.64 0 4 0 C4 1.32 4 2.64 4 4 C6.64 4 9.28 4 12 4 C12 5.32 12 6.64 12 8 C13.32 8 14.64 8 16 8 C16 9.32 16 10.64 16 12 C17.32 12 18.64 12 20 12 C20 13.32 20 14.64 20 16 C21.32 16 22.64 16 24 16 C24 17.32 24 18.64 24 20 C27.96 20 31.92 20 36 20 C36 21.32 36 22.64 36 24 C37.32 24 38.64 24 40 24 C40 25.32 40 26.64 40 28 C41.32 28 42.64 28 44 28 C44 33.28 44 38.56 44 44 C42.68 44 41.36 44 40 44 C40 45.32 40 46.64 40 48 C38.68 48 37.36 48 36 48 C36 49.32 36 50.64 36 52 C30.72 52 25.44 52 20 52 C20 50.68 20 49.36 20 48 C18.68 48 17.36 48 16 48 C16 46.68 16 45.36 16 44 C14.68 44 13.36 44 12 44 C12 41.36 12 38.72 12 36 C13.32 36 14.64 36 16 36 C16 33.36 16 30.72 16 28 C14.68 28 13.36 28 12 28 C12 26.68 12 25.36 12 24 C10.68 24 9.36 24 8 24 C8 22.68 8 21.36 8 20 C6.68 20 5.36 20 4 20 C4 17.36 4 14.72 4 12 C2.68 12 1.36 12 0 12 C0 8.04 0 4.08 0 0 Z " fill="#C8B332" transform="translate(216,156)"/>
<path d="M0 0 C2.64 0 5.28 0 8 0 C8 1.32 8 2.64 8 4 C9.32 4 10.64 4 12 4 C12 2.68 12 1.36 12 0 C25.2 0 38.4 0 52 0 C52 6.6 52 13.2 52 20 C38.8 20 25.6 20 12 20 C12 18.68 12 17.36 12 16 C10.68 16 9.36 16 8 16 C8 17.32 8 18.64 8 20 C5.36 20 2.72 20 0 20 C0 18.68 0 17.36 0 16 C-1.32 16 -2.64 16 -4 16 C-4 12.04 -4 8.08 -4 4 C-2.68 4 -1.36 4 0 4 C0 2.68 0 1.36 0 0 Z " fill="#8D553A" transform="translate(160,176)"/>
<path d="M0 0 C11.88 0 23.76 0 36 0 C36 1.32 36 2.64 36 4 C32.04 4 28.08 4 24 4 C24 5.32 24 6.64 24 8 C22.68 8 21.36 8 20 8 C20 9.32 20 10.64 20 12 C18.68 12 17.36 12 16 12 C16 15.96 16 19.92 16 24 C17.32 24 18.64 24 20 24 C20 25.32 20 26.64 20 28 C8.12 28 -3.76 28 -16 28 C-16 26.68 -16 25.36 -16 24 C-17.32 24 -18.64 24 -20 24 C-20 20.04 -20 16.08 -20 12 C-18.68 12 -17.36 12 -16 12 C-16 10.68 -16 9.36 -16 8 C-14.68 8 -13.36 8 -12 8 C-12 6.68 -12 5.36 -12 4 C-8.04 4 -4.08 4 0 4 C0 2.68 0 1.36 0 0 Z " fill="#5FCDE4" transform="translate(48,228)"/>
<path d="M0 0 C1.32 0 2.64 0 4 0 C4 2.64 4 5.28 4 8 C5.32 8 6.64 8 8 8 C8 9.32 8 10.64 8 12 C9.32 12 10.64 12 12 12 C12 8.04 12 4.08 12 0 C13.32 0 14.64 0 16 0 C16 2.64 16 5.28 16 8 C17.32 8 18.64 8 20 8 C20 13.28 20 18.56 20 24 C18.68 24 17.36 24 16 24 C16 25.32 16 26.64 16 28 C5.44 28 -5.12 28 -16 28 C-16 26.68 -16 25.36 -16 24 C-17.32 24 -18.64 24 -20 24 C-20 20.04 -20 16.08 -20 12 C-18.68 12 -17.36 12 -16 12 C-16 10.68 -16 9.36 -16 8 C-14.68 8 -13.36 8 -12 8 C-12 6.68 -12 5.36 -12 4 C-8.04 4 -4.08 4 0 4 C0 2.68 0 1.36 0 0 Z " fill="#000000" transform="translate(84,228)"/>
<path d="M0 0 C17.16 0 34.32 0 52 0 C52 1.32 52 2.64 52 4 C53.32 4 54.64 4 56 4 C56 2.68 56 1.36 56 0 C58.64 0 61.28 0 64 0 C64 1.32 64 2.64 64 4 C66.64 4 69.28 4 72 4 C72 5.32 72 6.64 72 8 C70.68 8 69.36 8 68 8 C68 9.32 68 10.64 68 12 C66.68 12 65.36 12 64 12 C64 10.68 64 9.36 64 8 C62.68 8 61.36 8 60 8 C60 9.32 60 10.64 60 12 C37.56 12 15.12 12 -8 12 C-8 9.36 -8 6.72 -8 4 C-5.36 4 -2.72 4 0 4 C0 2.68 0 1.36 0 0 Z " fill="#F9F9F9" transform="translate(80,160)"/>
<path d="M0 0 C1.32 0 2.64 0 4 0 C4 3.96 4 7.92 4 12 C5.32 12 6.64 12 8 12 C8 8.04 8 4.08 8 0 C11.96 0 15.92 0 20 0 C20 2.64 20 5.28 20 8 C22.64 8 25.28 8 28 8 C28 9.32 28 10.64 28 12 C33.28 12 38.56 12 44 12 C44 15.96 44 19.92 44 24 C30.8 24 17.6 24 4 24 C4 25.32 4 26.64 4 28 C0.04 28 -3.92 28 -8 28 C-8 26.68 -8 25.36 -8 24 C-6.68 24 -5.36 24 -4 24 C-4 20.04 -4 16.08 -4 12 C-2.68 12 -1.36 12 0 12 C0 8.04 0 4.08 0 0 Z " fill="#E3CC3A" transform="translate(160,72)"/>
<path d="M0 0 C1.32 0 2.64 0 4 0 C4 1.32 4 2.64 4 4 C6.64 4 9.28 4 12 4 C12 2.68 12 1.36 12 0 C13.32 0 14.64 0 16 0 C16 1.32 16 2.64 16 4 C29.2 4 42.4 4 56 4 C56 5.32 56 6.64 56 8 C50.72 8 45.44 8 40 8 C40 10.64 40 13.28 40 16 C38.68 16 37.36 16 36 16 C36 13.36 36 10.72 36 8 C28.08 8 20.16 8 12 8 C12 10.64 12 13.28 12 16 C10.68 16 9.36 16 8 16 C8 13.36 8 10.72 8 8 C-6.52 8 -21.04 8 -36 8 C-36 10.64 -36 13.28 -36 16 C-37.32 16 -38.64 16 -40 16 C-40 13.36 -40 10.72 -40 8 C-47.92 8 -55.84 8 -64 8 C-64 9.32 -64 10.64 -64 12 C-61.36 12 -58.72 12 -56 12 C-56 13.32 -56 14.64 -56 16 C-57.32 16 -58.64 16 -60 16 C-60 18.64 -60 21.28 -60 24 C-61.32 24 -62.64 24 -64 24 C-64 21.36 -64 18.72 -64 16 C-65.32 16 -66.64 16 -68 16 C-68 13.36 -68 10.72 -68 8 C-73.28 8 -78.56 8 -84 8 C-84 6.68 -84 5.36 -84 4 C-56.28 4 -28.56 4 0 4 C0 2.68 0 1.36 0 0 Z " fill="#000000" transform="translate(156,192)"/>
<path d="M0 0 C10.56 0 21.12 0 32 0 C32 1.32 32 2.64 32 4 C37.28 4 42.56 4 48 4 C48 5.32 48 6.64 48 8 C49.32 8 50.64 8 52 8 C52 9.32 52 10.64 52 12 C53.32 12 54.64 12 56 12 C56 14.64 56 17.28 56 20 C54.68 20 53.36 20 52 20 C52 22.64 52 25.28 52 28 C44.08 28 36.16 28 28 28 C28 26.68 28 25.36 28 24 C29.32 24 30.64 24 32 24 C32 20.04 32 16.08 32 12 C30.68 12 29.36 12 28 12 C28 10.68 28 9.36 28 8 C26.68 8 25.36 8 24 8 C24 6.68 24 5.36 24 4 C18.72 4 13.44 4 8 4 C8 5.32 8 6.64 8 8 C5.36 8 2.72 8 0 8 C0 5.36 0 2.72 0 0 Z " fill="#5FCDE4" transform="translate(192,228)"/>
<path d="M0 0 C2.64 0 5.28 0 8 0 C8 1.32 8 2.64 8 4 C10.64 4 13.28 4 16 4 C16 2.68 16 1.36 16 0 C18.64 0 21.28 0 24 0 C24 3.63 24 7.26 24 11 C22.68 11 21.36 11 20 11 C20 19.25 20 27.5 20 36 C17.36 36 14.72 36 12 36 C12 34.68 12 33.36 12 32 C10.68 32 9.36 32 8 32 C8 29.36 8 26.72 8 24 C2.72 24 -2.56 24 -8 24 C-8 20.04 -8 16.08 -8 12 C-5.36 12 -2.72 12 0 12 C0 8.04 0 4.08 0 0 Z " fill="#ECD53E" transform="translate(196,60)"/>
<path d="M0 0 C21.12 0 42.24 0 64 0 C64 1.32 64 2.64 64 4 C69.28 4 74.56 4 80 4 C80 2.68 80 1.36 80 0 C81.32 0 82.64 0 84 0 C84 1.32 84 2.64 84 4 C85.32 4 86.64 4 88 4 C88 5.32 88 6.64 88 8 C57.64 8 27.28 8 -4 8 C-4 6.68 -4 5.36 -4 4 C-2.68 4 -1.36 4 0 4 C0 2.68 0 1.36 0 0 Z " fill="#639BFF" transform="translate(104,248)"/>
<path d="M0 0 C7.92 0 15.84 0 24 0 C24 3.96 24 7.92 24 12 C21.36 12 18.72 12 16 12 C16 13.32 16 14.64 16 16 C14.68 16 13.36 16 12 16 C12 19.96 12 23.92 12 28 C9.36 28 6.72 28 4 28 C4 31.96 4 35.92 4 40 C2.68 40 1.36 40 0 40 C0 38.68 0 37.36 0 36 C-1.32 36 -2.64 36 -4 36 C-4 29.4 -4 22.8 -4 16 C-1.36 16 1.28 16 4 16 C4 13.36 4 10.72 4 8 C5.32 8 6.64 8 8 8 C8 6.68 8 5.36 8 4 C5.36 4 2.72 4 0 4 C0 2.68 0 1.36 0 0 Z " fill="#D95763" transform="translate(92,200)"/>
<path d="M0 0 C1.32 0 2.64 0 4 0 C4 13.2 4 26.4 4 40 C5.32 40 6.64 40 8 40 C8 38.68 8 37.36 8 36 C10.64 36 13.28 36 16 36 C16 39.96 16 43.92 16 48 C14.68 48 13.36 48 12 48 C12 49.32 12 50.64 12 52 C10.68 52 9.36 52 8 52 C8 50.68 8 49.36 8 48 C6.68 48 5.36 48 4 48 C4 51.96 4 55.92 4 60 C11.92 60 19.84 60 28 60 C28 58.68 28 57.36 28 56 C29.32 56 30.64 56 32 56 C32 57.32 32 58.64 32 60 C33.32 60 34.64 60 36 60 C36 61.32 36 62.64 36 64 C24.12 64 12.24 64 0 64 C0 42.88 0 21.76 0 0 Z " fill="#D2B21F" transform="translate(96,92)"/>
<path d="M0 0 C6.6 0 13.2 0 20 0 C20 1.32 20 2.64 20 4 C25.28 4 30.56 4 36 4 C36 2.68 36 1.36 36 0 C41.28 0 46.56 0 52 0 C52 1.32 52 2.64 52 4 C57.28 4 62.56 4 68 4 C68 5.32 68 6.64 68 8 C64.04 8 60.08 8 56 8 C56 10.64 56 13.28 56 16 C54.68 16 53.36 16 52 16 C52 14.68 52 13.36 52 12 C50.68 12 49.36 12 48 12 C48 13.32 48 14.64 48 16 C46.68 16 45.36 16 44 16 C44 14.68 44 13.36 44 12 C42.68 12 41.36 12 40 12 C40 10.68 40 9.36 40 8 C24.16 8 8.32 8 -8 8 C-8 6.68 -8 5.36 -8 4 C-5.36 4 -2.72 4 0 4 C0 2.68 0 1.36 0 0 Z " fill="#7093D8" transform="translate(120,24)"/>
<path d="M0 0 C5.28 0 10.56 0 16 0 C16 1.32 16 2.64 16 4 C17.32 4 18.64 4 20 4 C20 10.6 20 17.2 20 24 C18.68 24 17.36 24 16 24 C16 26.64 16 29.28 16 32 C14.68 32 13.36 32 12 32 C12 29.36 12 26.72 12 24 C10.68 24 9.36 24 8 24 C8 22.68 8 21.36 8 20 C6.68 20 5.36 20 4 20 C4 18.68 4 17.36 4 16 C0.04 16 -3.92 16 -8 16 C-8 14.68 -8 13.36 -8 12 C-6.68 12 -5.36 12 -4 12 C-4 9.36 -4 6.72 -4 4 C-2.68 4 -1.36 4 0 4 C0 2.68 0 1.36 0 0 Z " fill="#EFEFEF" transform="translate(64,128)"/>
<path d="M0 0 C7.92 0 15.84 0 24 0 C24 2.64 24 5.28 24 8 C21.36 8 18.72 8 16 8 C16 9.32 16 10.64 16 12 C17.32 12 18.64 12 20 12 C20 19.92 20 27.84 20 36 C16.04 36 12.08 36 8 36 C8 26.76 8 17.52 8 8 C5.36 8 2.72 8 0 8 C0 5.36 0 2.72 0 0 Z " fill="#ECD53E" transform="translate(168,200)"/>
<path d="M0 0 C7.92 0 15.84 0 24 0 C24 6.6 24 13.2 24 20 C16.08 20 8.16 20 0 20 C0 13.4 0 6.8 0 0 Z " fill="#76432B" transform="translate(72,176)"/>
<path d="M0 0 C5.28 0 10.56 0 16 0 C16 2.64 16 5.28 16 8 C18.64 8 21.28 8 24 8 C24 5.36 24 2.72 24 0 C26.64 0 29.28 0 32 0 C32 3.96 32 7.92 32 12 C30.68 12 29.36 12 28 12 C28 13.32 28 14.64 28 16 C26.68 16 25.36 16 24 16 C24 17.32 24 18.64 24 20 C18.72 20 13.44 20 8 20 C8 18.68 8 17.36 8 16 C6.68 16 5.36 16 4 16 C4 14.68 4 13.36 4 12 C2.68 12 1.36 12 0 12 C0 8.04 0 4.08 0 0 Z " fill="#FFFFFF" transform="translate(124,72)"/>
<path d="M0 0 C2.64 0 5.28 0 8 0 C8 1.32 8 2.64 8 4 C9.32 4 10.64 4 12 4 C12 5.32 12 6.64 12 8 C13.32 8 14.64 8 16 8 C16 9.32 16 10.64 16 12 C14.68 12 13.36 12 12 12 C12 13.32 12 14.64 12 16 C15.96 16 19.92 16 24 16 C24 17.32 24 18.64 24 20 C21.36 20 18.72 20 16 20 C16 22.64 16 25.28 16 28 C14.68 28 13.36 28 12 28 C12 25.36 12 22.72 12 20 C10.68 20 9.36 20 8 20 C8 21.32 8 22.64 8 24 C6.68 24 5.36 24 4 24 C4 26.64 4 29.28 4 32 C2.68 32 1.36 32 0 32 C0 30.68 0 29.36 0 28 C-1.32 28 -2.64 28 -4 28 C-4 25.36 -4 22.72 -4 20 C-2.68 20 -1.36 20 0 20 C0 16.04 0 12.08 0 8 C-3.96 8 -7.92 8 -12 8 C-12 6.68 -12 5.36 -12 4 C-8.04 4 -4.08 4 0 4 C0 2.68 0 1.36 0 0 Z " fill="#D2B21F" transform="translate(44,128)"/>
<path d="M0 0 C5.28 0 10.56 0 16 0 C16 1.32 16 2.64 16 4 C12.04 4 8.08 4 4 4 C4 5.32 4 6.64 4 8 C7.96 8 11.92 8 16 8 C16 11.96 16 15.92 16 20 C14.68 20 13.36 20 12 20 C12 22.64 12 25.28 12 28 C9.36 28 6.72 28 4 28 C4 26.68 4 25.36 4 24 C2.68 24 1.36 24 0 24 C0 22.68 0 21.36 0 20 C-1.32 20 -2.64 20 -4 20 C-4 14.72 -4 9.44 -4 4 C-2.68 4 -1.36 4 0 4 C0 2.68 0 1.36 0 0 Z " fill="#E9D13B" transform="translate(28,128)"/>
<path d="M0 0 C14.52 0 29.04 0 44 0 C44 2.64 44 5.28 44 8 C29.48 8 14.96 8 0 8 C0 9.32 0 10.64 0 12 C1.32 12 2.64 12 4 12 C4 13.32 4 14.64 4 16 C1.36 16 -1.28 16 -4 16 C-4 12.04 -4 8.08 -4 4 C-2.68 4 -1.36 4 0 4 C0 2.68 0 1.36 0 0 Z " fill="#000000" transform="translate(140,112)"/>
<path d="M0 0 C9.24 0 18.48 0 28 0 C28 1.32 28 2.64 28 4 C30.64 4 33.28 4 36 4 C36 5.32 36 6.64 36 8 C28.08 8 20.16 8 12 8 C12 15.92 12 23.84 12 32 C10.68 32 9.36 32 8 32 C8 26.72 8 21.44 8 16 C6.68 16 5.36 16 4 16 C4 14.68 4 13.36 4 12 C2.68 12 1.36 12 0 12 C0 10.68 0 9.36 0 8 C-1.32 8 -2.64 8 -4 8 C-4 6.68 -4 5.36 -4 4 C-2.68 4 -1.36 4 0 4 C0 2.68 0 1.36 0 0 Z " fill="#D2B21F" transform="translate(76,28)"/>
<path d="M0 0 C2.64 0 5.28 0 8 0 C8 6.6 8 13.2 8 20 C6.68 20 5.36 20 4 20 C4 23.96 4 27.92 4 32 C5.32 32 6.64 32 8 32 C8 34.64 8 37.28 8 40 C6.68 40 5.36 40 4 40 C4 41.32 4 42.64 4 44 C-1.28 44 -6.56 44 -12 44 C-12 42.68 -12 41.36 -12 40 C-10.68 40 -9.36 40 -8 40 C-8 38.68 -8 37.36 -8 36 C-6.68 36 -5.36 36 -4 36 C-4 34.68 -4 33.36 -4 32 C-2.68 32 -1.36 32 0 32 C0 21.44 0 10.88 0 0 Z " fill="#DDC12C" transform="translate(200,112)"/>
<path d="M0 0 C2.64 0 5.28 0 8 0 C8 1.32 8 2.64 8 4 C9.32 4 10.64 4 12 4 C12 2.68 12 1.36 12 0 C18.6 0 25.2 0 32 0 C32 3.96 32 7.92 32 12 C22.76 12 13.52 12 4 12 C4 10.68 4 9.36 4 8 C1.36 8 -1.28 8 -4 8 C-4 6.68 -4 5.36 -4 4 C-2.68 4 -1.36 4 0 4 C0 2.68 0 1.36 0 0 Z " fill="#FFFFFF" transform="translate(180,160)"/>
<path d="M0 0 C2.64 0 5.28 0 8 0 C8 1.32 8 2.64 8 4 C9.32 4 10.64 4 12 4 C12 5.32 12 6.64 12 8 C14.64 8 17.28 8 20 8 C20 6.68 20 5.36 20 4 C21.32 4 22.64 4 24 4 C24 2.68 24 1.36 24 0 C26.64 0 29.28 0 32 0 C32 2.64 32 5.28 32 8 C30.68 8 29.36 8 28 8 C28 9.32 28 10.64 28 12 C26.68 12 25.36 12 24 12 C24 13.32 24 14.64 24 16 C22.68 16 21.36 16 20 16 C20 17.32 20 18.64 20 20 C17.36 20 14.72 20 12 20 C12 18.68 12 17.36 12 16 C10.68 16 9.36 16 8 16 C8 14.68 8 13.36 8 12 C6.68 12 5.36 12 4 12 C4 10.68 4 9.36 4 8 C2.68 8 1.36 8 0 8 C0 5.36 0 2.72 0 0 Z " fill="#72B2D8" transform="translate(32,168)"/>
<path d="M0 0 C14.52 0 29.04 0 44 0 C44 2.64 44 5.28 44 8 C30.8 8 17.6 8 4 8 C4 6.68 4 5.36 4 4 C2.68 4 1.36 4 0 4 C0 2.68 0 1.36 0 0 Z " fill="#D9848C" transform="translate(140,120)"/>
<path d="M0 0 C1.32 0 2.64 0 4 0 C4 2.64 4 5.28 4 8 C5.32 8 6.64 8 8 8 C8 5.36 8 2.72 8 0 C11.96 0 15.92 0 20 0 C20 1.32 20 2.64 20 4 C17.36 4 14.72 4 12 4 C12 5.32 12 6.64 12 8 C13.32 8 14.64 8 16 8 C16 9.32 16 10.64 16 12 C23.92 12 31.84 12 40 12 C40 13.32 40 14.64 40 16 C28.12 16 16.24 16 4 16 C4 14.68 4 13.36 4 12 C2.68 12 1.36 12 0 12 C0 8.04 0 4.08 0 0 Z " fill="#6196FA" transform="translate(28,240)"/>
<path d="M0 0 C1.32 0 2.64 0 4 0 C4 1.32 4 2.64 4 4 C5.32 4 6.64 4 8 4 C8 5.32 8 6.64 8 8 C13.28 8 18.56 8 24 8 C24 6.68 24 5.36 24 4 C25.32 4 26.64 4 28 4 C28 2.68 28 1.36 28 0 C29.32 0 30.64 0 32 0 C32 3.96 32 7.92 32 12 C30.68 12 29.36 12 28 12 C28 13.32 28 14.64 28 16 C20.08 16 12.16 16 4 16 C4 13.36 4 10.72 4 8 C2.68 8 1.36 8 0 8 C0 5.36 0 2.72 0 0 Z " fill="#C3A317" transform="translate(124,84)"/>
<path d="M0 0 C2.64 0 5.28 0 8 0 C8 3.96 8 7.92 8 12 C6.68 12 5.36 12 4 12 C4 15.96 4 19.92 4 24 C2.68 24 1.36 24 0 24 C0 25.32 0 26.64 0 28 C-1.32 28 -2.64 28 -4 28 C-4 26.68 -4 25.36 -4 24 C-5.32 24 -6.64 24 -8 24 C-8 18.72 -8 13.44 -8 8 C-6.68 8 -5.36 8 -4 8 C-4 6.68 -4 5.36 -4 4 C-2.68 4 -1.36 4 0 4 C0 2.68 0 1.36 0 0 Z " fill="#658BCD" transform="translate(68,36)"/>
<path d="M0 0 C3.96 0 7.92 0 12 0 C12 1.32 12 2.64 12 4 C13.32 4 14.64 4 16 4 C16 5.32 16 6.64 16 8 C10.72 8 5.44 8 0 8 C0 9.32 0 10.64 0 12 C-1.32 12 -2.64 12 -4 12 C-4 17.28 -4 22.56 -4 28 C-6.64 28 -9.28 28 -12 28 C-12 22.72 -12 17.44 -12 12 C-10.68 12 -9.36 12 -8 12 C-8 10.68 -8 9.36 -8 8 C-6.68 8 -5.36 8 -4 8 C-4 6.68 -4 5.36 -4 4 C-2.68 4 -1.36 4 0 4 C0 2.68 0 1.36 0 0 Z " fill="#7E6A12" transform="translate(28,120)"/>
<path d="M0 0 C1.32 0 2.64 0 4 0 C4 3.96 4 7.92 4 12 C5.32 12 6.64 12 8 12 C8 10.68 8 9.36 8 8 C10.64 8 13.28 8 16 8 C16 9.32 16 10.64 16 12 C14.68 12 13.36 12 12 12 C12 13.32 12 14.64 12 16 C10.68 16 9.36 16 8 16 C8 17.32 8 18.64 8 20 C11.96 20 15.92 20 20 20 C20 21.32 20 22.64 20 24 C14.72 24 9.44 24 4 24 C4 22.68 4 21.36 4 20 C2.68 20 1.36 20 0 20 C0 18.68 0 17.36 0 16 C-1.32 16 -2.64 16 -4 16 C-4 13.36 -4 10.72 -4 8 C-2.68 8 -1.36 8 0 8 C0 5.36 0 2.72 0 0 Z " fill="#BE9708" transform="translate(232,184)"/>
<path d="M0 0 C2.64 0 5.28 0 8 0 C8 1.32 8 2.64 8 4 C9.32 4 10.64 4 12 4 C12 7.96 12 11.92 12 16 C10.68 16 9.36 16 8 16 C8 17.32 8 18.64 8 20 C5.36 20 2.72 20 0 20 C0 18.68 0 17.36 0 16 C-1.32 16 -2.64 16 -4 16 C-4 12.04 -4 8.08 -4 4 C-2.68 4 -1.36 4 0 4 C0 2.68 0 1.36 0 0 Z " fill="#D53838" transform="translate(160,176)"/>
<path d="M0 0 C6.6 0 13.2 0 20 0 C20 1.32 20 2.64 20 4 C25.28 4 30.56 4 36 4 C36 5.32 36 6.64 36 8 C21.48 8 6.96 8 -8 8 C-8 6.68 -8 5.36 -8 4 C-5.36 4 -2.72 4 0 4 C0 2.68 0 1.36 0 0 Z " fill="#D2B21F" transform="translate(120,24)"/>
<path d="M0 0 C2.64 0 5.28 0 8 0 C8 8.25 8 16.5 8 25 C5.36 25 2.72 25 0 25 C0 23.68 0 22.36 0 21 C-1.32 21 -2.64 21 -4 21 C-4 18.36 -4 15.72 -4 13 C-2.68 13 -1.36 13 0 13 C0 8.71 0 4.42 0 0 Z " fill="#D2B21F" transform="translate(208,71)"/>
<path d="M0 0 C7.92 0 15.84 0 24 0 C24 3.96 24 7.92 24 12 C21.36 12 18.72 12 16 12 C16 13.32 16 14.64 16 16 C14.68 16 13.36 16 12 16 C12 13.36 12 10.72 12 8 C10.68 8 9.36 8 8 8 C8 6.68 8 5.36 8 4 C5.36 4 2.72 4 0 4 C0 2.68 0 1.36 0 0 Z " fill="#8F563B" transform="translate(92,200)"/>
<path d="M0 0 C2.64 0 5.28 0 8 0 C8 1.32 8 2.64 8 4 C9.32 4 10.64 4 12 4 C12 6.64 12 9.28 12 12 C10.68 12 9.36 12 8 12 C8 13.32 8 14.64 8 16 C6.68 16 5.36 16 4 16 C4 17.32 4 18.64 4 20 C2.68 20 1.36 20 0 20 C0 18.68 0 17.36 0 16 C-1.32 16 -2.64 16 -4 16 C-4 12.04 -4 8.08 -4 4 C-2.68 4 -1.36 4 0 4 C0 2.68 0 1.36 0 0 Z " fill="#BE9708" transform="translate(98,40)"/>
<path d="M0 0 C9.24 0 18.48 0 28 0 C28 1.32 28 2.64 28 4 C21.4 4 14.8 4 8 4 C8 7.96 8 11.92 8 16 C6.68 16 5.36 16 4 16 C4 14.68 4 13.36 4 12 C2.68 12 1.36 12 0 12 C0 10.68 0 9.36 0 8 C-1.32 8 -2.64 8 -4 8 C-4 6.68 -4 5.36 -4 4 C-2.68 4 -1.36 4 0 4 C0 2.68 0 1.36 0 0 Z " fill="#000000" transform="translate(76,28)"/>
<path d="M0 0 C7.92 0 15.84 0 24 0 C24 2.64 24 5.28 24 8 C16.08 8 8.16 8 0 8 C0 5.36 0 2.72 0 0 Z " fill="#8F563B" transform="translate(168,200)"/>
<path d="M0 0 C7.92 0 15.84 0 24 0 C24 2.64 24 5.28 24 8 C16.08 8 8.16 8 0 8 C0 5.36 0 2.72 0 0 Z " fill="#000000" transform="translate(104,180)"/>
<path d="M0 0 C1.32 0 2.64 0 4 0 C4 1.32 4 2.64 4 4 C6.64 4 9.28 4 12 4 C12 5.32 12 6.64 12 8 C13.32 8 14.64 8 16 8 C16 9.32 16 10.64 16 12 C13.36 12 10.72 12 8 12 C8 13.32 8 14.64 8 16 C9.32 16 10.64 16 12 16 C12 18.64 12 21.28 12 24 C10.68 24 9.36 24 8 24 C8 22.68 8 21.36 8 20 C6.68 20 5.36 20 4 20 C4 17.36 4 14.72 4 12 C2.68 12 1.36 12 0 12 C0 8.04 0 4.08 0 0 Z " fill="#705C0C" transform="translate(216,156)"/>
<path d="M0 0 C1.32 0 2.64 0 4 0 C4 5.28 4 10.56 4 16 C2.68 16 1.36 16 0 16 C0 17.32 0 18.64 0 20 C-2.64 20 -5.28 20 -8 20 C-8 21.32 -8 22.64 -8 24 C-10.64 24 -13.28 24 -16 24 C-16 22.68 -16 21.36 -16 20 C-14.68 20 -13.36 20 -12 20 C-12 18.68 -12 17.36 -12 16 C-10.68 16 -9.36 16 -8 16 C-8 14.68 -8 13.36 -8 12 C-6.68 12 -5.36 12 -4 12 C-4 10.68 -4 9.36 -4 8 C-2.68 8 -1.36 8 0 8 C0 5.36 0 2.72 0 0 Z " fill="#ECD53E" transform="translate(188,120)"/>
<path d="M0 0 C14.52 0 29.04 0 44 0 C44 1.32 44 2.64 44 4 C29.48 4 14.96 4 0 4 C0 2.68 0 1.36 0 0 Z " fill="#4756AF" transform="translate(128,224)"/>
<path d="M0 0 C6.6 0 13.2 0 20 0 C20 3.96 20 7.92 20 12 C18.68 12 17.36 12 16 12 C16 10.68 16 9.36 16 8 C10.72 8 5.44 8 0 8 C0 5.36 0 2.72 0 0 Z " fill="#000000" transform="translate(136,180)"/>
<path d="M0 0 C2.64 0 5.28 0 8 0 C8 1.32 8 2.64 8 4 C9.32 4 10.64 4 12 4 C12 7.96 12 11.92 12 16 C8.04 16 4.08 16 0 16 C0 10.72 0 5.44 0 0 Z " fill="#DFDFDF" transform="translate(216,136)"/>
<path d="M0 0 C1.32 0 2.64 0 4 0 C4 9.24 4 18.48 4 28 C1.36 28 -1.28 28 -4 28 C-4 26.68 -4 25.36 -4 24 C-2.68 24 -1.36 24 0 24 C0 21.36 0 18.72 0 16 C-1.32 16 -2.64 16 -4 16 C-4 12.04 -4 8.08 -4 4 C-2.68 4 -1.36 4 0 4 C0 2.68 0 1.36 0 0 Z " fill="#BE9708" transform="translate(208,128)"/>
<path d="M0 0 C14.52 0 29.04 0 44 0 C44 1.32 44 2.64 44 4 C29.48 4 14.96 4 0 4 C0 2.68 0 1.36 0 0 Z " fill="#ECD53E" transform="translate(140,108)"/>
<path d="M0 0 C3.96 0 7.92 0 12 0 C12 2.64 12 5.28 12 8 C14.64 8 17.28 8 20 8 C20 9.32 20 10.64 20 12 C13.4 12 6.8 12 0 12 C0 8.04 0 4.08 0 0 Z " fill="#FFFFFF" transform="translate(168,72)"/>
<path d="M0 0 C10.56 0 21.12 0 32 0 C32 1.32 32 2.64 32 4 C24.08 4 16.16 4 8 4 C8 5.32 8 6.64 8 8 C5.36 8 2.72 8 0 8 C0 5.36 0 2.72 0 0 Z " fill="#4756AF" transform="translate(192,228)"/>
<path d="M0 0 C9.24 0 18.48 0 28 0 C28 2.64 28 5.28 28 8 C25.36 8 22.72 8 20 8 C20 6.68 20 5.36 20 4 C16.04 4 12.08 4 8 4 C8 5.32 8 6.64 8 8 C6.68 8 5.36 8 4 8 C4 6.68 4 5.36 4 4 C2.68 4 1.36 4 0 4 C0 2.68 0 1.36 0 0 Z " fill="#BCE7F0" transform="translate(144,228)"/>
<path d="M0 0 C6.6 0 13.2 0 20 0 C20 2.64 20 5.28 20 8 C13.4 8 6.8 8 0 8 C0 5.36 0 2.72 0 0 Z " fill="#000000" transform="translate(184,180)"/>
<path d="M0 0 C1.32 0 2.64 0 4 0 C4 1.32 4 2.64 4 4 C5.32 4 6.64 4 8 4 C8 5.32 8 6.64 8 8 C6.68 8 5.36 8 4 8 C4 9.32 4 10.64 4 12 C7.96 12 11.92 12 16 12 C16 13.32 16 14.64 16 16 C13.36 16 10.72 16 8 16 C8 18.64 8 21.28 8 24 C6.68 24 5.36 24 4 24 C4 21.36 4 18.72 4 16 C2.68 16 1.36 16 0 16 C0 10.72 0 5.44 0 0 Z " fill="#000000" transform="translate(52,132)"/>
<path d="M0 0 C13.2 0 26.4 0 40 0 C40 1.32 40 2.64 40 4 C26.8 4 13.6 4 0 4 C0 2.68 0 1.36 0 0 Z " fill="#000000" transform="translate(144,128)"/>
<path d="M0 0 C1.32 0 2.64 0 4 0 C4 13.2 4 26.4 4 40 C2.68 40 1.36 40 0 40 C0 26.8 0 13.6 0 0 Z " fill="#000000" transform="translate(92,92)"/>
<path d="M0 0 C5.28 0 10.56 0 16 0 C16 1.32 16 2.64 16 4 C19.96 4 23.92 4 28 4 C28 5.32 28 6.64 28 8 C20.08 8 12.16 8 4 8 C4 6.68 4 5.36 4 4 C2.68 4 1.36 4 0 4 C0 2.68 0 1.36 0 0 Z " fill="#F7E673" transform="translate(116,60)"/>
<path d="M0 0 C1.32 0 2.64 0 4 0 C4 2.64 4 5.28 4 8 C2.68 8 1.36 8 0 8 C0 11.63 0 15.26 0 19 C1.32 19 2.64 19 4 19 C4 24.28 4 29.56 4 35 C2.68 35 1.36 35 0 35 C0 30.05 0 25.1 0 20 C-1.32 20 -2.64 20 -4 20 C-4 14.72 -4 9.44 -4 4 C-2.68 4 -1.36 4 0 4 C0 2.68 0 1.36 0 0 Z " fill="#000000" transform="translate(56,48)"/>
<path d="M0 0 C1.32 0 2.64 0 4 0 C4 1.32 4 2.64 4 4 C5.32 4 6.64 4 8 4 C8 6.64 8 9.28 8 12 C0.08 12 -7.84 12 -16 12 C-16 10.68 -16 9.36 -16 8 C-10.72 8 -5.44 8 0 8 C0 5.36 0 2.72 0 0 Z " fill="#639BFF" transform="translate(236,244)"/>
<path d="M0 0 C5.28 0 10.56 0 16 0 C16 1.32 16 2.64 16 4 C17.32 4 18.64 4 20 4 C20 6.64 20 9.28 20 12 C17.36 12 14.72 12 12 12 C12 10.68 12 9.36 12 8 C10.68 8 9.36 8 8 8 C8 6.68 8 5.36 8 4 C5.36 4 2.72 4 0 4 C0 2.68 0 1.36 0 0 Z " fill="#ABD2E6" transform="translate(228,236)"/>
<path d="M0 0 C3.96 0 7.92 0 12 0 C12 2.64 12 5.28 12 8 C8.04 8 4.08 8 0 8 C0 10.64 0 13.28 0 16 C-1.32 16 -2.64 16 -4 16 C-4 12.04 -4 8.08 -4 4 C-2.68 4 -1.36 4 0 4 C0 2.68 0 1.36 0 0 Z " fill="#9EC2DF" transform="translate(36,232)"/>
<path d="M0 0 C11.88 0 23.76 0 36 0 C36 1.32 36 2.64 36 4 C24.12 4 12.24 4 0 4 C0 2.68 0 1.36 0 0 Z " fill="#4756AF" transform="translate(48,228)"/>
<path d="M0 0 C1.32 0 2.64 0 4 0 C4 3.96 4 7.92 4 12 C5.32 12 6.64 12 8 12 C8 13.32 8 14.64 8 16 C6.68 16 5.36 16 4 16 C4 18.64 4 21.28 4 24 C2.68 24 1.36 24 0 24 C0 22.68 0 21.36 0 20 C-1.32 20 -2.64 20 -4 20 C-4 17.36 -4 14.72 -4 12 C-2.68 12 -1.36 12 0 12 C0 8.04 0 4.08 0 0 Z " fill="#2F2A0C" transform="translate(44,136)"/>
<path d="M0 0 C2.64 0 5.28 0 8 0 C8 3.96 8 7.92 8 12 C6.68 12 5.36 12 4 12 C4 13.32 4 14.64 4 16 C2.68 16 1.36 16 0 16 C0 14.68 0 13.36 0 12 C-1.32 12 -2.64 12 -4 12 C-4 9.36 -4 6.72 -4 4 C-2.68 4 -1.36 4 0 4 C0 2.68 0 1.36 0 0 Z " fill="#BE9708" transform="translate(104,128)"/>
<path d="M0 0 C11.88 0 23.76 0 36 0 C36 1.32 36 2.64 36 4 C24.12 4 12.24 4 0 4 C0 2.68 0 1.36 0 0 Z " fill="#FAF1F2" transform="translate(140,120)"/>
<path d="M0 0 C1.32 0 2.64 0 4 0 C4 1.32 4 2.64 4 4 C5.32 4 6.64 4 8 4 C8 6.64 8 9.28 8 12 C13.28 12 18.56 12 24 12 C24 13.32 24 14.64 24 16 C17.4 16 10.8 16 4 16 C4 13.36 4 10.72 4 8 C2.68 8 1.36 8 0 8 C0 5.36 0 2.72 0 0 Z " fill="#A78507" transform="translate(124,84)"/>
<path d="M0 0 C3.96 0 7.92 0 12 0 C12 2.64 12 5.28 12 8 C10.68 8 9.36 8 8 8 C8 10.64 8 13.28 8 16 C6.68 16 5.36 16 4 16 C4 13.36 4 10.72 4 8 C2.68 8 1.36 8 0 8 C0 5.36 0 2.72 0 0 Z " fill="#CAA715" transform="translate(60,148)"/>
<path d="M0 0 C10.56 0 21.12 0 32 0 C32 1.32 32 2.64 32 4 C21.44 4 10.88 4 0 4 C0 2.68 0 1.36 0 0 Z " fill="#BE9708" transform="translate(148,132)"/>
<path d="M0 0 C2.64 0 5.28 0 8 0 C8 5.28 8 10.56 8 16 C5.36 16 2.72 16 0 16 C0 10.72 0 5.44 0 0 Z " fill="#D2B21F" transform="translate(16,132)"/>
<path d="M0 0 C1.32 0 2.64 0 4 0 C4 10.56 4 21.12 4 32 C2.68 32 1.36 32 0 32 C0 21.44 0 10.88 0 0 Z " fill="#D2B21F" transform="translate(116,112)"/>
<path d="M0 0 C1.32 0 2.64 0 4 0 C4 10.56 4 21.12 4 32 C2.68 32 1.36 32 0 32 C0 21.44 0 10.88 0 0 Z " fill="#D2B21F" transform="translate(92,60)"/>
<path d="M0 0 C1.32 0 2.64 0 4 0 C4 10.56 4 21.12 4 32 C2.68 32 1.36 32 0 32 C0 21.44 0 10.88 0 0 Z " fill="#000000" transform="translate(88,60)"/>
<path d="M0 0 C9.24 0 18.48 0 28 0 C28 1.32 28 2.64 28 4 C18.76 4 9.52 4 0 4 C0 2.68 0 1.36 0 0 Z " fill="#4756AF" transform="translate(100,228)"/>
<path d="M0 0 C2.64 0 5.28 0 8 0 C8 2.64 8 5.28 8 8 C6.68 8 5.36 8 4 8 C4 9.32 4 10.64 4 12 C1.36 12 -1.28 12 -4 12 C-4 9.36 -4 6.72 -4 4 C-2.68 4 -1.36 4 0 4 C0 2.68 0 1.36 0 0 Z " fill="#87BCDC" transform="translate(56,168)"/>
<path d="M0 0 C1.32 0 2.64 0 4 0 C4 8.25 4 16.5 4 25 C2.68 25 1.36 25 0 25 C0 16.75 0 8.5 0 0 Z " fill="#000000" transform="translate(212,71)"/>
<path d="M0 0 C7.92 0 15.84 0 24 0 C24 1.32 24 2.64 24 4 C16.08 4 8.16 4 0 4 C0 2.68 0 1.36 0 0 Z " fill="#ACE2EE" transform="translate(48,232)"/>
<path d="M0 0 C3.96 0 7.92 0 12 0 C12 2.64 12 5.28 12 8 C8.04 8 4.08 8 0 8 C0 5.36 0 2.72 0 0 Z " fill="#FFFFFF" transform="translate(176,228)"/>
<path d="M0 0 C2.64 0 5.28 0 8 0 C8 2.64 8 5.28 8 8 C6.68 8 5.36 8 4 8 C4 9.32 4 10.64 4 12 C1.36 12 -1.28 12 -4 12 C-4 10.68 -4 9.36 -4 8 C-2.68 8 -1.36 8 0 8 C0 5.36 0 2.72 0 0 Z " fill="#ECD53E" transform="translate(96,208)"/>
<path d="M0 0 C2.64 0 5.28 0 8 0 C8 1.32 8 2.64 8 4 C11.96 4 15.92 4 20 4 C20 5.32 20 6.64 20 8 C14.72 8 9.44 8 4 8 C4 6.68 4 5.36 4 4 C2.68 4 1.36 4 0 4 C0 2.68 0 1.36 0 0 Z " fill="#000000" transform="translate(232,200)"/>
<path d="M0 0 C3.96 0 7.92 0 12 0 C12 2.64 12 5.28 12 8 C8.04 8 4.08 8 0 8 C0 5.36 0 2.72 0 0 Z " fill="#000000" transform="translate(76,180)"/>
<path d="M0 0 C2.64 0 5.28 0 8 0 C8 1.32 8 2.64 8 4 C9.32 4 10.64 4 12 4 C12 5.32 12 6.64 12 8 C10.68 8 9.36 8 8 8 C8 9.32 8 10.64 8 12 C6.68 12 5.36 12 4 12 C4 10.68 4 9.36 4 8 C2.68 8 1.36 8 0 8 C0 5.36 0 2.72 0 0 Z " fill="#70B5D9" transform="translate(32,168)"/>
<path d="M0 0 C2.64 0 5.28 0 8 0 C8 1.32 8 2.64 8 4 C10.64 4 13.28 4 16 4 C16 5.32 16 6.64 16 8 C14.68 8 13.36 8 12 8 C12 9.32 12 10.64 12 12 C10.68 12 9.36 12 8 12 C8 10.68 8 9.36 8 8 C6.68 8 5.36 8 4 8 C4 6.68 4 5.36 4 4 C2.68 4 1.36 4 0 4 C0 2.68 0 1.36 0 0 Z " fill="#FFFFFF" transform="translate(136,160)"/>
<path d="M0 0 C1.32 0 2.64 0 4 0 C4 1.32 4 2.64 4 4 C5.32 4 6.64 4 8 4 C8 9.28 8 14.56 8 20 C6.68 20 5.36 20 4 20 C4 16.04 4 12.08 4 8 C2.68 8 1.36 8 0 8 C0 5.36 0 2.72 0 0 Z " fill="#000000" transform="translate(212,28)"/>
<path d="M0 0 C7.92 0 15.84 0 24 0 C24 1.32 24 2.64 24 4 C16.08 4 8.16 4 0 4 C0 2.68 0 1.36 0 0 Z " fill="#000000" transform="translate(188,24)"/>
<path d="M0 0 C3.63 0 7.26 0 11 0 C11.33 2.64 11.66 5.28 12 8 C8.04 8 4.08 8 0 8 C0 5.36 0 2.72 0 0 Z " fill="#CA4A52" transform="translate(176,220)"/>
<path d="M0 0 C2.64 0 5.28 0 8 0 C8 3.96 8 7.92 8 12 C6.68 12 5.36 12 4 12 C4 10.68 4 9.36 4 8 C2.68 8 1.36 8 0 8 C0 5.36 0 2.72 0 0 Z " fill="#FFFFFF" transform="translate(88,228)"/>
<path d="M0 0 C1.32 0 2.64 0 4 0 C4 6.6 4 13.2 4 20 C2.68 20 1.36 20 0 20 C0 13.4 0 6.8 0 0 Z " fill="#663931" transform="translate(92,176)"/>
<path d="M0 0 C3.96 0 7.92 0 12 0 C12 1.32 12 2.64 12 4 C10.68 4 9.36 4 8 4 C8 5.32 8 6.64 8 8 C5.36 8 2.72 8 0 8 C0 5.36 0 2.72 0 0 Z " fill="#D53838" transform="translate(160,164)"/>
<path d="M0 0 C2.64 0 5.28 0 8 0 C8 2.64 8 5.28 8 8 C4.04 8 0.08 8 -4 8 C-4 6.68 -4 5.36 -4 4 C-2.68 4 -1.36 4 0 4 C0 2.68 0 1.36 0 0 Z " fill="#CCCCCC" transform="translate(180,160)"/>
<path d="M0 0 C2.64 0 5.28 0 8 0 C8 1.32 8 2.64 8 4 C9.32 4 10.64 4 12 4 C12 5.32 12 6.64 12 8 C8.04 8 4.08 8 0 8 C0 5.36 0 2.72 0 0 Z " fill="#CBA917" transform="translate(20,148)"/>
<path d="M0 0 C3.96 0 7.92 0 12 0 C12 3.96 12 7.92 12 12 C10.68 12 9.36 12 8 12 C8 9.36 8 6.72 8 4 C5.36 4 2.72 4 0 4 C0 2.68 0 1.36 0 0 Z " fill="#CEAC1A" transform="translate(32,136)"/>
<path d="M0 0 C1.32 0 2.64 0 4 0 C4 6.6 4 13.2 4 20 C2.68 20 1.36 20 0 20 C0 13.4 0 6.8 0 0 Z " fill="#000000" transform="translate(84,132)"/>
<path d="M0 0 C1.32 0 2.64 0 4 0 C4 2.64 4 5.28 4 8 C6.64 8 9.28 8 12 8 C12 9.32 12 10.64 12 12 C8.04 12 4.08 12 0 12 C0 8.04 0 4.08 0 0 Z " fill="#000000" transform="translate(68,116)"/>
<path d="M0 0 C1.32 0 2.64 0 4 0 C4 6.6 4 13.2 4 20 C2.68 20 1.36 20 0 20 C0 13.4 0 6.8 0 0 Z " fill="#ECD53E" transform="translate(204,112)"/>
<path d="M0 0 C1.32 0 2.64 0 4 0 C4 3.96 4 7.92 4 12 C1.36 12 -1.28 12 -4 12 C-4 9.36 -4 6.72 -4 4 C-2.68 4 -1.36 4 0 4 C0 2.68 0 1.36 0 0 Z " fill="#8A6F30" transform="translate(80,104)"/>
<path d="M0 0 C2.64 0 5.28 0 8 0 C8 2.64 8 5.28 8 8 C6.68 8 5.36 8 4 8 C4 9.32 4 10.64 4 12 C2.68 12 1.36 12 0 12 C0 8.04 0 4.08 0 0 Z " fill="#8A6F30" transform="translate(68,88)"/>
<path d="M0 0 C6.6 0 13.2 0 20 0 C20 1.32 20 2.64 20 4 C13.4 4 6.8 4 0 4 C0 2.68 0 1.36 0 0 Z " fill="#000000" transform="translate(168,84)"/>
<path d="M0 0 C6.6 0 13.2 0 20 0 C20 1.32 20 2.64 20 4 C13.4 4 6.8 4 0 4 C0 2.68 0 1.36 0 0 Z " fill="#D2B21F" transform="translate(140,32)"/>
<path d="M0 0 C6.6 0 13.2 0 20 0 C20 1.32 20 2.64 20 4 C13.4 4 6.8 4 0 4 C0 2.68 0 1.36 0 0 Z " fill="#000000" transform="translate(120,24)"/>
<path d="M0 0 C1.32 0 2.64 0 4 0 C4 5.61 4 11.22 4 17 C2.68 17 1.36 17 0 17 C0 11.39 0 5.78 0 0 Z " fill="#000000" transform="translate(60,83)"/>
<path d="M0 0 C5.28 0 10.56 0 16 0 C16 1.32 16 2.64 16 4 C10.72 4 5.44 4 0 4 C0 2.68 0 1.36 0 0 Z " fill="#4756AF" transform="translate(224,232)"/>
<path d="M0 0 C3.96 0 7.92 0 12 0 C12 1.32 12 2.64 12 4 C9.36 4 6.72 4 4 4 C4 5.32 4 6.64 4 8 C2.68 8 1.36 8 0 8 C0 5.36 0 2.72 0 0 Z " fill="#000000" transform="translate(104,208)"/>
<path d="M0 0 C1.32 0 2.64 0 4 0 C4 5.28 4 10.56 4 16 C2.68 16 1.36 16 0 16 C0 10.72 0 5.44 0 0 Z " fill="#000000" transform="translate(256,184)"/>
<path d="M0 0 C1.32 0 2.64 0 4 0 C4 1.32 4 2.64 4 4 C5.32 4 6.64 4 8 4 C8 6.64 8 9.28 8 12 C6.68 12 5.36 12 4 12 C4 10.68 4 9.36 4 8 C2.68 8 1.36 8 0 8 C0 5.36 0 2.72 0 0 Z " fill="#000000" transform="translate(40,148)"/>
<path d="M0 0 C1.32 0 2.64 0 4 0 C4 5.28 4 10.56 4 16 C2.68 16 1.36 16 0 16 C0 10.72 0 5.44 0 0 Z " fill="#000000" transform="translate(16,132)"/>
<path d="M0 0 C1.32 0 2.64 0 4 0 C4 5.28 4 10.56 4 16 C2.68 16 1.36 16 0 16 C0 10.72 0 5.44 0 0 Z " fill="#D2B21F" transform="translate(208,112)"/>
<path d="M0 0 C5.28 0 10.56 0 16 0 C16 1.32 16 2.64 16 4 C10.72 4 5.44 4 0 4 C0 2.68 0 1.36 0 0 Z " fill="#BE9708" transform="translate(164,100)"/>
<path d="M0 0 C1.32 0 2.64 0 4 0 C4 5.28 4 10.56 4 16 C2.68 16 1.36 16 0 16 C0 10.72 0 5.44 0 0 Z " fill="#000000" transform="translate(64,100)"/>
<path d="M0 0 C1.32 0 2.64 0 4 0 C4 5.28 4 10.56 4 16 C2.68 16 1.36 16 0 16 C0 10.72 0 5.44 0 0 Z " fill="#000000" transform="translate(216,96)"/>
<path d="M0 0 C1.32 0 2.64 0 4 0 C4 5.28 4 10.56 4 16 C2.68 16 1.36 16 0 16 C0 10.72 0 5.44 0 0 Z " fill="#D2B21F" transform="translate(212,96)"/>
<path d="M0 0 C5.28 0 10.56 0 16 0 C16 1.32 16 2.64 16 4 C10.72 4 5.44 4 0 4 C0 2.68 0 1.36 0 0 Z " fill="#000000" transform="translate(132,92)"/>
<path d="M0 0 C5.28 0 10.56 0 16 0 C16 1.32 16 2.64 16 4 C10.72 4 5.44 4 0 4 C0 2.68 0 1.36 0 0 Z " fill="#000000" transform="translate(188,80)"/>
<path d="M0 0 C2.64 0 5.28 0 8 0 C8 2.64 8 5.28 8 8 C5.36 8 2.72 8 0 8 C0 5.36 0 2.72 0 0 Z " fill="#D2B21F" transform="translate(188,72)"/>
<path d="M0 0 C5.28 0 10.56 0 16 0 C16 1.32 16 2.64 16 4 C10.72 4 5.44 4 0 4 C0 2.68 0 1.36 0 0 Z " fill="#D7B936" transform="translate(116,60)"/>
<path d="M0 0 C2.64 0 5.28 0 8 0 C8 2.64 8 5.28 8 8 C5.36 8 2.72 8 0 8 C0 5.36 0 2.72 0 0 Z " fill="#8A6F30" transform="translate(72,60)"/>
<path d="M0 0 C1.32 0 2.64 0 4 0 C4 5.28 4 10.56 4 16 C2.68 16 1.36 16 0 16 C0 10.72 0 5.44 0 0 Z " fill="#D2B21F" transform="translate(88,44)"/>
<path d="M0 0 C1.32 0 2.64 0 4 0 C4 5.28 4 10.56 4 16 C2.68 16 1.36 16 0 16 C0 10.72 0 5.44 0 0 Z " fill="#000000" transform="translate(84,44)"/>
<path d="M0 0 C5.28 0 10.56 0 16 0 C16 1.32 16 2.64 16 4 C10.72 4 5.44 4 0 4 C0 2.68 0 1.36 0 0 Z " fill="#4756AF" transform="translate(176,40)"/>
<path d="M0 0 C1.32 0 2.64 0 4 0 C4 3.96 4 7.92 4 12 C1.36 12 -1.28 12 -4 12 C-4 10.68 -4 9.36 -4 8 C-2.68 8 -1.36 8 0 8 C0 5.36 0 2.72 0 0 Z " fill="#819ECF" transform="translate(72,36)"/>
<path d="M0 0 C5.28 0 10.56 0 16 0 C16 1.32 16 2.64 16 4 C10.72 4 5.44 4 0 4 C0 2.68 0 1.36 0 0 Z " fill="#000000" transform="translate(172,28)"/>
<path d="M0 0 C5.28 0 10.56 0 16 0 C16 1.32 16 2.64 16 4 C10.72 4 5.44 4 0 4 C0 2.68 0 1.36 0 0 Z " fill="#000000" transform="translate(140,28)"/>
<path d="M0 0 C5.28 0 10.56 0 16 0 C16 1.32 16 2.64 16 4 C10.72 4 5.44 4 0 4 C0 2.68 0 1.36 0 0 Z " fill="#000000" transform="translate(156,24)"/>
<path d="M0 0 C1.32 0 2.64 0 4 0 C4.33 2.64 4.66 5.28 5 8 C2.03 8 -0.94 8 -4 8 C-4 6.68 -4 5.36 -4 4 C-2.68 4 -1.36 4 0 4 C0 2.68 0 1.36 0 0 Z " fill="#C49F0F" transform="translate(192,148)"/>
<path d="M0 0 C1.32 0 2.64 0 4 0 C4 3.96 4 7.92 4 12 C2.68 12 1.36 12 0 12 C0 8.04 0 4.08 0 0 Z " fill="#4756AF" transform="translate(28,240)"/>
<path d="M0 0 C3.96 0 7.92 0 12 0 C12 1.32 12 2.64 12 4 C8.04 4 4.08 4 0 4 C0 2.68 0 1.36 0 0 Z " fill="#639BFF" transform="translate(48,236)"/>
<path d="M0 0 C3.96 0 7.92 0 12 0 C12 1.32 12 2.64 12 4 C8.04 4 4.08 4 0 4 C0 2.68 0 1.36 0 0 Z " fill="#4756AF" transform="translate(36,232)"/>
<path d="M0 0 C1.32 0 2.64 0 4 0 C4 3.96 4 7.92 4 12 C2.68 12 1.36 12 0 12 C0 8.04 0 4.08 0 0 Z " fill="#000000" transform="translate(100,216)"/>
<path d="M0 0 C1.32 0 2.64 0 4 0 C4 3.96 4 7.92 4 12 C2.68 12 1.36 12 0 12 C0 8.04 0 4.08 0 0 Z " fill="#000000" transform="translate(88,216)"/>
<path d="M0 0 C2.64 0 5.28 0 8 0 C8 1.32 8 2.64 8 4 C6.68 4 5.36 4 4 4 C4 5.32 4 6.64 4 8 C2.68 8 1.36 8 0 8 C0 5.36 0 2.72 0 0 Z " fill="#BE9708" transform="translate(176,208)"/>
<path d="M0 0 C2.64 0 5.28 0 8 0 C8 1.32 8 2.64 8 4 C6.68 4 5.36 4 4 4 C4 5.32 4 6.64 4 8 C2.68 8 1.36 8 0 8 C0 5.36 0 2.72 0 0 Z " fill="#000000" transform="translate(240,192)"/>
<path d="M0 0 C1.32 0 2.64 0 4 0 C4 3.96 4 7.92 4 12 C2.68 12 1.36 12 0 12 C0 8.04 0 4.08 0 0 Z " fill="#000000" transform="translate(172,180)"/>
<path d="M0 0 C3.96 0 7.92 0 12 0 C12 1.32 12 2.64 12 4 C8.04 4 4.08 4 0 4 C0 2.68 0 1.36 0 0 Z " fill="#000000" transform="translate(240,176)"/>
<path d="M0 0 C2.64 0 5.28 0 8 0 C8 2.64 8 5.28 8 8 C6.68 8 5.36 8 4 8 C4 6.68 4 5.36 4 4 C2.68 4 1.36 4 0 4 C0 2.68 0 1.36 0 0 Z " fill="#57A5D2" transform="translate(56,168)"/>
<path d="M0 0 C1.32 0 2.64 0 4 0 C4 3.96 4 7.92 4 12 C2.68 12 1.36 12 0 12 C0 8.04 0 4.08 0 0 Z " fill="#BE9708" transform="translate(216,156)"/>
<path d="M0 0 C3.96 0 7.92 0 12 0 C12 1.32 12 2.64 12 4 C8.04 4 4.08 4 0 4 C0 2.68 0 1.36 0 0 Z " fill="#7E6405" transform="translate(60,148)"/>
<path d="M0 0 C1.32 0 2.64 0 4 0 C4 3.96 4 7.92 4 12 C2.68 12 1.36 12 0 12 C0 8.04 0 4.08 0 0 Z " fill="#000000" transform="translate(224,140)"/>
<path d="M0 0 C3.96 0 7.92 0 12 0 C12 1.32 12 2.64 12 4 C8.04 4 4.08 4 0 4 C0 2.68 0 1.36 0 0 Z " fill="#000000" transform="translate(32,132)"/>
<path d="M0 0 C3.96 0 7.92 0 12 0 C12 1.32 12 2.64 12 4 C8.04 4 4.08 4 0 4 C0 2.68 0 1.36 0 0 Z " fill="#000000" transform="translate(28,120)"/>
<path d="M0 0 C3.96 0 7.92 0 12 0 C12 1.32 12 2.64 12 4 C8.04 4 4.08 4 0 4 C0 2.68 0 1.36 0 0 Z " fill="#BE9708" transform="translate(184,100)"/>
<path d="M0 0 C1.32 0 2.64 0 4 0 C4 2.64 4 5.28 4 8 C1.36 8 -1.28 8 -4 8 C-4 6.68 -4 5.36 -4 4 C-2.68 4 -1.36 4 0 4 C0 2.68 0 1.36 0 0 Z " fill="#372C02" transform="translate(152,84)"/>
<path d="M0 0 C1.32 0 2.64 0 4 0 C4 1.32 4 2.64 4 4 C5.32 4 6.64 4 8 4 C8 5.32 8 6.64 8 8 C5.36 8 2.72 8 0 8 C0 5.36 0 2.72 0 0 Z " fill="#372C02" transform="translate(124,84)"/>
<path d="M0 0 C1.32 0 2.64 0 4 0 C4 3.96 4 7.92 4 12 C2.68 12 1.36 12 0 12 C0 8.04 0 4.08 0 0 Z " fill="#BE9708" transform="translate(160,72)"/>
<path d="M0 0 C1.32 0 2.64 0 4 0 C4 3.96 4 7.92 4 12 C2.68 12 1.36 12 0 12 C0 8.04 0 4.08 0 0 Z " fill="#4756AF" transform="translate(68,48)"/>
<path d="M0 0 C1.32 0 2.64 0 4 0 C4 2.64 4 5.28 4 8 C1.36 8 -1.28 8 -4 8 C-4 6.68 -4 5.36 -4 4 C-2.68 4 -1.36 4 0 4 C0 2.68 0 1.36 0 0 Z " fill="#213355" transform="translate(68,36)"/>
<path d="M0 0 C2.64 0 5.28 0 8 0 C8 2.64 8 5.28 8 8 C6.68 8 5.36 8 4 8 C4 6.68 4 5.36 4 4 C2.68 4 1.36 4 0 4 C0 2.68 0 1.36 0 0 Z " fill="#2F3974" transform="translate(72,32)"/>
<path d="M0 0 C2.64 0 5.28 0 8 0 C8 2.64 8 5.28 8 8 C6.68 8 5.36 8 4 8 C4 6.68 4 5.36 4 4 C2.68 4 1.36 4 0 4 C0 2.68 0 1.36 0 0 Z " fill="#6E86C4" transform="translate(156,28)"/>
<path d="M0 0 C3.63 0 7.26 0 11 0 C11 1.32 11 2.64 11 4 C7.37 4 3.74 4 0 4 C0 2.68 0 1.36 0 0 Z " fill="#7A767C" transform="translate(176,220)"/>
<path d="M0 0 C1.32 0 2.64 0 4 0 C4 3.63 4 7.26 4 11 C2.68 11 1.36 11 0 11 C0 7.37 0 3.74 0 0 Z " fill="#000000" transform="translate(216,60)"/>
<path d="M0 0 C1.32 0 2.64 0 4 0 C4 3.63 4 7.26 4 11 C2.68 11 1.36 11 0 11 C0 7.37 0 3.74 0 0 Z " fill="#D2B21F" transform="translate(212,60)"/>
<path d="M0 0 C1.32 0 2.64 0 4 0 C4 2.64 4 5.28 4 8 C2.68 8 1.36 8 0 8 C0 5.36 0 2.72 0 0 Z " fill="#4756AF" transform="translate(240,248)"/>
<path d="M0 0 C1.32 0 2.64 0 4 0 C4 2.64 4 5.28 4 8 C2.68 8 1.36 8 0 8 C0 5.36 0 2.72 0 0 Z " fill="#4756AF" transform="translate(244,240)"/>
<path d="M0 0 C2.64 0 5.28 0 8 0 C8 1.32 8 2.64 8 4 C5.36 4 2.72 4 0 4 C0 2.68 0 1.36 0 0 Z " fill="#FFFFFF" transform="translate(80,240)"/>
<path d="M0 0 C1.32 0 2.64 0 4 0 C4 2.64 4 5.28 4 8 C2.68 8 1.36 8 0 8 C0 5.36 0 2.72 0 0 Z " fill="#BCE7F0" transform="translate(32,240)"/>
<path d="M0 0 C2.64 0 5.28 0 8 0 C8 1.32 8 2.64 8 4 C5.36 4 2.72 4 0 4 C0 2.68 0 1.36 0 0 Z " fill="#FFFFFF" transform="translate(204,236)"/>
<path d="M0 0 C2.64 0 5.28 0 8 0 C8 1.32 8 2.64 8 4 C5.36 4 2.72 4 0 4 C0 2.68 0 1.36 0 0 Z " fill="#BCE7F0" transform="translate(216,232)"/>
<path d="M0 0 C2.64 0 5.28 0 8 0 C8 1.32 8 2.64 8 4 C5.36 4 2.72 4 0 4 C0 2.68 0 1.36 0 0 Z " fill="#8DDAEA" transform="translate(192,232)"/>
<path d="M0 0 C2.64 0 5.28 0 8 0 C8 1.32 8 2.64 8 4 C5.36 4 2.72 4 0 4 C0 2.68 0 1.36 0 0 Z " fill="#847E87" transform="translate(92,220)"/>
<path d="M0 0 C2.64 0 5.28 0 8 0 C8 1.32 8 2.64 8 4 C5.36 4 2.72 4 0 4 C0 2.68 0 1.36 0 0 Z " fill="#BE9708" transform="translate(96,208)"/>
<path d="M0 0 C1.32 0 2.64 0 4 0 C4 2.64 4 5.28 4 8 C2.68 8 1.36 8 0 8 C0 5.36 0 2.72 0 0 Z " fill="#000000" transform="translate(228,192)"/>
<path d="M0 0 C1.32 0 2.64 0 4 0 C4 2.64 4 5.28 4 8 C2.68 8 1.36 8 0 8 C0 5.36 0 2.72 0 0 Z " fill="#000000" transform="translate(232,184)"/>
<path d="M0 0 C2.64 0 5.28 0 8 0 C8 1.32 8 2.64 8 4 C5.36 4 2.72 4 0 4 C0 2.68 0 1.36 0 0 Z " fill="#4756AF" transform="translate(44,184)"/>
<path d="M0 0 C1.32 0 2.64 0 4 0 C4 2.64 4 5.28 4 8 C2.68 8 1.36 8 0 8 C0 5.36 0 2.72 0 0 Z " fill="#4756AF" transform="translate(32,168)"/>
<path d="M0 0 C1.32 0 2.64 0 4 0 C4 2.64 4 5.28 4 8 C2.68 8 1.36 8 0 8 C0 5.36 0 2.72 0 0 Z " fill="#000000" transform="translate(20,148)"/>
<path d="M0 0 C1.32 0 2.64 0 4 0 C4 2.64 4 5.28 4 8 C2.68 8 1.36 8 0 8 C0 5.36 0 2.72 0 0 Z " fill="#D2B21F" transform="translate(208,144)"/>
<path d="M0 0 C1.32 0 2.64 0 4 0 C4 2.64 4 5.28 4 8 C2.68 8 1.36 8 0 8 C0 5.36 0 2.72 0 0 Z " fill="#BE9708" transform="translate(48,140)"/>
<path d="M0 0 C2.64 0 5.28 0 8 0 C8 1.32 8 2.64 8 4 C5.36 4 2.72 4 0 4 C0 2.68 0 1.36 0 0 Z " fill="#000000" transform="translate(44,128)"/>
<path d="M0 0 C2.64 0 5.28 0 8 0 C8 1.32 8 2.64 8 4 C5.36 4 2.72 4 0 4 C0 2.68 0 1.36 0 0 Z " fill="#69590F" transform="translate(20,128)"/>
<path d="M0 0 C1.32 0 2.64 0 4 0 C4 2.64 4 5.28 4 8 C2.68 8 1.36 8 0 8 C0 5.36 0 2.72 0 0 Z " fill="#ECD53E" transform="translate(184,112)"/>
<path d="M0 0 C1.32 0 2.64 0 4 0 C4 2.64 4 5.28 4 8 C2.68 8 1.36 8 0 8 C0 5.36 0 2.72 0 0 Z " fill="#BE9708" transform="translate(204,104)"/>
<path d="M0 0 C1.32 0 2.64 0 4 0 C4 2.64 4 5.28 4 8 C2.68 8 1.36 8 0 8 C0 5.36 0 2.72 0 0 Z " fill="#BE9708" transform="translate(108,104)"/>
<path d="M0 0 C1.32 0 2.64 0 4 0 C4 2.64 4 5.28 4 8 C2.68 8 1.36 8 0 8 C0 5.36 0 2.72 0 0 Z " fill="#BC9B13" transform="translate(128,92)"/>
<path d="M0 0 C1.32 0 2.64 0 4 0 C4 2.64 4 5.28 4 8 C2.68 8 1.36 8 0 8 C0 5.36 0 2.72 0 0 Z " fill="#BC9B13" transform="translate(120,84)"/>
<path d="M0 0 C1.32 0 2.64 0 4 0 C4 2.64 4 5.28 4 8 C2.68 8 1.36 8 0 8 C0 5.36 0 2.72 0 0 Z " fill="#000000" transform="translate(204,84)"/>
<path d="M0 0 C1.32 0 2.64 0 4 0 C4 2.64 4 5.28 4 8 C2.68 8 1.36 8 0 8 C0 5.36 0 2.72 0 0 Z " fill="#BE9708" transform="translate(104,80)"/>
<path d="M0 0 C1.32 0 2.64 0 4 0 C4 2.64 4 5.28 4 8 C2.68 8 1.36 8 0 8 C0 5.36 0 2.72 0 0 Z " fill="#A78507" transform="translate(188,72)"/>
<path d="M0 0 C2.64 0 5.28 0 8 0 C8 1.32 8 2.64 8 4 C5.36 4 2.72 4 0 4 C0 2.68 0 1.36 0 0 Z " fill="#D2B21F" transform="translate(196,60)"/>
<path d="M0 0 C1.32 0 2.64 0 4 0 C4 2.64 4 5.28 4 8 C2.68 8 1.36 8 0 8 C0 5.36 0 2.72 0 0 Z " fill="#232B57" transform="translate(56,48)"/>
<path d="M0 0 C1.32 0 2.64 0 4 0 C4 2.64 4 5.28 4 8 C2.68 8 1.36 8 0 8 C0 5.36 0 2.72 0 0 Z " fill="#BE9708" transform="translate(148,44)"/>
<path d="M0 0 C2.64 0 5.28 0 8 0 C8 1.32 8 2.64 8 4 C5.36 4 2.72 4 0 4 C0 2.68 0 1.36 0 0 Z " fill="#4756AF" transform="translate(196,40)"/>
<path d="M0 0 C2.64 0 5.28 0 8 0 C8 1.32 8 2.64 8 4 C5.36 4 2.72 4 0 4 C0 2.68 0 1.36 0 0 Z " fill="#4756AF" transform="translate(204,36)"/>
<path d="M0 0 C2.64 0 5.28 0 8 0 C8 1.32 8 2.64 8 4 C5.36 4 2.72 4 0 4 C0 2.68 0 1.36 0 0 Z " fill="#BCE7F0" transform="translate(176,36)"/>
<path d="M0 0 C1.32 0 2.64 0 4 0 C4 2.64 4 5.28 4 8 C2.68 8 1.36 8 0 8 C0 5.36 0 2.72 0 0 Z " fill="#232B57" transform="translate(212,28)"/>
<path d="M0 0 C2.64 0 5.28 0 8 0 C8 1.32 8 2.64 8 4 C5.36 4 2.72 4 0 4 C0 2.68 0 1.36 0 0 Z " fill="#D2B21F" transform="translate(112,32)"/>
<path d="M0 0 C2.64 0 5.28 0 8 0 C8 1.32 8 2.64 8 4 C5.36 4 2.72 4 0 4 C0 2.68 0 1.36 0 0 Z " fill="#000000" transform="translate(104,32)"/>
<path d="M0 0 C2.64 0 5.28 0 8 0 C8 1.32 8 2.64 8 4 C5.36 4 2.72 4 0 4 C0 2.68 0 1.36 0 0 Z " fill="#000000" transform="translate(112,28)"/>
<path d="M0 0 C1.32 0 2.64 0 4 0 C4 2.31 4 4.62 4 7 C2.68 7 1.36 7 0 7 C0 4.69 0 2.38 0 0 Z " fill="#BE9708" transform="translate(98,68)"/>
</svg>
