<?xml version="1.0" encoding="UTF-8"?>
<svg version="1.1" xmlns="http://www.w3.org/2000/svg" width="260" height="260">
<path d="M0 0 C3.96 0 7.92 0 12 0 C12 3.96 12 7.92 12 12 C15.96 12 19.92 12 24 12 C24 14.64 24 17.28 24 20 C27.96 20 31.92 20 36 20 C36 18.68 36 17.36 36 16 C37.32 16 38.64 16 40 16 C40 17.32 40 18.64 40 20 C41.32 20 42.64 20 44 20 C44 21.32 44 22.64 44 24 C42.68 24 41.36 24 40 24 C40 26.64 40 29.28 40 32 C41.32 32 42.64 32 44 32 C44 33.32 44 34.64 44 36 C45.32 36 46.64 36 48 36 C48 34.68 48 33.36 48 32 C50.64 32 53.28 32 56 32 C56 35.96 56 39.92 56 44 C54.68 44 53.36 44 52 44 C52 46.64 52 49.28 52 52 C53.32 52 54.64 52 56 52 C56 55.96 56 59.92 56 64 C57.32 64 58.64 64 60 64 C60 67.96 60 71.92 60 76 C58.68 76 57.36 76 56 76 C56 83.92 56 91.84 56 100 C66.56 100 77.12 100 88 100 C88 101.32 88 102.64 88 104 C91.96 104 95.92 104 100 104 C100 106.64 100 109.28 100 112 C101.32 112 102.64 112 104 112 C104 114.64 104 117.28 104 120 C105.32 120 106.64 120 108 120 C108 118.68 108 117.36 108 116 C110.64 116 113.28 116 116 116 C116 114.68 116 113.36 116 112 C117.32 112 118.64 112 120 112 C120 113.32 120 114.64 120 116 C121.32 116 122.64 116 124 116 C124 117.32 124 118.64 124 120 C122.68 120 121.36 120 120 120 C120 121.32 120 122.64 120 124 C121.32 124 122.64 124 124 124 C124 125.32 124 126.64 124 128 C125.32 128 126.64 128 128 128 C128 129.32 128 130.64 128 132 C126.68 132 125.36 132 124 132 C124 135.96 124 139.92 124 144 C125.32 144 126.64 144 128 144 C128 147.96 128 151.92 128 156 C126.68 156 125.36 156 124 156 C124 157.32 124 158.64 124 160 C122.68 160 121.36 160 120 160 C120 161.32 120 162.64 120 164 C117.36 164 114.72 164 112 164 C112 165.32 112 166.64 112 168 C110.68 168 109.36 168 108 168 C108 169.32 108 170.64 108 172 C106.68 172 105.36 172 104 172 C104 173.32 104 174.64 104 176 C101.36 176 98.72 176 96 176 C96 177.32 96 178.64 96 180 C92.04 180 88.08 180 84 180 C84 181.32 84 182.64 84 184 C82.68 184 81.36 184 80 184 C80 185.32 80 186.64 80 188 C78.68 188 77.36 188 76 188 C76 189.32 76 190.64 76 192 C73.36 192 70.72 192 68 192 C68 193.32 68 194.64 68 196 C62.72 196 57.44 196 52 196 C52 197.32 52 198.64 52 200 C50.68 200 49.36 200 48 200 C48 201.32 48 202.64 48 204 C49.32 204 50.64 204 52 204 C52 207.96 52 211.92 52 216 C50.68 216 49.36 216 48 216 C48 221.28 48 226.56 48 232 C50.64 232 53.28 232 56 232 C56 233.32 56 234.64 56 236 C57.32 236 58.64 236 60 236 C60 238.64 60 241.28 60 244 C58.68 244 57.36 244 56 244 C56 245.32 56 246.64 56 248 C49.4 248 42.8 248 36 248 C36 236.12 36 224.24 36 212 C33.36 212 30.72 212 28 212 C28 213.32 28 214.64 28 216 C14.8 216 1.6 216 -12 216 C-12 214.68 -12 213.36 -12 212 C-14.64 212 -17.28 212 -20 212 C-20 210.68 -20 209.36 -20 208 C-21.32 208 -22.64 208 -24 208 C-24 209.32 -24 210.64 -24 212 C-26.64 212 -29.28 212 -32 212 C-32 214.64 -32 217.28 -32 220 C-30.68 220 -29.36 220 -28 220 C-28 222.64 -28 225.28 -28 228 C-26.68 228 -25.36 228 -24 228 C-24 231.96 -24 235.92 -24 240 C-26.64 240 -29.28 240 -32 240 C-32 241.32 -32 242.64 -32 244 C-37.28 244 -42.56 244 -48 244 C-48 242.68 -48 241.36 -48 240 C-49.32 240 -50.64 240 -52 240 C-52 237.36 -52 234.72 -52 232 C-50.68 232 -49.36 232 -48 232 C-48 230.68 -48 229.36 -48 228 C-45.36 228 -42.72 228 -40 228 C-40 216.12 -40 204.24 -40 192 C-41.32 192 -42.64 192 -44 192 C-44 190.68 -44 189.36 -44 188 C-45.32 188 -46.64 188 -48 188 C-48 185.36 -48 182.72 -48 180 C-49.32 180 -50.64 180 -52 180 C-52 178.68 -52 177.36 -52 176 C-53.32 176 -54.64 176 -56 176 C-56 173.36 -56 170.72 -56 168 C-57.32 168 -58.64 168 -60 168 C-60 164.04 -60 160.08 -60 156 C-61.32 156 -62.64 156 -64 156 C-64 152.04 -64 148.08 -64 144 C-65.32 144 -66.64 144 -68 144 C-68 140.04 -68 136.08 -68 132 C-73.28 132 -78.56 132 -84 132 C-84 133.32 -84 134.64 -84 136 C-85.32 136 -86.64 136 -88 136 C-88 137.32 -88 138.64 -88 140 C-89.32 140 -90.64 140 -92 140 C-92 141.32 -92 142.64 -92 144 C-90.68 144 -89.36 144 -88 144 C-88 147.96 -88 151.92 -88 156 C-89.32 156 -90.64 156 -92 156 C-92 156.99 -92 157.98 -92 159 C-93.32 159 -94.64 159 -96 159 C-96 161.97 -96 164.94 -96 168 C-98.64 168 -101.28 168 -104 168 C-104 169.32 -104 170.64 -104 172 C-105.32 172 -106.64 172 -108 172 C-108 168.04 -108 164.08 -108 160 C-109.32 160 -110.64 160 -112 160 C-112 161.32 -112 162.64 -112 164 C-113.32 164 -114.64 164 -116 164 C-116 161.36 -116 158.72 -116 156 C-114.68 156 -113.36 156 -112 156 C-112 152.04 -112 148.08 -112 144 C-110.68 144 -109.36 144 -108 144 C-108 142.68 -108 141.36 -108 140 C-106.68 140 -105.36 140 -104 140 C-104 137.36 -104 134.72 -104 132 C-101.36 132 -98.72 132 -96 132 C-96 130.68 -96 129.36 -96 128 C-94.68 128 -93.36 128 -92 128 C-92 125.36 -92 122.72 -92 120 C-90.68 120 -89.36 120 -88 120 C-88 117.36 -88 114.72 -88 112 C-86.68 112 -85.36 112 -84 112 C-84 110.68 -84 109.36 -84 108 C-81.36 108 -78.72 108 -76 108 C-76 106.68 -76 105.36 -76 104 C-73.36 104 -70.72 104 -68 104 C-68 102.68 -68 101.36 -68 100 C-62.72 100 -57.44 100 -52 100 C-52 96.04 -52 92.08 -52 88 C-53.32 88 -54.64 88 -56 88 C-56 82.72 -56 77.44 -56 72 C-53.36 72 -50.72 72 -48 72 C-48 70.68 -48 69.36 -48 68 C-46.68 68 -45.36 68 -44 68 C-44 66.68 -44 65.36 -44 64 C-45.32 64 -46.64 64 -48 64 C-48 61.36 -48 58.72 -48 56 C-49.32 56 -50.64 56 -52 56 C-52 50.72 -52 45.44 -52 40 C-50.68 40 -49.36 40 -48 40 C-48 37.36 -48 34.72 -48 32 C-45.36 32 -42.72 32 -40 32 C-40 33.32 -40 34.64 -40 36 C-38.68 36 -37.36 36 -36 36 C-36 33.36 -36 30.72 -36 28 C-37.32 28 -38.64 28 -40 28 C-40 26.68 -40 25.36 -40 24 C-38.68 24 -37.36 24 -36 24 C-36 22.68 -36 21.36 -36 20 C-33.36 20 -30.72 20 -28 20 C-28 18.68 -28 17.36 -28 16 C-26.68 16 -25.36 16 -24 16 C-24 14.68 -24 13.36 -24 12 C-18.72 12 -13.44 12 -8 12 C-8 10.68 -8 9.36 -8 8 C-6.68 8 -5.36 8 -4 8 C-4 6.68 -4 5.36 -4 4 C-2.68 4 -1.36 4 0 4 C0 2.68 0 1.36 0 0 Z M24 36 C24 37.32 24 38.64 24 40 C25.32 40 26.64 40 28 40 C28 38.68 28 37.36 28 36 C26.68 36 25.36 36 24 36 Z M40 52 C40 53.32 40 54.64 40 56 C41.32 56 42.64 56 44 56 C44 54.68 44 53.36 44 52 C42.68 52 41.36 52 40 52 Z " fill="#EA3343" transform="translate(124,8)"/>
<path d="M0 0 C3.96 0 7.92 0 12 0 C12 3.96 12 7.92 12 12 C15.96 12 19.92 12 24 12 C24 14.64 24 17.28 24 20 C27.96 20 31.92 20 36 20 C36 18.68 36 17.36 36 16 C37.32 16 38.64 16 40 16 C40 17.32 40 18.64 40 20 C41.32 20 42.64 20 44 20 C44 21.32 44 22.64 44 24 C42.68 24 41.36 24 40 24 C40 26.64 40 29.28 40 32 C41.32 32 42.64 32 44 32 C44 33.32 44 34.64 44 36 C45.32 36 46.64 36 48 36 C48 34.68 48 33.36 48 32 C50.64 32 53.28 32 56 32 C56 35.96 56 39.92 56 44 C54.68 44 53.36 44 52 44 C52 46.64 52 49.28 52 52 C53.32 52 54.64 52 56 52 C56 55.96 56 59.92 56 64 C57.32 64 58.64 64 60 64 C60 67.96 60 71.92 60 76 C58.68 76 57.36 76 56 76 C56 83.92 56 91.84 56 100 C58.64 100 61.28 100 64 100 C64 102.64 64 105.28 64 108 C62.68 108 61.36 108 60 108 C60 110.64 60 113.28 60 116 C58.68 116 57.36 116 56 116 C56 117.32 56 118.64 56 120 C54.68 120 53.36 120 52 120 C52 121.32 52 122.64 52 124 C50.68 124 49.36 124 48 124 C48 125.32 48 126.64 48 128 C46.68 128 45.36 128 44 128 C44 129.32 44 130.64 44 132 C42.68 132 41.36 132 40 132 C40 126.72 40 121.44 40 116 C38.68 116 37.36 116 36 116 C36 112.04 36 108.08 36 104 C34.68 104 33.36 104 32 104 C32 102.68 32 101.36 32 100 C33.32 100 34.64 100 36 100 C36 96.04 36 92.08 36 88 C33.36 88 30.72 88 28 88 C28 86.68 28 85.36 28 84 C21.4 84 14.8 84 8 84 C8 82.68 8 81.36 8 80 C6.68 80 5.36 80 4 80 C4 77.36 4 74.72 4 72 C5.32 72 6.64 72 8 72 C8 70.68 8 69.36 8 68 C10.64 68 13.28 68 16 68 C16 66.68 16 65.36 16 64 C10.72 64 5.44 64 0 64 C0 65.32 0 66.64 0 68 C-1.32 68 -2.64 68 -4 68 C-4 71.96 -4 75.92 -4 80 C-6.64 80 -9.28 80 -12 80 C-12 78.68 -12 77.36 -12 76 C-17.28 76 -22.56 76 -28 76 C-28 79.96 -28 83.92 -28 88 C-30.64 88 -33.28 88 -36 88 C-36 86.68 -36 85.36 -36 84 C-34.68 84 -33.36 84 -32 84 C-32 81.36 -32 78.72 -32 76 C-33.32 76 -34.64 76 -36 76 C-36 74.68 -36 73.36 -36 72 C-38.64 72 -41.28 72 -44 72 C-44 69.36 -44 66.72 -44 64 C-45.32 64 -46.64 64 -48 64 C-48 61.36 -48 58.72 -48 56 C-49.32 56 -50.64 56 -52 56 C-52 50.72 -52 45.44 -52 40 C-50.68 40 -49.36 40 -48 40 C-48 37.36 -48 34.72 -48 32 C-45.36 32 -42.72 32 -40 32 C-40 33.32 -40 34.64 -40 36 C-38.68 36 -37.36 36 -36 36 C-36 33.36 -36 30.72 -36 28 C-37.32 28 -38.64 28 -40 28 C-40 26.68 -40 25.36 -40 24 C-38.68 24 -37.36 24 -36 24 C-36 22.68 -36 21.36 -36 20 C-33.36 20 -30.72 20 -28 20 C-28 18.68 -28 17.36 -28 16 C-26.68 16 -25.36 16 -24 16 C-24 14.68 -24 13.36 -24 12 C-18.72 12 -13.44 12 -8 12 C-8 10.68 -8 9.36 -8 8 C-6.68 8 -5.36 8 -4 8 C-4 6.68 -4 5.36 -4 4 C-2.68 4 -1.36 4 0 4 C0 2.68 0 1.36 0 0 Z M24 36 C24 37.32 24 38.64 24 40 C25.32 40 26.64 40 28 40 C28 38.68 28 37.36 28 36 C26.68 36 25.36 36 24 36 Z M40 52 C40 53.32 40 54.64 40 56 C41.32 56 42.64 56 44 56 C44 54.68 44 53.36 44 52 C42.68 52 41.36 52 40 52 Z " fill="#E73242" transform="translate(124,8)"/>
<path d="M0 0 C9.24 0 18.48 0 28 0 C28 1.32 28 2.64 28 4 C21.4 4 14.8 4 8 4 C8 15.88 8 27.76 8 40 C6.68 40 5.36 40 4 40 C4 42.64 4 45.28 4 48 C2.68 48 1.36 48 0 48 C0 50.64 0 53.28 0 56 C-1.32 56 -2.64 56 -4 56 C-4 57.32 -4 58.64 -4 60 C-5.32 60 -6.64 60 -8 60 C-8 61.32 -8 62.64 -8 64 C-6.68 64 -5.36 64 -4 64 C-4 66.64 -4 69.28 -4 72 C-9.28 72 -14.56 72 -20 72 C-20 73.32 -20 74.64 -20 76 C-21.32 76 -22.64 76 -24 76 C-24 77.32 -24 78.64 -24 80 C-22.68 80 -21.36 80 -20 80 C-20 83.96 -20 87.92 -20 92 C-21.32 92 -22.64 92 -24 92 C-24 97.28 -24 102.56 -24 108 C-21.36 108 -18.72 108 -16 108 C-16 109.32 -16 110.64 -16 112 C-14.68 112 -13.36 112 -12 112 C-12 114.64 -12 117.28 -12 120 C-13.32 120 -14.64 120 -16 120 C-16 121.32 -16 122.64 -16 124 C-22.6 124 -29.2 124 -36 124 C-36 112.12 -36 100.24 -36 88 C-38.64 88 -41.28 88 -44 88 C-44 89.32 -44 90.64 -44 92 C-57.2 92 -70.4 92 -84 92 C-84 90.68 -84 89.36 -84 88 C-86.64 88 -89.28 88 -92 88 C-92 86.68 -92 85.36 -92 84 C-93.32 84 -94.64 84 -96 84 C-96 85.32 -96 86.64 -96 88 C-98.64 88 -101.28 88 -104 88 C-104 90.64 -104 93.28 -104 96 C-102.68 96 -101.36 96 -100 96 C-100 98.64 -100 101.28 -100 104 C-98.68 104 -97.36 104 -96 104 C-96 107.96 -96 111.92 -96 116 C-98.64 116 -101.28 116 -104 116 C-104 117.32 -104 118.64 -104 120 C-109.28 120 -114.56 120 -120 120 C-120 118.68 -120 117.36 -120 116 C-121.32 116 -122.64 116 -124 116 C-124 113.36 -124 110.72 -124 108 C-122.68 108 -121.36 108 -120 108 C-120 106.68 -120 105.36 -120 104 C-117.36 104 -114.72 104 -112 104 C-112 93.44 -112 82.88 -112 72 C-109.36 72 -106.72 72 -104 72 C-104 73.32 -104 74.64 -104 76 C-101.36 76 -98.72 76 -96 76 C-96 77.32 -96 78.64 -96 80 C-78.84 80 -61.68 80 -44 80 C-44 78.68 -44 77.36 -44 76 C-41.36 76 -38.72 76 -36 76 C-36 74.68 -36 73.36 -36 72 C-34.68 72 -33.36 72 -32 72 C-32 70.68 -32 69.36 -32 68 C-30.68 68 -29.36 68 -28 68 C-28 66.68 -28 65.36 -28 64 C-26.68 64 -25.36 64 -24 64 C-24 62.68 -24 61.36 -24 60 C-22.68 60 -21.36 60 -20 60 C-20 58.68 -20 57.36 -20 56 C-18.68 56 -17.36 56 -16 56 C-16 54.68 -16 53.36 -16 52 C-14.68 52 -13.36 52 -12 52 C-12 50.68 -12 49.36 -12 48 C-10.68 48 -9.36 48 -8 48 C-8 45.36 -8 42.72 -8 40 C-6.68 40 -5.36 40 -4 40 C-4 28.12 -4 16.24 -4 4 C-2.68 4 -1.36 4 0 4 C0 2.68 0 1.36 0 0 Z " fill="#A22C2C" transform="translate(196,132)"/>
<path d="M0 0 C3.96 0 7.92 0 12 0 C12 3.96 12 7.92 12 12 C15.96 12 19.92 12 24 12 C24 14.64 24 17.28 24 20 C27.96 20 31.92 20 36 20 C36 18.68 36 17.36 36 16 C37.32 16 38.64 16 40 16 C40 17.32 40 18.64 40 20 C41.32 20 42.64 20 44 20 C44 21.32 44 22.64 44 24 C42.68 24 41.36 24 40 24 C40 26.64 40 29.28 40 32 C41.32 32 42.64 32 44 32 C44 33.32 44 34.64 44 36 C45.32 36 46.64 36 48 36 C48 34.68 48 33.36 48 32 C50.64 32 53.28 32 56 32 C56 35.96 56 39.92 56 44 C54.68 44 53.36 44 52 44 C52 46.64 52 49.28 52 52 C53.32 52 54.64 52 56 52 C56 55.96 56 59.92 56 64 C57.32 64 58.64 64 60 64 C60 67.96 60 71.92 60 76 C57.36 76 54.72 76 52 76 C52 73.36 52 70.72 52 68 C50.68 68 49.36 68 48 68 C48 66.68 48 65.36 48 64 C46.68 64 45.36 64 44 64 C44 62.68 44 61.36 44 60 C42.68 60 41.36 60 40 60 C40 58.68 40 57.36 40 56 C41.32 56 42.64 56 44 56 C44 54.68 44 53.36 44 52 C41.36 52 38.72 52 36 52 C36 49.36 36 46.72 36 44 C33.36 44 30.72 44 28 44 C28 41.36 28 38.72 28 36 C22.72 36 17.44 36 12 36 C12 34.68 12 33.36 12 32 C5.4 32 -1.2 32 -8 32 C-8 33.32 -8 34.64 -8 36 C-13.28 36 -18.56 36 -24 36 C-24 37.32 -24 38.64 -24 40 C-25.32 40 -26.64 40 -28 40 C-28 42.64 -28 45.28 -28 48 C-29.32 48 -30.64 48 -32 48 C-32 49.32 -32 50.64 -32 52 C-33.32 52 -34.64 52 -36 52 C-36 53.32 -36 54.64 -36 56 C-37.32 56 -38.64 56 -40 56 C-40 58.64 -40 61.28 -40 64 C-42.64 64 -45.28 64 -48 64 C-48 61.36 -48 58.72 -48 56 C-49.32 56 -50.64 56 -52 56 C-52 50.72 -52 45.44 -52 40 C-50.68 40 -49.36 40 -48 40 C-48 37.36 -48 34.72 -48 32 C-45.36 32 -42.72 32 -40 32 C-40 33.32 -40 34.64 -40 36 C-38.68 36 -37.36 36 -36 36 C-36 33.36 -36 30.72 -36 28 C-37.32 28 -38.64 28 -40 28 C-40 26.68 -40 25.36 -40 24 C-38.68 24 -37.36 24 -36 24 C-36 22.68 -36 21.36 -36 20 C-33.36 20 -30.72 20 -28 20 C-28 18.68 -28 17.36 -28 16 C-26.68 16 -25.36 16 -24 16 C-24 14.68 -24 13.36 -24 12 C-18.72 12 -13.44 12 -8 12 C-8 10.68 -8 9.36 -8 8 C-6.68 8 -5.36 8 -4 8 C-4 6.68 -4 5.36 -4 4 C-2.68 4 -1.36 4 0 4 C0 2.68 0 1.36 0 0 Z " fill="#F87B0C" transform="translate(124,8)"/>
<path d="M0 0 C5.28 0 10.56 0 16 0 C16 1.32 16 2.64 16 4 C13.36 4 10.72 4 8 4 C8 5.32 8 6.64 8 8 C6.68 8 5.36 8 4 8 C4 10.64 4 13.28 4 16 C5.32 16 6.64 16 8 16 C8 17.32 8 18.64 8 20 C14.6 20 21.2 20 28 20 C28 21.32 28 22.64 28 24 C30.64 24 33.28 24 36 24 C36 27.96 36 31.92 36 36 C34.68 36 33.36 36 32 36 C32 37.32 32 38.64 32 40 C28.04 40 24.08 40 20 40 C20 41.32 20 42.64 20 44 C17.36 44 14.72 44 12 44 C12 45.32 12 46.64 12 48 C9.36 48 6.72 48 4 48 C4 49.32 4 50.64 4 52 C-5.24 52 -14.48 52 -24 52 C-24 50.68 -24 49.36 -24 48 C-25.32 48 -26.64 48 -28 48 C-28 46.68 -28 45.36 -28 44 C-29.32 44 -30.64 44 -32 44 C-32 42.68 -32 41.36 -32 40 C-33.32 40 -34.64 40 -36 40 C-36 38.68 -36 37.36 -36 36 C-38.64 36 -41.28 36 -44 36 C-44 33.36 -44 30.72 -44 28 C-45.32 28 -46.64 28 -48 28 C-48 26.68 -48 25.36 -48 24 C-46.68 24 -45.36 24 -44 24 C-44 20.04 -44 16.08 -44 12 C-45.32 12 -46.64 12 -48 12 C-48 13.32 -48 14.64 -48 16 C-49.32 16 -50.64 16 -52 16 C-52 13.36 -52 10.72 -52 8 C-50.68 8 -49.36 8 -48 8 C-48 6.68 -48 5.36 -48 4 C-46.68 4 -45.36 4 -44 4 C-44 5.32 -44 6.64 -44 8 C-41.36 8 -38.72 8 -36 8 C-36 9.32 -36 10.64 -36 12 C-34.68 12 -33.36 12 -32 12 C-32 14.64 -32 17.28 -32 20 C-33.32 20 -34.64 20 -36 20 C-36 21.32 -36 22.64 -36 24 C-33.36 24 -30.72 24 -28 24 C-28 20.04 -28 16.08 -28 12 C-22.72 12 -17.44 12 -12 12 C-12 13.32 -12 14.64 -12 16 C-9.36 16 -6.72 16 -4 16 C-4 12.04 -4 8.08 -4 4 C-2.68 4 -1.36 4 0 4 C0 2.68 0 1.36 0 0 Z " fill="#EABF97" transform="translate(124,72)"/>
<path d="M0 0 C6.6 0 13.2 0 20 0 C20 1.32 20 2.64 20 4 C23.96 4 27.92 4 32 4 C32 5.32 32 6.64 32 8 C33.32 8 34.64 8 36 8 C36 9.32 36 10.64 36 12 C38.64 12 41.28 12 44 12 C44 14.64 44 17.28 44 20 C45.32 20 46.64 20 48 20 C48 22.64 48 25.28 48 28 C49.32 28 50.64 28 52 28 C52 29.32 52 30.64 52 32 C53.32 32 54.64 32 56 32 C56 33.32 56 34.64 56 36 C57.32 36 58.64 36 60 36 C60 38.64 60 41.28 60 44 C61.32 44 62.64 44 64 44 C64 51.92 64 59.84 64 68 C66.64 68 69.28 68 72 68 C72 70.64 72 73.28 72 76 C70.68 76 69.36 76 68 76 C68 78.64 68 81.28 68 84 C66.68 84 65.36 84 64 84 C64 85.32 64 86.64 64 88 C62.68 88 61.36 88 60 88 C60 89.32 60 90.64 60 92 C58.68 92 57.36 92 56 92 C56 93.32 56 94.64 56 96 C54.68 96 53.36 96 52 96 C52 97.32 52 98.64 52 100 C50.68 100 49.36 100 48 100 C48 94.72 48 89.44 48 84 C46.68 84 45.36 84 44 84 C44 80.04 44 76.08 44 72 C42.68 72 41.36 72 40 72 C40 70.68 40 69.36 40 68 C42.64 68 45.28 68 48 68 C48 60.08 48 52.16 48 44 C46.68 44 45.36 44 44 44 C44 38.72 44 33.44 44 28 C42.68 28 41.36 28 40 28 C40 26.68 40 25.36 40 24 C38.68 24 37.36 24 36 24 C36 22.68 36 21.36 36 20 C34.68 20 33.36 20 32 20 C32 18.68 32 17.36 32 16 C29.36 16 26.72 16 24 16 C24 14.68 24 13.36 24 12 C12.12 12 0.24 12 -12 12 C-12 13.32 -12 14.64 -12 16 C-14.64 16 -17.28 16 -20 16 C-20 13.36 -20 10.72 -20 8 C-18.68 8 -17.36 8 -16 8 C-16 6.68 -16 5.36 -16 4 C-10.72 4 -5.44 4 0 4 C0 2.68 0 1.36 0 0 Z " fill="#A42D2D" transform="translate(116,40)"/>
<path d="M0 0 C7.92 0 15.84 0 24 0 C24 1.32 24 2.64 24 4 C22.68 4 21.36 4 20 4 C20 5.32 20 6.64 20 8 C22.64 8 25.28 8 28 8 C28 9.32 28 10.64 28 12 C25.36 12 22.72 12 20 12 C20 13.32 20 14.64 20 16 C18.68 16 17.36 16 16 16 C16 14.68 16 13.36 16 12 C14.68 12 13.36 12 12 12 C12 14.64 12 17.28 12 20 C10.68 20 9.36 20 8 20 C8 23.96 8 27.92 8 32 C9.32 32 10.64 32 12 32 C12 33.32 12 34.64 12 36 C14.64 36 17.28 36 20 36 C20 33.36 20 30.72 20 28 C21.32 28 22.64 28 24 28 C24 25.36 24 22.72 24 20 C26.64 20 29.28 20 32 20 C32 22.64 32 25.28 32 28 C34.64 28 37.28 28 40 28 C40 26.68 40 25.36 40 24 C42.64 24 45.28 24 48 24 C48 25.32 48 26.64 48 28 C46.68 28 45.36 28 44 28 C44 29.32 44 30.64 44 32 C42.68 32 41.36 32 40 32 C40 33.32 40 34.64 40 36 C37.36 36 34.72 36 32 36 C32 37.32 32 38.64 32 40 C30.68 40 29.36 40 28 40 C28 41.32 28 42.64 28 44 C26.68 44 25.36 44 24 44 C24 45.32 24 46.64 24 48 C21.36 48 18.72 48 16 48 C16 49.32 16 50.64 16 52 C12.04 52 8.08 52 4 52 C4 53.32 4 54.64 4 56 C2.68 56 1.36 56 0 56 C0 57.32 0 58.64 0 60 C-1.32 60 -2.64 60 -4 60 C-4 61.32 -4 62.64 -4 64 C-6.64 64 -9.28 64 -12 64 C-12 62.68 -12 61.36 -12 60 C-13.32 60 -14.64 60 -16 60 C-16 58.68 -16 57.36 -16 56 C-14.68 56 -13.36 56 -12 56 C-12 54.68 -12 53.36 -12 52 C-10.68 52 -9.36 52 -8 52 C-8 49.36 -8 46.72 -8 44 C-6.68 44 -5.36 44 -4 44 C-4 41.36 -4 38.72 -4 36 C-2.68 36 -1.36 36 0 36 C0 24.12 0 12.24 0 0 Z " fill="#DA3038" transform="translate(204,136)"/>
<path d="M0 0 C1.32 0 2.64 0 4 0 C4 2.64 4 5.28 4 8 C2.68 8 1.36 8 0 8 C0 10.64 0 13.28 0 16 C-2.64 16 -5.28 16 -8 16 C-8 17.32 -8 18.64 -8 20 C-9.32 20 -10.64 20 -12 20 C-12 21.32 -12 22.64 -12 24 C-22.56 24 -33.12 24 -44 24 C-44 22.68 -44 21.36 -44 20 C-46.64 20 -49.28 20 -52 20 C-52 18.68 -52 17.36 -52 16 C-53.32 16 -54.64 16 -56 16 C-56 12.04 -56 8.08 -56 4 C-53.36 4 -50.72 4 -48 4 C-48 5.32 -48 6.64 -48 8 C-36.12 8 -24.24 8 -12 8 C-12 6.68 -12 5.36 -12 4 C-8.04 4 -4.08 4 0 4 C0 2.68 0 1.36 0 0 Z " fill="#FFFFFF" transform="translate(152,160)"/>
<path d="M0 0 C6.6 0 13.2 0 20 0 C20 1.32 20 2.64 20 4 C23.96 4 27.92 4 32 4 C32 5.32 32 6.64 32 8 C33.32 8 34.64 8 36 8 C36 9.32 36 10.64 36 12 C38.64 12 41.28 12 44 12 C44 14.64 44 17.28 44 20 C45.32 20 46.64 20 48 20 C48 22.64 48 25.28 48 28 C45.36 28 42.72 28 40 28 C40 26.68 40 25.36 40 24 C38.68 24 37.36 24 36 24 C36 22.68 36 21.36 36 20 C34.68 20 33.36 20 32 20 C32 18.68 32 17.36 32 16 C29.36 16 26.72 16 24 16 C24 14.68 24 13.36 24 12 C12.12 12 0.24 12 -12 12 C-12 13.32 -12 14.64 -12 16 C-14.64 16 -17.28 16 -20 16 C-20 13.36 -20 10.72 -20 8 C-18.68 8 -17.36 8 -16 8 C-16 6.68 -16 5.36 -16 4 C-10.72 4 -5.44 4 0 4 C0 2.68 0 1.36 0 0 Z " fill="#A82F2F" transform="translate(116,40)"/>
<path d="M0 0 C3.96 0 7.92 0 12 0 C12 2.64 12 5.28 12 8 C13.32 8 14.64 8 16 8 C16 9.32 16 10.64 16 12 C17.32 12 18.64 12 20 12 C20 13.32 20 14.64 20 16 C21.32 16 22.64 16 24 16 C24 18.64 24 21.28 24 24 C21.36 24 18.72 24 16 24 C16 25.32 16 26.64 16 28 C13.36 28 10.72 28 8 28 C8 25.36 8 22.72 8 20 C5.36 20 2.72 20 0 20 C0 22.64 0 25.28 0 28 C-1.32 28 -2.64 28 -4 28 C-4 30.64 -4 33.28 -4 36 C-6.64 36 -9.28 36 -12 36 C-12 34.68 -12 33.36 -12 32 C-13.32 32 -14.64 32 -16 32 C-16 28.04 -16 24.08 -16 20 C-14.68 20 -13.36 20 -12 20 C-12 17.36 -12 14.72 -12 12 C-10.68 12 -9.36 12 -8 12 C-8 13.32 -8 14.64 -8 16 C-6.68 16 -5.36 16 -4 16 C-4 14.68 -4 13.36 -4 12 C-1.36 12 1.28 12 4 12 C4 10.68 4 9.36 4 8 C1.36 8 -1.28 8 -4 8 C-4 6.68 -4 5.36 -4 4 C-2.68 4 -1.36 4 0 4 C0 2.68 0 1.36 0 0 Z " fill="#FBF236" transform="translate(228,136)"/>
<path d="M0 0 C1.32 0 2.64 0 4 0 C4 1.32 4 2.64 4 4 C5.32 4 6.64 4 8 4 C8 5.32 8 6.64 8 8 C6.68 8 5.36 8 4 8 C4 10.64 4 13.28 4 16 C5.32 16 6.64 16 8 16 C8 17.32 8 18.64 8 20 C9.32 20 10.64 20 12 20 C12 18.68 12 17.36 12 16 C14.64 16 17.28 16 20 16 C20 19.96 20 23.92 20 28 C18.68 28 17.36 28 16 28 C16 30.64 16 33.28 16 36 C17.32 36 18.64 36 20 36 C20 39.96 20 43.92 20 48 C21.32 48 22.64 48 24 48 C24 51.96 24 55.92 24 60 C21.36 60 18.72 60 16 60 C16 57.36 16 54.72 16 52 C14.68 52 13.36 52 12 52 C12 50.68 12 49.36 12 48 C10.68 48 9.36 48 8 48 C8 46.68 8 45.36 8 44 C6.68 44 5.36 44 4 44 C4 42.68 4 41.36 4 40 C5.32 40 6.64 40 8 40 C8 37.36 8 34.72 8 32 C6.68 32 5.36 32 4 32 C4 28.04 4 24.08 4 20 C2.68 20 1.36 20 0 20 C0 18.68 0 17.36 0 16 C-1.32 16 -2.64 16 -4 16 C-4 14.68 -4 13.36 -4 12 C-5.32 12 -6.64 12 -8 12 C-8 10.68 -8 9.36 -8 8 C-9.32 8 -10.64 8 -12 8 C-12 6.68 -12 5.36 -12 4 C-8.04 4 -4.08 4 0 4 C0 2.68 0 1.36 0 0 Z " fill="#FE1A00" transform="translate(160,24)"/>
<path d="M0 0 C3.96 0 7.92 0 12 0 C12 1.32 12 2.64 12 4 C10.68 4 9.36 4 8 4 C8 5.32 8 6.64 8 8 C9.32 8 10.64 8 12 8 C12 9.32 12 10.64 12 12 C13.32 12 14.64 12 16 12 C16 15.96 16 19.92 16 24 C14.68 24 13.36 24 12 24 C12 24.99 12 25.98 12 27 C10.68 27 9.36 27 8 27 C8 29.97 8 32.94 8 36 C5.36 36 2.72 36 0 36 C0 37.32 0 38.64 0 40 C-1.32 40 -2.64 40 -4 40 C-4 36.04 -4 32.08 -4 28 C-5.32 28 -6.64 28 -8 28 C-8 29.32 -8 30.64 -8 32 C-9.32 32 -10.64 32 -12 32 C-12 29.36 -12 26.72 -12 24 C-10.68 24 -9.36 24 -8 24 C-8 20.04 -8 16.08 -8 12 C-6.68 12 -5.36 12 -4 12 C-4 10.68 -4 9.36 -4 8 C-2.68 8 -1.36 8 0 8 C0 5.36 0 2.72 0 0 Z " fill="#E5E5E5" transform="translate(20,140)"/>
<path d="M0 0 C2.64 0 5.28 0 8 0 C8 1.32 8 2.64 8 4 C10.64 4 13.28 4 16 4 C16 5.32 16 6.64 16 8 C23.92 8 31.84 8 40 8 C40 6.68 40 5.36 40 4 C42.64 4 45.28 4 48 4 C48 2.68 48 1.36 48 0 C50.64 0 53.28 0 56 0 C56 2.64 56 5.28 56 8 C53.36 8 50.72 8 48 8 C48 9.32 48 10.64 48 12 C46.68 12 45.36 12 44 12 C44 13.32 44 14.64 44 16 C32.12 16 20.24 16 8 16 C8 14.68 8 13.36 8 12 C6.68 12 5.36 12 4 12 C4 13.32 4 14.64 4 16 C2.68 16 1.36 16 0 16 C0 10.72 0 5.44 0 0 Z " fill="#A52C2C" transform="translate(96,132)"/>
<path d="M0 0 C7.92 0 15.84 0 24 0 C24 1.32 24 2.64 24 4 C22.68 4 21.36 4 20 4 C20 5.32 20 6.64 20 8 C22.64 8 25.28 8 28 8 C28 9.32 28 10.64 28 12 C25.36 12 22.72 12 20 12 C20 13.32 20 14.64 20 16 C18.68 16 17.36 16 16 16 C16 14.68 16 13.36 16 12 C14.68 12 13.36 12 12 12 C12 14.64 12 17.28 12 20 C10.68 20 9.36 20 8 20 C8 23.96 8 27.92 8 32 C6.68 32 5.36 32 4 32 C4 33.32 4 34.64 4 36 C2.68 36 1.36 36 0 36 C0 24.12 0 12.24 0 0 Z " fill="#F87006" transform="translate(204,136)"/>
<path d="M0 0 C2.64 0 5.28 0 8 0 C8 2.64 8 5.28 8 8 C10.64 8 13.28 8 16 8 C16 6.68 16 5.36 16 4 C18.64 4 21.28 4 24 4 C24 5.32 24 6.64 24 8 C22.68 8 21.36 8 20 8 C20 9.32 20 10.64 20 12 C18.68 12 17.36 12 16 12 C16 13.32 16 14.64 16 16 C13.36 16 10.72 16 8 16 C8 17.32 8 18.64 8 20 C6.68 20 5.36 20 4 20 C4 21.32 4 22.64 4 24 C2.68 24 1.36 24 0 24 C0 25.32 0 26.64 0 28 C-5.28 28 -10.56 28 -16 28 C-16 26.68 -16 25.36 -16 24 C-14.68 24 -13.36 24 -12 24 C-12 21.36 -12 18.72 -12 16 C-9.36 16 -6.72 16 -4 16 C-4 13.36 -4 10.72 -4 8 C-2.68 8 -1.36 8 0 8 C0 5.36 0 2.72 0 0 Z " fill="#F96B06" transform="translate(228,156)"/>
<path d="M0 0 C2.64 0 5.28 0 8 0 C8 2.64 8 5.28 8 8 C10.64 8 13.28 8 16 8 C16 9.32 16 10.64 16 12 C17.32 12 18.64 12 20 12 C20 14.64 20 17.28 20 20 C18.68 20 17.36 20 16 20 C16 21.32 16 22.64 16 24 C9.4 24 2.8 24 -4 24 C-4 17.4 -4 10.8 -4 4 C-2.68 4 -1.36 4 0 4 C0 2.68 0 1.36 0 0 Z " fill="#B0343D" transform="translate(164,232)"/>
<path d="M0 0 C3.96 0 7.92 0 12 0 C12 1.32 12 2.64 12 4 C13.32 4 14.64 4 16 4 C16 7.96 16 11.92 16 16 C13.36 16 10.72 16 8 16 C8 17.32 8 18.64 8 20 C2.72 20 -2.56 20 -8 20 C-8 18.68 -8 17.36 -8 16 C-9.32 16 -10.64 16 -12 16 C-12 13.36 -12 10.72 -12 8 C-10.68 8 -9.36 8 -8 8 C-8 6.68 -8 5.36 -8 4 C-5.36 4 -2.72 4 0 4 C0 2.68 0 1.36 0 0 Z " fill="#F03445" transform="translate(84,232)"/>
<path d="M0 0 C3.96 0 7.92 0 12 0 C12 3.96 12 7.92 12 12 C15.96 12 19.92 12 24 12 C24 14.64 24 17.28 24 20 C22.68 20 21.36 20 20 20 C20 18.68 20 17.36 20 16 C16.04 16 12.08 16 8 16 C8 14.68 8 13.36 8 12 C6.68 12 5.36 12 4 12 C4 10.68 4 9.36 4 8 C2.68 8 1.36 8 0 8 C0 9.32 0 10.64 0 12 C-1.32 12 -2.64 12 -4 12 C-4 13.32 -4 14.64 -4 16 C-9.28 16 -14.56 16 -20 16 C-20 17.32 -20 18.64 -20 20 C-21.32 20 -22.64 20 -24 20 C-24 22.64 -24 25.28 -24 28 C-25.32 28 -26.64 28 -28 28 C-28 26.68 -28 25.36 -28 24 C-30.64 24 -33.28 24 -36 24 C-36 22.68 -36 21.36 -36 20 C-33.36 20 -30.72 20 -28 20 C-28 18.68 -28 17.36 -28 16 C-26.68 16 -25.36 16 -24 16 C-24 14.68 -24 13.36 -24 12 C-18.72 12 -13.44 12 -8 12 C-8 10.68 -8 9.36 -8 8 C-6.68 8 -5.36 8 -4 8 C-4 6.68 -4 5.36 -4 4 C-2.68 4 -1.36 4 0 4 C0 2.68 0 1.36 0 0 Z " fill="#FE1900" transform="translate(124,8)"/>
<path d="M0 0 C2.64 0 5.28 0 8 0 C8 1.32 8 2.64 8 4 C10.64 4 13.28 4 16 4 C16 7.96 16 11.92 16 16 C13.36 16 10.72 16 8 16 C8 18.64 8 21.28 8 24 C9.32 24 10.64 24 12 24 C12 25.32 12 26.64 12 28 C8.04 28 4.08 28 0 28 C0 18.76 0 9.52 0 0 Z " fill="#962929" transform="translate(84,204)"/>
<path d="M0 0 C5.28 0 10.56 0 16 0 C16 1.32 16 2.64 16 4 C18.64 4 21.28 4 24 4 C24 5.32 24 6.64 24 8 C26.64 8 29.28 8 32 8 C32 9.32 32 10.64 32 12 C28.04 12 24.08 12 20 12 C20 10.68 20 9.36 20 8 C13.4 8 6.8 8 0 8 C0 9.32 0 10.64 0 12 C-5.28 12 -10.56 12 -16 12 C-16 10.68 -16 9.36 -16 8 C-13.36 8 -10.72 8 -8 8 C-8 6.68 -8 5.36 -8 4 C-5.36 4 -2.72 4 0 4 C0 2.68 0 1.36 0 0 Z " fill="#FBF45E" transform="translate(116,32)"/>
<path d="M0 0 C2.64 0 5.28 0 8 0 C8 2.64 8 5.28 8 8 C9.32 8 10.64 8 12 8 C12 9.32 12 10.64 12 12 C13.32 12 14.64 12 16 12 C16 13.32 16 14.64 16 16 C17.32 16 18.64 16 20 16 C20 18.64 20 21.28 20 24 C17.36 24 14.72 24 12 24 C12 25.32 12 26.64 12 28 C9.36 28 6.72 28 4 28 C4 24.04 4 20.08 4 16 C5.32 16 6.64 16 8 16 C8 14.68 8 13.36 8 12 C6.68 12 5.36 12 4 12 C4 9.36 4 6.72 4 4 C2.68 4 1.36 4 0 4 C0 2.68 0 1.36 0 0 Z " fill="#C8A7AA" transform="translate(232,136)"/>
<path d="M0 0 C2.64 0 5.28 0 8 0 C8 1.32 8 2.64 8 4 C10.64 4 13.28 4 16 4 C16 6.64 16 9.28 16 12 C17.32 12 18.64 12 20 12 C20 13.32 20 14.64 20 16 C13.4 16 6.8 16 0 16 C0 14.68 0 13.36 0 12 C-1.32 12 -2.64 12 -4 12 C-4 9.36 -4 6.72 -4 4 C-2.68 4 -1.36 4 0 4 C0 2.68 0 1.36 0 0 Z " fill="#070000" transform="translate(132,76)"/>
<path d="M0 0 C3.96 0 7.92 0 12 0 C12 3.96 12 7.92 12 12 C13.32 12 14.64 12 16 12 C16 15.96 16 19.92 16 24 C13.36 24 10.72 24 8 24 C8 21.36 8 18.72 8 16 C6.68 16 5.36 16 4 16 C4 14.68 4 13.36 4 12 C2.68 12 1.36 12 0 12 C0 10.68 0 9.36 0 8 C-1.32 8 -2.64 8 -4 8 C-4 6.68 -4 5.36 -4 4 C-2.68 4 -1.36 4 0 4 C0 2.68 0 1.36 0 0 Z " fill="#F86E04" transform="translate(168,60)"/>
<path d="M0 0 C1.32 0 2.64 0 4 0 C4 1.32 4 2.64 4 4 C5.32 4 6.64 4 8 4 C8 7.96 8 11.92 8 16 C6.68 16 5.36 16 4 16 C4 16.99 4 17.98 4 19 C2.68 19 1.36 19 0 19 C0 21.97 0 24.94 0 28 C-2.64 28 -5.28 28 -8 28 C-8 29.32 -8 30.64 -8 32 C-9.32 32 -10.64 32 -12 32 C-12 28.04 -12 24.08 -12 20 C-10.68 20 -9.36 20 -8 20 C-8 18.68 -8 17.36 -8 16 C-5.36 16 -2.72 16 0 16 C0 10.72 0 5.44 0 0 Z " fill="#D4ACAF" transform="translate(28,148)"/>
<path d="M0 0 C1.32 0 2.64 0 4 0 C4 1.32 4 2.64 4 4 C5.32 4 6.64 4 8 4 C8 5.32 8 6.64 8 8 C6.68 8 5.36 8 4 8 C4 9.32 4 10.64 4 12 C5.32 12 6.64 12 8 12 C8 13.32 8 14.64 8 16 C9.32 16 10.64 16 12 16 C12 17.32 12 18.64 12 20 C10.68 20 9.36 20 8 20 C8 22.64 8 25.28 8 28 C6.68 28 5.36 28 4 28 C4 26.68 4 25.36 4 24 C2.68 24 1.36 24 0 24 C0 20.04 0 16.08 0 12 C-2.64 12 -5.28 12 -8 12 C-8 9.36 -8 6.72 -8 4 C-5.36 4 -2.72 4 0 4 C0 2.68 0 1.36 0 0 Z " fill="#FE2200" transform="translate(240,120)"/>
<path d="M0 0 C1.32 0 2.64 0 4 0 C4 1.32 4 2.64 4 4 C6.64 4 9.28 4 12 4 C12 5.32 12 6.64 12 8 C13.32 8 14.64 8 16 8 C16 10.64 16 13.28 16 16 C14.68 16 13.36 16 12 16 C12 17.32 12 18.64 12 20 C10.68 20 9.36 20 8 20 C8 21.32 8 22.64 8 24 C5.36 24 2.72 24 0 24 C0 22.68 0 21.36 0 20 C1.32 20 2.64 20 4 20 C4 16.04 4 12.08 4 8 C2.68 8 1.36 8 0 8 C0 9.32 0 10.64 0 12 C-1.32 12 -2.64 12 -4 12 C-4 9.36 -4 6.72 -4 4 C-2.68 4 -1.36 4 0 4 C0 2.68 0 1.36 0 0 Z " fill="#ECECEC" transform="translate(76,76)"/>
<path d="M0 0 C5.28 0 10.56 0 16 0 C16 2.64 16 5.28 16 8 C10.72 8 5.44 8 0 8 C0 9.32 0 10.64 0 12 C-1.32 12 -2.64 12 -4 12 C-4 13.32 -4 14.64 -4 16 C-6.64 16 -9.28 16 -12 16 C-12 14.68 -12 13.36 -12 12 C-10.68 12 -9.36 12 -8 12 C-8 10.68 -8 9.36 -8 8 C-6.68 8 -5.36 8 -4 8 C-4 6.68 -4 5.36 -4 4 C-2.68 4 -1.36 4 0 4 C0 2.68 0 1.36 0 0 Z " fill="#A52D2D" transform="translate(40,132)"/>
<path d="M0 0 C5.28 0 10.56 0 16 0 C16 1.32 16 2.64 16 4 C13.36 4 10.72 4 8 4 C8 5.32 8 6.64 8 8 C6.68 8 5.36 8 4 8 C4 10.64 4 13.28 4 16 C5.32 16 6.64 16 8 16 C8 17.32 8 18.64 8 20 C5.36 20 2.72 20 0 20 C0 18.68 0 17.36 0 16 C-1.32 16 -2.64 16 -4 16 C-4 12.04 -4 8.08 -4 4 C-2.68 4 -1.36 4 0 4 C0 2.68 0 1.36 0 0 Z " fill="#FFFFFF" transform="translate(124,72)"/>
<path d="M0 0 C1.32 0 2.64 0 4 0 C4 1.32 4 2.64 4 4 C5.32 4 6.64 4 8 4 C8 6.64 8 9.28 8 12 C9.32 12 10.64 12 12 12 C12 13.32 12 14.64 12 16 C10.68 16 9.36 16 8 16 C8 17.32 8 18.64 8 20 C4.04 20 0.08 20 -4 20 C-4 17.36 -4 14.72 -4 12 C-1.36 12 1.28 12 4 12 C4 10.68 4 9.36 4 8 C1.36 8 -1.28 8 -4 8 C-4 6.68 -4 5.36 -4 4 C-2.68 4 -1.36 4 0 4 C0 2.68 0 1.36 0 0 Z " fill="#FFFFFF" transform="translate(228,136)"/>
<path d="M0 0 C1.32 0 2.64 0 4 0 C4 11.88 4 23.76 4 36 C2.68 36 1.36 36 0 36 C0 38.64 0 41.28 0 44 C-1.32 44 -2.64 44 -4 44 C-4 40.04 -4 36.08 -4 32 C-2.68 32 -1.36 32 0 32 C0 21.44 0 10.88 0 0 Z " fill="#701717" transform="translate(200,136)"/>
<path d="M0 0 C1.32 0 2.64 0 4 0 C4 3.96 4 7.92 4 12 C5.32 12 6.64 12 8 12 C8 14.64 8 17.28 8 20 C6.68 20 5.36 20 4 20 C4 22.64 4 25.28 4 28 C2.68 28 1.36 28 0 28 C0 26.68 0 25.36 0 24 C-1.32 24 -2.64 24 -4 24 C-4 22.68 -4 21.36 -4 20 C-5.32 20 -6.64 20 -8 20 C-8 18.68 -8 17.36 -8 16 C-5.36 16 -2.72 16 0 16 C0 10.72 0 5.44 0 0 Z " fill="#AC3232" transform="translate(80,112)"/>
<path d="M0 0 C2.64 0 5.28 0 8 0 C8 1.32 8 2.64 8 4 C9.32 4 10.64 4 12 4 C12 5.32 12 6.64 12 8 C10.68 8 9.36 8 8 8 C8 10.64 8 13.28 8 16 C6.68 16 5.36 16 4 16 C4 14.68 4 13.36 4 12 C2.68 12 1.36 12 0 12 C0 15.96 0 19.92 0 24 C-1.32 24 -2.64 24 -4 24 C-4 18.72 -4 13.44 -4 8 C-2.68 8 -1.36 8 0 8 C0 5.36 0 2.72 0 0 Z " fill="#FE1D00" transform="translate(76,40)"/>
<path d="M0 0 C3.96 0 7.92 0 12 0 C12 1.32 12 2.64 12 4 C13.32 4 14.64 4 16 4 C16 7.96 16 11.92 16 16 C13.36 16 10.72 16 8 16 C8 14.68 8 13.36 8 12 C9.32 12 10.64 12 12 12 C12 10.68 12 9.36 12 8 C10.68 8 9.36 8 8 8 C8 6.68 8 5.36 8 4 C6.68 4 5.36 4 4 4 C4 5.32 4 6.64 4 8 C0.04 8 -3.92 8 -8 8 C-8 6.68 -8 5.36 -8 4 C-5.36 4 -2.72 4 0 4 C0 2.68 0 1.36 0 0 Z " fill="#696A6A" transform="translate(84,232)"/>
<path d="M0 0 C2.64 0 5.28 0 8 0 C8 2.64 8 5.28 8 8 C10.64 8 13.28 8 16 8 C16 9.32 16 10.64 16 12 C14.68 12 13.36 12 12 12 C12 13.32 12 14.64 12 16 C10.68 16 9.36 16 8 16 C8 14.68 8 13.36 8 12 C5.36 12 2.72 12 0 12 C0 10.68 0 9.36 0 8 C-1.32 8 -2.64 8 -4 8 C-4 6.68 -4 5.36 -4 4 C-2.68 4 -1.36 4 0 4 C0 2.68 0 1.36 0 0 Z " fill="#79767B" transform="translate(164,232)"/>
<path d="M0 0 C13.2 0 26.4 0 40 0 C40 1.32 40 2.64 40 4 C26.8 4 13.6 4 0 4 C0 2.68 0 1.36 0 0 Z " fill="#740D0D" transform="translate(112,220)"/>
<path d="M0 0 C7.92 0 15.84 0 24 0 C24 1.32 24 2.64 24 4 C20.04 4 16.08 4 12 4 C12 5.32 12 6.64 12 8 C10.68 8 9.36 8 8 8 C8 9.32 8 10.64 8 12 C6.68 12 5.36 12 4 12 C4 10.68 4 9.36 4 8 C2.68 8 1.36 8 0 8 C0 5.36 0 2.72 0 0 Z " fill="#FD2F01" transform="translate(204,136)"/>
<path d="M0 0 C1.32 0 2.64 0 4 0 C4 5.28 4 10.56 4 16 C5.32 16 6.64 16 8 16 C8 17.32 8 18.64 8 20 C9.32 20 10.64 20 12 20 C12 21.32 12 22.64 12 24 C8.04 24 4.08 24 0 24 C0 16.08 0 8.16 0 0 Z " fill="#810F0F" transform="translate(84,208)"/>
<path d="M0 0 C1.32 0 2.64 0 4 0 C4 7.92 4 15.84 4 24 C6.64 24 9.28 24 12 24 C12 25.32 12 26.64 12 28 C8.04 28 4.08 28 0 28 C0 18.76 0 9.52 0 0 Z " fill="#6E0C0C" transform="translate(176,84)"/>
<path d="M0 0 C1.32 0 2.64 0 4 0 C4 2.64 4 5.28 4 8 C5.32 8 6.64 8 8 8 C8 6.68 8 5.36 8 4 C9.32 4 10.64 4 12 4 C12 7.96 12 11.92 12 16 C8.04 16 4.08 16 0 16 C0 10.72 0 5.44 0 0 Z " fill="#000000" transform="translate(68,80)"/>
<path d="M0 0 C1.32 0 2.64 0 4 0 C4 1.32 4 2.64 4 4 C5.32 4 6.64 4 8 4 C8 9.28 8 14.56 8 20 C5.36 20 2.72 20 0 20 C0 13.4 0 6.8 0 0 Z " fill="#F86E04" transform="translate(76,52)"/>
<path d="M0 0 C2.64 0 5.28 0 8 0 C8 1.32 8 2.64 8 4 C6.68 4 5.36 4 4 4 C4 5.32 4 6.64 4 8 C2.68 8 1.36 8 0 8 C0 9.32 0 10.64 0 12 C-5.28 12 -10.56 12 -16 12 C-16 10.68 -16 9.36 -16 8 C-13.36 8 -10.72 8 -8 8 C-8 6.68 -8 5.36 -8 4 C-5.36 4 -2.72 4 0 4 C0 2.68 0 1.36 0 0 Z " fill="#FBF34C" transform="translate(116,32)"/>
<path d="M0 0 C2.64 0 5.28 0 8 0 C8 5.28 8 10.56 8 16 C6.68 16 5.36 16 4 16 C4 14.68 4 13.36 4 12 C2.68 12 1.36 12 0 12 C0 10.68 0 9.36 0 8 C-1.32 8 -2.64 8 -4 8 C-4 6.68 -4 5.36 -4 4 C-2.68 4 -1.36 4 0 4 C0 2.68 0 1.36 0 0 Z " fill="#F88F10" transform="translate(168,60)"/>
<path d="M0 0 C2.64 0 5.28 0 8 0 C8 3.96 8 7.92 8 12 C5.36 12 2.72 12 0 12 C0 10.68 0 9.36 0 8 C-1.32 8 -2.64 8 -4 8 C-4 6.68 -4 5.36 -4 4 C-2.68 4 -1.36 4 0 4 C0 2.68 0 1.36 0 0 Z " fill="#F86E04" transform="translate(168,48)"/>
<path d="M0 0 C1.32 0 2.64 0 4 0 C4 1.32 4 2.64 4 4 C5.32 4 6.64 4 8 4 C8 5.32 8 6.64 8 8 C6.68 8 5.36 8 4 8 C4 9.32 4 10.64 4 12 C1.36 12 -1.28 12 -4 12 C-4 9.36 -4 6.72 -4 4 C-2.68 4 -1.36 4 0 4 C0 2.68 0 1.36 0 0 Z " fill="#FBF236" transform="translate(88,236)"/>
<path d="M0 0 C7.92 0 15.84 0 24 0 C24 1.32 24 2.64 24 4 C16.08 4 8.16 4 0 4 C0 2.68 0 1.36 0 0 Z " fill="#000000" transform="translate(112,140)"/>
<path d="M0 0 C2.64 0 5.28 0 8 0 C8 2.64 8 5.28 8 8 C2.72 8 -2.56 8 -8 8 C-8 6.68 -8 5.36 -8 4 C-5.36 4 -2.72 4 0 4 C0 2.68 0 1.36 0 0 Z " fill="#810F0F" transform="translate(144,132)"/>
<path d="M0 0 C6.6 0 13.2 0 20 0 C20 1.32 20 2.64 20 4 C13.4 4 6.8 4 0 4 C0 2.68 0 1.36 0 0 Z " fill="#696A6A" transform="translate(160,252)"/>
<path d="M0 0 C1.32 0 2.64 0 4 0 C4 1.32 4 2.64 4 4 C5.32 4 6.64 4 8 4 C8 6.64 8 9.28 8 12 C5.36 12 2.72 12 0 12 C0 8.04 0 4.08 0 0 Z " fill="#FBF236" transform="translate(160,240)"/>
<path d="M0 0 C2.64 0 5.28 0 8 0 C8 3.96 8 7.92 8 12 C5.36 12 2.72 12 0 12 C0 10.68 0 9.36 0 8 C1.32 8 2.64 8 4 8 C4 6.68 4 5.36 4 4 C2.68 4 1.36 4 0 4 C0 2.68 0 1.36 0 0 Z " fill="#745347" transform="translate(92,236)"/>
<path d="M0 0 C2.64 0 5.28 0 8 0 C8 2.64 8 5.28 8 8 C4.04 8 0.08 8 -4 8 C-4 6.68 -4 5.36 -4 4 C-2.68 4 -1.36 4 0 4 C0 2.68 0 1.36 0 0 Z " fill="#3B8B61" transform="translate(164,232)"/>
<path d="M0 0 C1.32 0 2.64 0 4 0 C4 1.32 4 2.64 4 4 C6.64 4 9.28 4 12 4 C12 5.32 12 6.64 12 8 C6.72 8 1.44 8 -4 8 C-4 6.68 -4 5.36 -4 4 C-2.68 4 -1.36 4 0 4 C0 2.68 0 1.36 0 0 Z " fill="#810F0F" transform="translate(180,196)"/>
<path d="M0 0 C1.32 0 2.64 0 4 0 C4 2.64 4 5.28 4 8 C2.68 8 1.36 8 0 8 C0 10.64 0 13.28 0 16 C-1.32 16 -2.64 16 -4 16 C-4 12.04 -4 8.08 -4 4 C-2.68 4 -1.36 4 0 4 C0 2.68 0 1.36 0 0 Z " fill="#CCCCCC" transform="translate(20,164)"/>
<path d="M0 0 C2.64 0 5.28 0 8 0 C8 1.32 8 2.64 8 4 C6.68 4 5.36 4 4 4 C4 5.32 4 6.64 4 8 C0.04 8 -3.92 8 -8 8 C-8 6.68 -8 5.36 -8 4 C-5.36 4 -2.72 4 0 4 C0 2.68 0 1.36 0 0 Z " fill="#AA0E00" transform="translate(244,160)"/>
<path d="M0 0 C1.32 0 2.64 0 4 0 C4 2.64 4 5.28 4 8 C5.32 8 6.64 8 8 8 C8 9.32 8 10.64 8 12 C6.68 12 5.36 12 4 12 C4 13.32 4 14.64 4 16 C2.68 16 1.36 16 0 16 C0 10.72 0 5.44 0 0 Z " fill="#810F0F" transform="translate(164,124)"/>
<path d="M0 0 C6.6 0 13.2 0 20 0 C20 1.32 20 2.64 20 4 C13.4 4 6.8 4 0 4 C0 2.68 0 1.36 0 0 Z " fill="#000000" transform="translate(116,40)"/>
<path d="M0 0 C5.28 0 10.56 0 16 0 C16 1.32 16 2.64 16 4 C10.72 4 5.44 4 0 4 C0 2.68 0 1.36 0 0 Z " fill="#4E4F4F" transform="translate(76,248)"/>
<path d="M0 0 C1.32 0 2.64 0 4 0 C4 1.32 4 2.64 4 4 C6.64 4 9.28 4 12 4 C12 5.32 12 6.64 12 8 C8.04 8 4.08 8 0 8 C0 5.36 0 2.72 0 0 Z " fill="#DF1403" transform="translate(208,180)"/>
<path d="M0 0 C3.96 0 7.92 0 12 0 C12 1.32 12 2.64 12 4 C9.36 4 6.72 4 4 4 C4 5.32 4 6.64 4 8 C2.68 8 1.36 8 0 8 C0 5.36 0 2.72 0 0 Z " fill="#3F3F3F" transform="translate(8,164)"/>
<path d="M0 0 C1.32 0 2.64 0 4 0 C4 3.96 4 7.92 4 12 C2.68 12 1.36 12 0 12 C0 10.68 0 9.36 0 8 C-1.32 8 -2.64 8 -4 8 C-4 6.68 -4 5.36 -4 4 C-2.68 4 -1.36 4 0 4 C0 2.68 0 1.36 0 0 Z " fill="#FFFFFF" transform="translate(216,160)"/>
<path d="M0 0 C2.64 0 5.28 0 8 0 C8 1.32 8 2.64 8 4 C6.68 4 5.36 4 4 4 C4 5.32 4 6.64 4 8 C1.36 8 -1.28 8 -4 8 C-4 6.68 -4 5.36 -4 4 C-2.68 4 -1.36 4 0 4 C0 2.68 0 1.36 0 0 Z " fill="#F03445" transform="translate(144,140)"/>
<path d="M0 0 C1.32 0 2.64 0 4 0 C4 1.32 4 2.64 4 4 C6.64 4 9.28 4 12 4 C12 5.32 12 6.64 12 8 C8.04 8 4.08 8 0 8 C0 5.36 0 2.72 0 0 Z " fill="#5A2222" transform="translate(228,128)"/>
<path d="M0 0 C1.32 0 2.64 0 4 0 C4 2.64 4 5.28 4 8 C2.68 8 1.36 8 0 8 C0 9.32 0 10.64 0 12 C-1.32 12 -2.64 12 -4 12 C-4 9.36 -4 6.72 -4 4 C-2.68 4 -1.36 4 0 4 C0 2.68 0 1.36 0 0 Z " fill="#600B0B" transform="translate(180,116)"/>
<path d="M0 0 C3.96 0 7.92 0 12 0 C12 2.64 12 5.28 12 8 C10.68 8 9.36 8 8 8 C8 6.68 8 5.36 8 4 C5.36 4 2.72 4 0 4 C0 2.68 0 1.36 0 0 Z " fill="#600B0B" transform="translate(212,112)"/>
<path d="M0 0 C5.28 0 10.56 0 16 0 C16 1.32 16 2.64 16 4 C10.72 4 5.44 4 0 4 C0 2.68 0 1.36 0 0 Z " fill="#8F563B" transform="translate(104,112)"/>
<path d="M0 0 C5.28 0 10.56 0 16 0 C16 1.32 16 2.64 16 4 C10.72 4 5.44 4 0 4 C0 2.68 0 1.36 0 0 Z " fill="#600B0B" transform="translate(56,108)"/>
<path d="M0 0 C5.28 0 10.56 0 16 0 C16 1.32 16 2.64 16 4 C10.72 4 5.44 4 0 4 C0 2.68 0 1.36 0 0 Z " fill="#8F563B" transform="translate(132,100)"/>
<path d="M0 0 C1.32 0 2.64 0 4 0 C4 1.32 4 2.64 4 4 C5.32 4 6.64 4 8 4 C8 5.32 8 6.64 8 8 C6.68 8 5.36 8 4 8 C4 9.32 4 10.64 4 12 C2.68 12 1.36 12 0 12 C0 8.04 0 4.08 0 0 Z " fill="#8C3335" transform="translate(72,96)"/>
<path d="M0 0 C1.32 0 2.64 0 4 0 C4 3.96 4 7.92 4 12 C1.36 12 -1.28 12 -4 12 C-4 10.68 -4 9.36 -4 8 C-2.68 8 -1.36 8 0 8 C0 5.36 0 2.72 0 0 Z " fill="#200303" transform="translate(92,84)"/>
<path d="M0 0 C1.32 0 2.64 0 4 0 C4 3.96 4 7.92 4 12 C2.68 12 1.36 12 0 12 C0 10.68 0 9.36 0 8 C-1.32 8 -2.64 8 -4 8 C-4 6.68 -4 5.36 -4 4 C-2.68 4 -1.36 4 0 4 C0 2.68 0 1.36 0 0 Z " fill="#FDF89A" transform="translate(168,60)"/>
<path d="M0 0 C5.28 0 10.56 0 16 0 C16 1.32 16 2.64 16 4 C10.72 4 5.44 4 0 4 C0 2.68 0 1.36 0 0 Z " fill="#600B0B" transform="translate(100,44)"/>
<path d="M0 0 C3.96 0 7.92 0 12 0 C12 1.32 12 2.64 12 4 C8.04 4 4.08 4 0 4 C0 2.68 0 1.36 0 0 Z " fill="#37946E" transform="translate(84,232)"/>
<path d="M0 0 C1.32 0 2.64 0 4 0 C4 3.96 4 7.92 4 12 C2.68 12 1.36 12 0 12 C0 8.04 0 4.08 0 0 Z " fill="#2B0505" transform="translate(160,224)"/>
<path d="M0 0 C3.96 0 7.92 0 12 0 C12 1.32 12 2.64 12 4 C8.04 4 4.08 4 0 4 C0 2.68 0 1.36 0 0 Z " fill="#000000" transform="translate(84,228)"/>
<path d="M0 0 C1.32 0 2.64 0 4 0 C4 3.96 4 7.92 4 12 C2.68 12 1.36 12 0 12 C0 8.04 0 4.08 0 0 Z " fill="#560A0A" transform="translate(172,212)"/>
<path d="M0 0 C3.96 0 7.92 0 12 0 C12 1.32 12 2.64 12 4 C8.04 4 4.08 4 0 4 C0 2.68 0 1.36 0 0 Z " fill="#696A6A" transform="translate(116,184)"/>
<path d="M0 0 C1.32 0 2.64 0 4 0 C4 3.96 4 7.92 4 12 C2.68 12 1.36 12 0 12 C0 8.04 0 4.08 0 0 Z " fill="#560A0A" transform="translate(196,168)"/>
<path d="M0 0 C1.32 0 2.64 0 4 0 C4 3.96 4 7.92 4 12 C2.68 12 1.36 12 0 12 C0 8.04 0 4.08 0 0 Z " fill="#560A0A" transform="translate(64,164)"/>
<path d="M0 0 C2.64 0 5.28 0 8 0 C8 2.64 8 5.28 8 8 C6.68 8 5.36 8 4 8 C4 6.68 4 5.36 4 4 C2.68 4 1.36 4 0 4 C0 2.68 0 1.36 0 0 Z " fill="#EFD2D5" transform="translate(244,152)"/>
<path d="M0 0 C1.32 0 2.64 0 4 0 C4 3.96 4 7.92 4 12 C2.68 12 1.36 12 0 12 C0 8.04 0 4.08 0 0 Z " fill="#560A0A" transform="translate(60,152)"/>
<path d="M0 0 C1.32 0 2.64 0 4 0 C4 2.64 4 5.28 4 8 C1.36 8 -1.28 8 -4 8 C-4 6.68 -4 5.36 -4 4 C-2.68 4 -1.36 4 0 4 C0 2.68 0 1.36 0 0 Z " fill="#2B0505" transform="translate(156,136)"/>
<path d="M0 0 C1.32 0 2.64 0 4 0 C4 3.96 4 7.92 4 12 C2.68 12 1.36 12 0 12 C0 8.04 0 4.08 0 0 Z " fill="#560A0A" transform="translate(56,140)"/>
<path d="M0 0 C3.96 0 7.92 0 12 0 C12 1.32 12 2.64 12 4 C8.04 4 4.08 4 0 4 C0 2.68 0 1.36 0 0 Z " fill="#D51305" transform="translate(216,136)"/>
<path d="M0 0 C1.32 0 2.64 0 4 0 C4 3.96 4 7.92 4 12 C2.68 12 1.36 12 0 12 C0 8.04 0 4.08 0 0 Z " fill="#A61B21" transform="translate(152,128)"/>
<path d="M0 0 C3.96 0 7.92 0 12 0 C12 1.32 12 2.64 12 4 C8.04 4 4.08 4 0 4 C0 2.68 0 1.36 0 0 Z " fill="#810F0F" transform="translate(108,124)"/>
<path d="M0 0 C3.96 0 7.92 0 12 0 C12 1.32 12 2.64 12 4 C8.04 4 4.08 4 0 4 C0 2.68 0 1.36 0 0 Z " fill="#000000" transform="translate(200,108)"/>
<path d="M0 0 C3.96 0 7.92 0 12 0 C12 1.32 12 2.64 12 4 C8.04 4 4.08 4 0 4 C0 2.68 0 1.36 0 0 Z " fill="#9D2626" transform="translate(188,108)"/>
<path d="M0 0 C1.32 0 2.64 0 4 0 C4 3.96 4 7.92 4 12 C2.68 12 1.36 12 0 12 C0 8.04 0 4.08 0 0 Z " fill="#FF1600" transform="translate(180,72)"/>
<path d="M0 0 C1.32 0 2.64 0 4 0 C4 3.96 4 7.92 4 12 C2.68 12 1.36 12 0 12 C0 8.04 0 4.08 0 0 Z " fill="#FF1600" transform="translate(176,60)"/>
<path d="M0 0 C2.64 0 5.28 0 8 0 C8 1.32 8 2.64 8 4 C6.68 4 5.36 4 4 4 C4 5.32 4 6.64 4 8 C2.68 8 1.36 8 0 8 C0 5.36 0 2.72 0 0 Z " fill="#FCF679" transform="translate(84,56)"/>
<path d="M0 0 C3.96 0 7.92 0 12 0 C12 1.32 12 2.64 12 4 C8.04 4 4.08 4 0 4 C0 2.68 0 1.36 0 0 Z " fill="#560A0A" transform="translate(136,44)"/>
<path d="M0 0 C1.32 0 2.64 0 4 0 C4 2.64 4 5.28 4 8 C1.36 8 -1.28 8 -4 8 C-4 6.68 -4 5.36 -4 4 C-2.68 4 -1.36 4 0 4 C0 2.68 0 1.36 0 0 Z " fill="#FFFFFF" transform="translate(124,32)"/>
<path d="M0 0 C2.64 0 5.28 0 8 0 C8 1.32 8 2.64 8 4 C5.36 4 2.72 4 0 4 C0 2.68 0 1.36 0 0 Z " fill="#000000" transform="translate(92,244)"/>
<path d="M0 0 C1.32 0 2.64 0 4 0 C4 2.64 4 5.28 4 8 C2.68 8 1.36 8 0 8 C0 5.36 0 2.72 0 0 Z " fill="#000000" transform="translate(72,240)"/>
<path d="M0 0 C2.64 0 5.28 0 8 0 C8 1.32 8 2.64 8 4 C5.36 4 2.72 4 0 4 C0 2.68 0 1.36 0 0 Z " fill="#400707" transform="translate(104,216)"/>
<path d="M0 0 C2.64 0 5.28 0 8 0 C8 1.32 8 2.64 8 4 C5.36 4 2.72 4 0 4 C0 2.68 0 1.36 0 0 Z " fill="#82464B" transform="translate(84,204)"/>
<path d="M0 0 C2.64 0 5.28 0 8 0 C8 1.32 8 2.64 8 4 C5.36 4 2.72 4 0 4 C0 2.68 0 1.36 0 0 Z " fill="#AC3232" transform="translate(184,196)"/>
<path d="M0 0 C1.32 0 2.64 0 4 0 C4 2.64 4 5.28 4 8 C2.68 8 1.36 8 0 8 C0 5.36 0 2.72 0 0 Z " fill="#810F0F" transform="translate(76,188)"/>
<path d="M0 0 C2.64 0 5.28 0 8 0 C8 1.32 8 2.64 8 4 C5.36 4 2.72 4 0 4 C0 2.68 0 1.36 0 0 Z " fill="#FF1600" transform="translate(220,180)"/>
<path d="M0 0 C1.32 0 2.64 0 4 0 C4 2.64 4 5.28 4 8 C2.68 8 1.36 8 0 8 C0 5.36 0 2.72 0 0 Z " fill="#400707" transform="translate(68,176)"/>
<path d="M0 0 C2.64 0 5.28 0 8 0 C8 1.32 8 2.64 8 4 C5.36 4 2.72 4 0 4 C0 2.68 0 1.36 0 0 Z " fill="#FF1600" transform="translate(236,168)"/>
<path d="M0 0 C2.64 0 5.28 0 8 0 C8 1.32 8 2.64 8 4 C5.36 4 2.72 4 0 4 C0 2.68 0 1.36 0 0 Z " fill="#343535" transform="translate(236,164)"/>
<path d="M0 0 C2.64 0 5.28 0 8 0 C8 1.32 8 2.64 8 4 C5.36 4 2.72 4 0 4 C0 2.68 0 1.36 0 0 Z " fill="#8A4E4E" transform="translate(104,164)"/>
<path d="M0 0 C1.32 0 2.64 0 4 0 C4 2.64 4 5.28 4 8 C2.68 8 1.36 8 0 8 C0 5.36 0 2.72 0 0 Z " fill="#FF1600" transform="translate(232,160)"/>
<path d="M0 0 C1.32 0 2.64 0 4 0 C4 2.64 4 5.28 4 8 C2.68 8 1.36 8 0 8 C0 5.36 0 2.72 0 0 Z " fill="#753C3C" transform="translate(156,156)"/>
<path d="M0 0 C1.32 0 2.64 0 4 0 C4 2.64 4 5.28 4 8 C2.68 8 1.36 8 0 8 C0 5.36 0 2.72 0 0 Z " fill="#FFFFFF" transform="translate(236,156)"/>
<path d="M0 0 C2.64 0 5.28 0 8 0 C8 1.32 8 2.64 8 4 C5.36 4 2.72 4 0 4 C0 2.68 0 1.36 0 0 Z " fill="#696A6A" transform="translate(228,156)"/>
<path d="M0 0 C1.32 0 2.64 0 4 0 C4 2.64 4 5.28 4 8 C2.68 8 1.36 8 0 8 C0 5.36 0 2.72 0 0 Z " fill="#000000" transform="translate(12,152)"/>
<path d="M0 0 C2.64 0 5.28 0 8 0 C8 1.32 8 2.64 8 4 C5.36 4 2.72 4 0 4 C0 2.68 0 1.36 0 0 Z " fill="#810F0F" transform="translate(140,148)"/>
<path d="M0 0 C2.64 0 5.28 0 8 0 C8 1.32 8 2.64 8 4 C5.36 4 2.72 4 0 4 C0 2.68 0 1.36 0 0 Z " fill="#343535" transform="translate(224,144)"/>
<path d="M0 0 C2.64 0 5.28 0 8 0 C8 1.32 8 2.64 8 4 C5.36 4 2.72 4 0 4 C0 2.68 0 1.36 0 0 Z " fill="#745E60" transform="translate(28,144)"/>
<path d="M0 0 C2.64 0 5.28 0 8 0 C8 1.32 8 2.64 8 4 C5.36 4 2.72 4 0 4 C0 2.68 0 1.36 0 0 Z " fill="#400707" transform="translate(32,140)"/>
<path d="M0 0 C1.32 0 2.64 0 4 0 C4 2.64 4 5.28 4 8 C2.68 8 1.36 8 0 8 C0 5.36 0 2.72 0 0 Z " fill="#000000" transform="translate(20,140)"/>
<path d="M0 0 C1.32 0 2.64 0 4 0 C4 2.64 4 5.28 4 8 C2.68 8 1.36 8 0 8 C0 5.36 0 2.72 0 0 Z " fill="#F86E04" transform="translate(240,136)"/>
<path d="M0 0 C2.64 0 5.28 0 8 0 C8 1.32 8 2.64 8 4 C5.36 4 2.72 4 0 4 C0 2.68 0 1.36 0 0 Z " fill="#000000" transform="translate(136,136)"/>
<path d="M0 0 C2.64 0 5.28 0 8 0 C8 1.32 8 2.64 8 4 C5.36 4 2.72 4 0 4 C0 2.68 0 1.36 0 0 Z " fill="#000000" transform="translate(104,136)"/>
<path d="M0 0 C2.64 0 5.28 0 8 0 C8 1.32 8 2.64 8 4 C5.36 4 2.72 4 0 4 C0 2.68 0 1.36 0 0 Z " fill="#810F0F" transform="translate(48,136)"/>
<path d="M0 0 C2.64 0 5.28 0 8 0 C8 1.32 8 2.64 8 4 C5.36 4 2.72 4 0 4 C0 2.68 0 1.36 0 0 Z " fill="#000000" transform="translate(144,132)"/>
<path d="M0 0 C1.32 0 2.64 0 4 0 C4 2.64 4 5.28 4 8 C2.68 8 1.36 8 0 8 C0 5.36 0 2.72 0 0 Z " fill="#400707" transform="translate(224,120)"/>
<path d="M0 0 C1.32 0 2.64 0 4 0 C4 2.64 4 5.28 4 8 C2.68 8 1.36 8 0 8 C0 5.36 0 2.72 0 0 Z " fill="#400707" transform="translate(160,116)"/>
<path d="M0 0 C2.64 0 5.28 0 8 0 C8 1.32 8 2.64 8 4 C5.36 4 2.72 4 0 4 C0 2.68 0 1.36 0 0 Z " fill="#810F0F" transform="translate(40,116)"/>
<path d="M0 0 C2.64 0 5.28 0 8 0 C8 1.32 8 2.64 8 4 C5.36 4 2.72 4 0 4 C0 2.68 0 1.36 0 0 Z " fill="#810F0F" transform="translate(48,112)"/>
<path d="M0 0 C2.64 0 5.28 0 8 0 C8 1.32 8 2.64 8 4 C5.36 4 2.72 4 0 4 C0 2.68 0 1.36 0 0 Z " fill="#000000" transform="translate(180,108)"/>
<path d="M0 0 C2.64 0 5.28 0 8 0 C8 1.32 8 2.64 8 4 C5.36 4 2.72 4 0 4 C0 2.68 0 1.36 0 0 Z " fill="#8F563B" transform="translate(96,108)"/>
<path d="M0 0 C2.64 0 5.28 0 8 0 C8 1.32 8 2.64 8 4 C5.36 4 2.72 4 0 4 C0 2.68 0 1.36 0 0 Z " fill="#8F563B" transform="translate(124,104)"/>
<path d="M0 0 C2.64 0 5.28 0 8 0 C8 1.32 8 2.64 8 4 C5.36 4 2.72 4 0 4 C0 2.68 0 1.36 0 0 Z " fill="#CDD6DB" transform="translate(76,96)"/>
<path d="M0 0 C2.64 0 5.28 0 8 0 C8 1.32 8 2.64 8 4 C5.36 4 2.72 4 0 4 C0 2.68 0 1.36 0 0 Z " fill="#810F0F" transform="translate(152,92)"/>
<path d="M0 0 C2.64 0 5.28 0 8 0 C8 1.32 8 2.64 8 4 C5.36 4 2.72 4 0 4 C0 2.68 0 1.36 0 0 Z " fill="#9BADB7" transform="translate(124,92)"/>
<path d="M0 0 C1.32 0 2.64 0 4 0 C4 2.64 4 5.28 4 8 C2.68 8 1.36 8 0 8 C0 5.36 0 2.72 0 0 Z " fill="#400707" transform="translate(172,76)"/>
<path d="M0 0 C2.64 0 5.28 0 8 0 C8 1.32 8 2.64 8 4 C5.36 4 2.72 4 0 4 C0 2.68 0 1.36 0 0 Z " fill="#FFFFFF" transform="translate(140,76)"/>
<path d="M0 0 C2.64 0 5.28 0 8 0 C8 1.32 8 2.64 8 4 C5.36 4 2.72 4 0 4 C0 2.68 0 1.36 0 0 Z " fill="#82464B" transform="translate(80,76)"/>
<path d="M0 0 C1.32 0 2.64 0 4 0 C4 2.64 4 5.28 4 8 C2.68 8 1.36 8 0 8 C0 5.36 0 2.72 0 0 Z " fill="#400707" transform="translate(160,60)"/>
<path d="M0 0 C1.32 0 2.64 0 4 0 C4 2.64 4 5.28 4 8 C2.68 8 1.36 8 0 8 C0 5.36 0 2.72 0 0 Z " fill="#810F0F" transform="translate(84,64)"/>
<path d="M0 0 C1.32 0 2.64 0 4 0 C4 2.64 4 5.28 4 8 C2.68 8 1.36 8 0 8 C0 5.36 0 2.72 0 0 Z " fill="#FF1600" transform="translate(76,64)"/>
<path d="M0 0 C2.64 0 5.28 0 8 0 C8 1.32 8 2.64 8 4 C5.36 4 2.72 4 0 4 C0 2.68 0 1.36 0 0 Z " fill="#FDF89A" transform="translate(160,56)"/>
<path d="M0 0 C1.32 0 2.64 0 4 0 C4 2.64 4 5.28 4 8 C2.68 8 1.36 8 0 8 C0 5.36 0 2.72 0 0 Z " fill="#400707" transform="translate(156,52)"/>
<path d="M0 0 C1.32 0 2.64 0 4 0 C4 2.64 4 5.28 4 8 C2.68 8 1.36 8 0 8 C0 5.36 0 2.72 0 0 Z " fill="#FF1600" transform="translate(172,52)"/>
<path d="M0 0 C2.64 0 5.28 0 8 0 C8 1.32 8 2.64 8 4 C5.36 4 2.72 4 0 4 C0 2.68 0 1.36 0 0 Z " fill="#FDF89A" transform="translate(152,48)"/>
<path d="M0 0 C1.32 0 2.64 0 4 0 C4 2.64 4 5.28 4 8 C2.68 8 1.36 8 0 8 C0 5.36 0 2.72 0 0 Z " fill="#810F0F" transform="translate(96,48)"/>
<path d="M0 0 C2.64 0 5.28 0 8 0 C8 1.32 8 2.64 8 4 C5.36 4 2.72 4 0 4 C0 2.68 0 1.36 0 0 Z " fill="#FBF236" transform="translate(140,40)"/>
<path d="M0 0 C1.32 0 2.64 0 4 0 C4 2.64 4 5.28 4 8 C2.68 8 1.36 8 0 8 C0 5.36 0 2.72 0 0 Z " fill="#FF1600" transform="translate(88,36)"/>
<path d="M0 0 C1.32 0 2.64 0 4 0 C4 1.32 4 2.64 4 4 C2.68 4 1.36 4 0 4 C0 2.68 0 1.36 0 0 Z " fill="#FF1600" transform="translate(244,116)"/>
<path d="M0 0 C1.32 0 2.64 0 4 0 C4 1.32 4 2.64 4 4 C2.68 4 1.36 4 0 4 C0 2.68 0 1.36 0 0 Z " fill="#FF1600" transform="translate(232,116)"/>
<path d="M0 0 C1.32 0 2.64 0 4 0 C4 1.32 4 2.64 4 4 C2.68 4 1.36 4 0 4 C0 2.68 0 1.36 0 0 Z " fill="#FF1600" transform="translate(72,36)"/>
<path d="M0 0 C1.32 0 2.64 0 4 0 C4 1.32 4 2.64 4 4 C2.68 4 1.36 4 0 4 C0 2.68 0 1.36 0 0 Z " fill="#FF1600" transform="translate(84,24)"/>
<path d="M0 0 C1.32 0 2.64 0 4 0 C4 1.32 4 2.64 4 4 C2.68 4 1.36 4 0 4 C0 2.68 0 1.36 0 0 Z " fill="#FF1600" transform="translate(136,4)"/>
</svg>
