<svg version="1.1" id="Layer_1" xmlns="http://www.w3.org/2000/svg" xmlns:xlink="http://www.w3.org/1999/xlink" x="0px" y="0px"
	 width="100%" viewBox="0 0 389 118" enable-background="new 0 0 389 118" xml:space="preserve">
<path fill="#3C6CB8" opacity="1.000000" stroke="none" 
	d="
M29.000000,1.000000 
	C32.692909,1.000000 36.385818,1.000000 40.228592,1.257918 
	C40.992245,2.364396 41.606030,3.212956 42.359444,4.342560 
	C43.021729,4.727182 43.544384,4.830762 44.036640,4.966530 
	C44.006245,4.998719 44.051136,4.922683 43.880005,5.328979 
	C44.471638,13.451721 45.462063,21.153866 45.947922,28.887709 
	C46.851063,43.263702 47.413708,57.660915 48.262653,72.040756 
	C48.348076,73.487740 49.424980,74.876183 50.041752,76.291794 
	C50.648392,76.102074 51.255035,75.912354 51.861675,75.722626 
	C51.861675,72.144569 51.861675,68.566505 51.933849,64.595581 
	C52.269722,63.607487 52.687965,63.033810 52.774426,62.413864 
	C54.703129,48.583614 63.862720,40.227890 75.379272,34.561253 
	C81.164368,31.714739 88.142128,31.292150 94.588409,29.771530 
	C92.428368,21.178976 95.127388,15.268327 102.905869,13.108719 
	C112.635696,10.407341 122.303314,7.105148 132.230942,5.591276 
	C143.853119,3.819002 155.717850,3.728462 165.225922,13.434511 
	C165.957138,13.783607 166.510406,13.857128 167.036133,13.960218 
	C167.008606,13.989787 167.033310,13.912856 166.978760,14.252822 
	C167.311783,14.716939 167.699356,14.841090 168.050720,14.977282 
	C168.014496,14.989322 168.062057,14.929604 167.854614,15.269070 
	C170.694611,21.415545 173.850327,27.199694 171.865875,34.666325 
	C173.296692,33.769951 174.727493,32.873581 176.575623,31.985401 
	C184.749817,31.468603 191.985596,29.236164 198.869003,25.628021 
	C204.621124,22.612886 209.041916,23.319927 214.067093,27.525963 
	C214.891464,28.215958 216.017761,28.846172 217.052597,28.933395 
	C222.470001,29.390013 228.004532,29.127266 233.305084,30.133020 
	C240.149612,31.431736 246.555084,30.286169 253.260651,29.219999 
	C260.948883,27.997595 268.584045,29.027613 274.370544,35.627197 
	C277.201630,38.856106 280.301880,39.478069 284.434784,36.432999 
	C290.199982,32.185295 297.245544,30.143858 304.383759,31.163158 
	C310.711700,32.066750 316.773865,31.957653 323.075317,31.135328 
	C330.168396,30.209696 337.605896,31.289141 344.523163,29.788765 
	C357.024261,27.077257 366.547150,31.144796 374.856506,40.393501 
	C375.361298,40.767727 375.723358,40.871002 376.050781,40.977757 
	C376.016174,40.981236 376.016876,40.911663 376.016357,41.228397 
	C376.373596,41.689823 376.731323,41.834511 377.053986,41.980347 
	C377.018921,41.981495 377.022522,41.911411 377.003967,42.239227 
	C377.353058,42.701702 377.720764,42.836365 378.054077,42.978588 
	C378.019714,42.986153 378.054962,42.925243 377.884216,43.272655 
	C379.802246,48.285500 382.448700,52.788116 383.867798,57.649048 
	C387.188690,69.024681 386.623016,80.629555 384.450012,92.165680 
	C382.989807,99.917664 379.762878,102.577362 371.909637,102.771233 
	C365.937592,102.918655 359.964355,103.019829 353.661865,103.080185 
	C352.553619,102.627037 351.775177,102.235283 350.867432,101.519646 
	C349.361664,100.637932 347.919281,99.477036 346.619202,99.619011 
	C337.378204,100.628159 328.166321,101.903763 318.663269,102.974686 
	C317.368958,102.213112 316.356506,101.571342 315.154846,100.601471 
	C313.362579,100.127213 311.679718,99.596405 310.171875,99.909248 
	C306.139404,100.745888 302.215271,102.660706 298.187744,102.847755 
	C290.211578,103.218208 282.278931,102.026077 274.177460,102.548775 
	C260.651581,103.421455 247.027939,102.778320 233.136169,102.562546 
	C229.531494,101.832413 226.215622,100.767601 222.944336,100.890411 
	C210.407227,101.361061 197.876831,102.102394 185.358932,102.961311 
	C176.855972,103.544739 168.259552,100.938576 159.806458,103.976807 
	C157.376007,104.850357 154.606064,104.779358 151.648407,105.075241 
	C149.823029,104.009636 148.341049,103.010231 146.846558,101.645844 
	C146.038666,98.478416 144.373581,99.221657 142.216660,99.731209 
	C135.181030,101.393303 128.057388,102.682838 120.617065,104.058380 
	C115.749657,102.111946 114.632210,97.789558 113.135834,93.538834 
	C113.278114,91.756065 113.278114,90.274719 113.278114,89.421341 
	C107.043869,93.368324 100.914688,97.133118 94.948456,101.140518 
	C93.959732,101.804626 93.268318,103.488098 93.143387,104.769135 
	C92.247101,113.960060 89.303383,116.659271 80.055763,116.213173 
	C59.010387,115.197952 37.967823,114.124336 16.601528,112.934509 
	C14.521190,110.428162 11.580773,108.227905 11.220705,105.665115 
	C9.990868,96.911781 9.485892,88.040016 9.046885,79.196426 
	C8.515035,68.482544 8.416828,57.747715 7.958027,47.029358 
	C7.757836,42.352562 6.075807,38.428226 1.000000,37.000000 
	C1.000000,31.645071 1.000000,26.290140 1.360074,20.663799 
	C3.298646,14.702953 7.123449,11.234720 12.517545,9.147372 
	C17.496845,7.220535 22.409302,5.114875 27.298456,2.967872 
	C28.015432,2.653024 28.440088,1.672513 29.000000,1.000000 
M243.032806,41.232441 
	C236.274277,39.646164 229.511078,38.797935 222.690430,40.946507 
	C222.318253,41.063747 221.792374,40.578693 221.317551,40.503471 
	C218.685013,40.086407 216.055908,39.519512 213.406082,39.382797 
	C211.510208,39.284981 209.583618,39.782127 207.420944,40.044067 
	C207.197479,37.433838 207.017120,35.326973 206.785370,32.619884 
	C204.961960,33.331474 203.427414,33.827629 201.981934,34.511917 
	C195.113205,37.763527 188.321854,40.819157 180.414368,41.213463 
	C176.892792,41.389072 173.293930,43.750858 170.101761,45.722145 
	C167.039978,47.612888 164.459091,50.282333 161.825577,52.477291 
	C159.779266,49.088860 157.775497,45.770897 155.766922,42.462769 
	C157.292557,40.288597 158.913574,38.174431 160.326172,35.929150 
	C164.814285,28.795412 164.069550,23.710880 157.297363,18.701893 
	C154.858856,16.898272 151.757843,15.548163 148.773575,14.998205 
	C132.473785,11.994390 117.994530,18.898691 102.677368,23.306463 
	C105.488762,30.829645 108.065804,37.725727 110.778778,44.985542 
	C112.490814,43.868233 113.569023,43.164570 114.933334,42.274193 
	C117.760178,60.147736 120.501945,77.483368 123.361542,95.563980 
	C127.813820,94.422607 131.863892,93.023041 136.029236,92.421211 
	C139.957764,91.853600 140.453384,89.915092 139.810822,86.601883 
	C138.421677,79.439163 137.721359,72.097794 135.753189,65.107132 
	C134.263885,59.817352 136.620773,57.471371 141.132965,54.718960 
	C142.498230,57.767998 144.091812,60.465454 144.940491,63.379826 
	C147.764923,73.078766 150.406586,82.833771 152.928177,92.616287 
	C153.656723,95.442642 154.655304,96.513512 157.746933,95.615463 
	C161.842758,94.425728 166.083618,93.115494 170.282990,93.041580 
	C177.267258,92.918648 184.282593,94.242943 191.258606,94.042824 
	C202.024216,93.734009 212.765808,92.624725 223.521698,91.917587 
	C226.664673,91.710960 227.184280,89.997009 226.968811,87.221573 
	C226.531128,81.583847 226.058990,75.913277 226.235077,70.276039 
	C226.350677,66.575417 227.576385,62.909458 228.304947,59.227978 
	C229.159134,59.260670 230.013321,59.293362 230.867508,59.326054 
	C232.234573,70.737610 233.601624,82.149162 234.987228,93.715424 
	C241.033142,93.715424 247.290665,93.715424 254.789276,93.715424 
	C254.789276,82.312286 254.789276,71.176575 254.789276,60.040871 
	C260.344818,70.617844 259.834381,82.183777 260.123749,93.753342 
	C266.969452,93.753342 273.238403,93.753342 279.463135,93.753342 
	C280.026428,92.195953 280.525238,90.816879 281.041901,89.388420 
	C295.893707,98.765015 307.919006,93.720558 319.018738,81.955994 
	C319.732269,86.379616 320.347900,90.196190 320.957336,93.974358 
	C327.985229,93.234428 334.249756,92.492172 340.531464,91.948242 
	C343.693787,91.674408 344.175690,89.984947 343.966156,87.228737 
	C343.537445,81.590096 343.057831,75.921043 343.217194,70.281975 
	C343.365631,65.027657 344.074158,59.705265 348.897156,55.211464 
	C350.054413,57.881149 351.567810,60.030914 351.887115,62.345428 
	C353.152039,71.513153 354.214325,80.718361 354.973145,89.940826 
	C355.214203,92.870483 355.839600,94.185905 358.973114,94.043060 
	C363.295990,93.846008 367.659729,94.255775 371.952148,93.844208 
	C373.363403,93.708885 375.715179,91.866554 375.753754,90.740349 
	C376.081635,81.160278 377.071259,71.412758 375.762390,62.007694 
	C373.298035,44.299118 359.257416,35.754169 342.201721,40.304562 
	C341.253540,40.557537 339.933044,41.245602 339.379669,40.865841 
	C333.617432,36.911373 327.843384,40.373779 322.138397,40.831852 
	C320.323425,40.977585 318.639404,42.754196 316.243683,44.169609 
	C303.469574,37.600746 292.454163,38.808537 278.137360,53.308224 
	C277.635010,52.633041 277.145538,51.990929 276.672455,51.336937 
	C266.771973,37.649708 261.094421,35.782135 244.785690,40.842987 
	C244.470718,40.940727 244.131195,40.959347 243.032806,41.232441 
M61.668835,67.607651 
	C62.657242,73.690132 63.645649,79.772606 64.638237,85.880783 
	C57.032787,85.490494 48.768753,85.066414 40.303146,84.631989 
	C38.873405,59.699421 37.459892,35.049747 36.046131,10.395771 
	C34.948208,10.395771 34.589119,10.297555 34.317684,10.410325 
	C29.266790,12.508758 24.221241,14.620288 19.184877,16.753405 
	C11.802357,19.880220 9.881789,23.236357 10.567897,31.916981 
	C12.297570,31.916981 14.038265,31.916981 16.007530,31.916981 
	C16.274063,34.026939 16.647068,35.984959 16.751163,37.957172 
	C17.830637,58.408676 19.010441,78.856941 19.797878,99.320137 
	C19.962040,103.586205 21.010675,104.983223 25.420708,105.107117 
	C42.232143,105.579399 59.031498,106.488083 75.834175,107.259735 
	C78.430763,107.378983 81.021118,107.634148 84.009102,107.855728 
	C84.262535,103.079552 84.488800,98.815338 84.708641,94.672180 
	C101.876770,90.710800 111.038818,80.848953 112.663437,64.915512 
	C113.878090,53.002899 107.371857,43.676559 96.212898,41.098202 
	C78.660110,37.042496 60.831459,53.606815 61.668835,67.607651 
z"/>
<path fill="#000000" opacity="1.000000" stroke="none" 
	d="
M42.219814,4.061517 
	C41.606030,3.212956 40.992245,2.364396 40.689228,1.257918 
	C157.209702,1.000000 273.419403,1.000000 390.000000,1.000000 
	C390.000000,21.686083 390.000000,42.374382 389.688385,63.867615 
	C388.919586,63.524536 388.333496,62.409882 388.026459,61.223034 
	C386.231018,54.282566 384.128784,47.527515 378.054962,42.925243 
	C378.054962,42.925243 378.019714,42.986153 377.977875,42.716305 
	C377.631531,42.268108 377.327026,42.089760 377.022522,41.911415 
	C377.022522,41.911411 377.018921,41.981495 376.978455,41.715385 
	C376.630920,41.270077 376.323914,41.090870 376.016876,40.911663 
	C376.016876,40.911663 376.016174,40.981236 375.945709,40.684334 
	C375.488068,40.299137 375.100922,40.210846 374.713745,40.122555 
	C366.547150,31.144796 357.024261,27.077257 344.523163,29.788765 
	C337.605896,31.289141 330.168396,30.209696 323.075317,31.135328 
	C316.773865,31.957653 310.711700,32.066750 304.383759,31.163158 
	C297.245544,30.143858 290.199982,32.185295 284.434784,36.432999 
	C280.301880,39.478069 277.201630,38.856106 274.370544,35.627197 
	C268.584045,29.027613 260.948883,27.997595 253.260651,29.219999 
	C246.555084,30.286169 240.149612,31.431736 233.305084,30.133020 
	C228.004532,29.127266 222.470001,29.390013 217.052597,28.933395 
	C216.017761,28.846172 214.891464,28.215958 214.067093,27.525963 
	C209.041916,23.319927 204.621124,22.612886 198.869003,25.628021 
	C191.985596,29.236164 184.749817,31.468603 176.509338,31.571257 
	C175.718109,24.590132 172.863510,19.281914 168.062057,14.929604 
	C168.062057,14.929604 168.014496,14.989322 167.975250,14.717556 
	C167.635117,14.268146 167.334213,14.090501 167.033310,13.912856 
	C167.033310,13.912856 167.008606,13.989787 166.924622,13.667791 
	C166.243073,13.283508 165.645508,13.221222 165.047958,13.158936 
	C155.717850,3.728462 143.853119,3.819002 132.230942,5.591276 
	C122.303314,7.105148 112.635696,10.407341 102.905869,13.108719 
	C95.127388,15.268327 92.428368,21.178976 94.588409,29.771530 
	C88.142128,31.292150 81.164368,31.714739 75.379272,34.561253 
	C63.862720,40.227890 54.703129,48.583614 52.774426,62.413864 
	C52.687965,63.033810 52.269722,63.607487 51.571312,64.368118 
	C50.426662,48.024265 49.969238,31.497129 48.802235,15.020248 
	C48.557129,11.559586 45.703026,8.283709 44.051136,4.922683 
	C44.051136,4.922683 44.006245,4.998719 43.940536,4.688689 
	C43.323154,4.272945 42.771484,4.167231 42.219814,4.061517 
z"/>
<path fill="#000000" opacity="1.000000" stroke="none" 
	d="
M112.993553,93.840248 
	C114.632210,97.789558 115.749657,102.111946 120.766937,104.398026 
	C123.979019,105.486893 126.854675,107.120201 129.369492,106.682098 
	C135.290894,105.650558 141.040146,103.630791 146.859055,102.010826 
	C148.341049,103.010231 149.823029,104.009636 151.819778,105.432693 
	C157.274307,105.886826 162.216980,106.037689 167.153168,105.919037 
	C174.241348,105.748665 181.322586,105.261971 188.410889,105.129593 
	C197.069199,104.967896 205.740921,105.263870 214.389282,104.919945 
	C220.241638,104.687210 226.063721,103.692284 232.091064,103.395737 
	C233.998703,104.170395 235.712402,104.938759 237.430923,104.949738 
	C252.375885,105.045143 267.321716,105.008675 282.267273,105.001183 
	C285.094360,104.999763 287.990845,104.540939 290.735718,105.003304 
	C299.457733,106.472534 307.770874,106.109581 315.344055,100.929581 
	C316.356506,101.571342 317.368958,102.213112 318.852997,103.323669 
	C320.540466,104.196022 321.800720,105.047638 322.965210,104.932281 
	C332.319244,104.005699 341.655243,102.896721 350.996735,101.843521 
	C351.775177,102.235283 352.553619,102.627037 353.852356,103.424301 
	C356.262756,104.222221 358.145172,104.902290 360.044373,104.952980 
	C365.693451,105.103722 371.349304,105.029846 377.002258,105.000816 
	C383.132355,104.969337 387.381622,100.949295 388.084717,94.870033 
	C388.202301,93.853127 389.335876,92.953705 390.000000,92.000000 
	C390.000000,100.987869 390.000000,109.975746 390.000000,119.000000 
	C290.979095,119.000000 191.958206,119.000000 92.139549,118.749275 
	C95.021461,114.995842 97.641380,111.072594 97.118149,105.616432 
	C97.042519,104.827850 98.103569,103.662491 98.930138,103.099548 
	C103.568527,99.940552 108.296295,96.912804 112.993553,93.840248 
z"/>
<path fill="#000000" opacity="1.000000" stroke="none" 
	d="
M1.000000,37.468658 
	C6.075807,38.428226 7.757836,42.352562 7.958027,47.029358 
	C8.416828,57.747715 8.515035,68.482544 9.046885,79.196426 
	C9.485892,88.040016 9.990868,96.911781 11.220705,105.665115 
	C11.580773,108.227905 14.521190,110.428162 16.771973,113.270752 
	C20.690008,114.500748 24.083151,115.645004 27.546602,115.927620 
	C34.891449,116.526970 42.276760,116.618141 49.634056,117.094185 
	C50.460350,117.147644 51.213127,118.337265 52.000000,119.000000 
	C35.056107,119.000000 18.112217,119.000000 1.000000,119.000000 
	C1.000000,91.979340 1.000000,64.958328 1.000000,37.468658 
z"/>
<path fill="#BABCC0" opacity="1.000000" stroke="none" 
	d="
M52.468658,119.000000 
	C51.213127,118.337265 50.460350,117.147644 49.634056,117.094185 
	C42.276760,116.618141 34.891449,116.526970 27.546602,115.927620 
	C24.083151,115.645004 20.690008,114.500748 17.094563,113.410675 
	C37.967823,114.124336 59.010387,115.197952 80.055763,116.213173 
	C89.303383,116.659271 92.247101,113.960060 93.143387,104.769135 
	C93.268318,103.488098 93.959732,101.804626 94.948456,101.140518 
	C100.914688,97.133118 107.043869,93.368324 113.278114,89.421341 
	C113.278114,90.274719 113.278114,91.756065 113.135834,93.538834 
	C108.296295,96.912804 103.568527,99.940552 98.930138,103.099548 
	C98.103569,103.662491 97.042519,104.827850 97.118149,105.616432 
	C97.641380,111.072594 95.021461,114.995842 91.670891,118.749275 
	C78.979103,119.000000 65.958214,119.000000 52.468658,119.000000 
z"/>
<path fill="#BBBDC0" opacity="1.000000" stroke="none" 
	d="
M390.000000,91.531342 
	C389.335876,92.953705 388.202301,93.853127 388.084717,94.870033 
	C387.381622,100.949295 383.132355,104.969337 377.002258,105.000816 
	C371.349304,105.029846 365.693451,105.103722 360.044373,104.952980 
	C358.145172,104.902290 356.262756,104.222221 354.182190,103.485695 
	C359.964355,103.019829 365.937592,102.918655 371.909637,102.771233 
	C379.762878,102.577362 382.989807,99.917664 384.450012,92.165680 
	C386.623016,80.629555 387.188690,69.024681 383.867798,57.649048 
	C382.448700,52.788116 379.802246,48.285500 377.884216,43.272655 
	C384.128784,47.527515 386.231018,54.282566 388.026459,61.223034 
	C388.333496,62.409882 388.919586,63.524536 389.688385,64.336273 
	C390.000000,73.020897 390.000000,82.041786 390.000000,91.531342 
z"/>
<path fill="#000000" opacity="1.000000" stroke="none" 
	d="
M28.531342,1.000000 
	C28.440088,1.672513 28.015432,2.653024 27.298456,2.967872 
	C22.409302,5.114875 17.496845,7.220535 12.517545,9.147372 
	C7.123449,11.234720 3.298646,14.702953 1.360074,20.196194 
	C1.000000,13.726230 1.000000,7.452459 1.000000,1.000000 
	C10.020283,1.000000 19.041483,1.000000 28.531342,1.000000 
z"/>
<path fill="#FECB04" opacity="1.000000" stroke="none" 
	d="
M243.417969,41.123661 
	C244.131195,40.959347 244.470718,40.940727 244.785690,40.842987 
	C261.094421,35.782135 266.771973,37.649708 276.672455,51.336937 
	C277.145538,51.990929 277.635010,52.633041 278.137360,53.308224 
	C292.454163,38.808537 303.469574,37.600746 316.243683,44.169609 
	C318.639404,42.754196 320.323425,40.977585 322.138397,40.831852 
	C327.843384,40.373779 333.617432,36.911373 339.379669,40.865841 
	C339.933044,41.245602 341.253540,40.557537 342.201721,40.304562 
	C359.257416,35.754169 373.298035,44.299118 375.762390,62.007694 
	C377.071259,71.412758 376.081635,81.160278 375.753754,90.740349 
	C375.715179,91.866554 373.363403,93.708885 371.952148,93.844208 
	C367.659729,94.255775 363.295990,93.846008 358.973114,94.043060 
	C355.839600,94.185905 355.214203,92.870483 354.973145,89.940826 
	C354.214325,80.718361 353.152039,71.513153 351.887115,62.345428 
	C351.567810,60.030914 350.054413,57.881149 348.897156,55.211464 
	C344.074158,59.705265 343.365631,65.027657 343.217194,70.281975 
	C343.057831,75.921043 343.537445,81.590096 343.966156,87.228737 
	C344.175690,89.984947 343.693787,91.674408 340.531464,91.948242 
	C334.249756,92.492172 327.985229,93.234428 320.957336,93.974358 
	C320.347900,90.196190 319.732269,86.379616 319.018738,81.955994 
	C307.919006,93.720558 295.893707,98.765015 281.041901,89.388420 
	C280.525238,90.816879 280.026428,92.195953 279.463135,93.753342 
	C273.238403,93.753342 266.969452,93.753342 260.123749,93.753342 
	C259.834381,82.183777 260.344818,70.617844 254.789276,60.040871 
	C254.789276,71.176575 254.789276,82.312286 254.789276,93.715424 
	C247.290665,93.715424 241.033142,93.715424 234.987228,93.715424 
	C233.601624,82.149162 232.234573,70.737610 230.867508,59.326054 
	C230.013321,59.293362 229.159134,59.260670 228.304947,59.227978 
	C227.576385,62.909458 226.350677,66.575417 226.235077,70.276039 
	C226.058990,75.913277 226.531128,81.583847 226.968811,87.221573 
	C227.184280,89.997009 226.664673,91.710960 223.521698,91.917587 
	C212.765808,92.624725 202.024216,93.734009 191.258606,94.042824 
	C184.282593,94.242943 177.267258,92.918648 170.282990,93.041580 
	C166.083618,93.115494 161.842758,94.425728 157.746933,95.615463 
	C154.655304,96.513512 153.656723,95.442642 152.928177,92.616287 
	C150.406586,82.833771 147.764923,73.078766 144.940491,63.379826 
	C144.091812,60.465454 142.498230,57.767998 141.132965,54.718960 
	C136.620773,57.471371 134.263885,59.817352 135.753189,65.107132 
	C137.721359,72.097794 138.421677,79.439163 139.810822,86.601883 
	C140.453384,89.915092 139.957764,91.853600 136.029236,92.421211 
	C131.863892,93.023041 127.813820,94.422607 123.361542,95.563980 
	C120.501945,77.483368 117.760178,60.147736 114.933334,42.274193 
	C113.569023,43.164570 112.490814,43.868233 110.778778,44.985542 
	C108.065804,37.725727 105.488762,30.829645 102.677368,23.306463 
	C117.994530,18.898691 132.473785,11.994390 148.773575,14.998205 
	C151.757843,15.548163 154.858856,16.898272 157.297363,18.701893 
	C164.069550,23.710880 164.814285,28.795412 160.326172,35.929150 
	C158.913574,38.174431 157.292557,40.288597 155.769318,42.457848 
	C157.775497,45.770897 159.779266,49.088860 161.825577,52.477291 
	C164.459091,50.282333 167.039978,47.612888 170.101761,45.722145 
	C173.293930,43.750858 176.892792,41.389072 180.414368,41.213463 
	C188.321854,40.819157 195.113205,37.763527 201.981934,34.511917 
	C203.427414,33.827629 204.961960,33.331474 206.785370,32.619884 
	C207.017120,35.326973 207.197479,37.433838 207.420944,40.044067 
	C209.583618,39.782127 211.510208,39.284981 213.406082,39.382797 
	C216.055908,39.519512 218.685013,40.086407 221.317551,40.503471 
	C221.792374,40.578693 222.318253,41.063747 222.690430,40.946507 
	C229.511078,38.797935 236.274277,39.646164 243.417969,41.123661 
M310.306702,59.126129 
	C308.105652,59.998791 305.023987,62.207752 303.890289,61.460678 
	C301.660065,59.991047 300.511871,56.879387 298.719757,54.147861 
	C295.667633,56.024498 293.523041,58.875259 294.746368,63.125904 
	C295.813171,66.832642 300.962799,69.106735 305.007660,68.025589 
	C308.709808,67.036049 311.081055,62.998295 310.963593,58.885132 
	C311.168701,58.841412 311.373810,58.797688 311.578918,58.753963 
	C311.272614,58.669697 310.966309,58.585430 310.306702,59.126129 
M179.367905,56.015194 
	C175.469772,62.981201 178.261673,67.787010 187.518478,67.770622 
	C185.773682,62.772282 184.171463,58.182365 182.464905,53.293526 
	C181.566544,54.044243 180.710068,54.759960 179.367905,56.015194 
M133.098389,44.725250 
	C135.537628,41.845257 137.976852,38.965260 140.416077,36.085262 
	C140.117538,35.655766 139.819016,35.226273 139.520477,34.796776 
	C136.609818,34.796776 133.699142,34.796776 130.316528,34.796776 
	C131.105545,38.617432 131.730331,41.642899 133.098389,44.725250 
z"/>
<path fill="#FDCB04" opacity="1.000000" stroke="none" 
	d="
M61.707443,67.144577 
	C60.831459,53.606815 78.660110,37.042496 96.212898,41.098202 
	C107.371857,43.676559 113.878090,53.002899 112.663437,64.915512 
	C111.038818,80.848953 101.876770,90.710800 84.708641,94.672180 
	C84.488800,98.815338 84.262535,103.079552 84.009102,107.855728 
	C81.021118,107.634148 78.430763,107.378983 75.834175,107.259735 
	C59.031498,106.488083 42.232143,105.579399 25.420708,105.107117 
	C21.010675,104.983223 19.962040,103.586205 19.797878,99.320137 
	C19.010441,78.856941 17.830637,58.408676 16.751163,37.957172 
	C16.647068,35.984959 16.274063,34.026939 16.007530,31.916981 
	C14.038265,31.916981 12.297570,31.916981 10.567897,31.916981 
	C9.881789,23.236357 11.802357,19.880220 19.184877,16.753405 
	C24.221241,14.620288 29.266790,12.508758 34.317684,10.410325 
	C34.589119,10.297555 34.948208,10.395771 36.046131,10.395771 
	C37.459892,35.049747 38.873405,59.699421 40.303146,84.631989 
	C48.768753,85.066414 57.032787,85.490494 64.638237,85.880783 
	C63.645649,79.772606 62.657242,73.690132 61.707443,67.144577 
M84.183731,55.835804 
	C82.234650,58.689758 80.332733,62.143791 83.461380,64.696594 
	C85.846123,66.642403 89.678566,68.056580 92.653107,67.734192 
	C96.714890,67.293961 98.229515,63.351818 98.920967,59.845490 
	C96.052483,60.392071 92.659111,62.128750 90.864838,61.093609 
	C88.807037,59.906437 88.167381,56.261124 86.813522,53.482265 
	C86.379776,53.840702 85.523872,54.548004 84.183731,55.835804 
z"/>
<path fill="#BBBDC0" opacity="1.000000" stroke="none" 
	d="
M43.880005,5.328979 
	C45.703026,8.283709 48.557129,11.559586 48.802235,15.020248 
	C49.969238,31.497129 50.426662,48.024265 51.499138,64.760986 
	C51.861675,68.566505 51.861675,72.144569 51.861675,75.722626 
	C51.255035,75.912354 50.648392,76.102074 50.041752,76.291794 
	C49.424980,74.876183 48.348076,73.487740 48.262653,72.040756 
	C47.413708,57.660915 46.851063,43.263702 45.947922,28.887709 
	C45.462063,21.153866 44.471638,13.451721 43.880005,5.328979 
z"/>
<path fill="#BBBDC0" opacity="1.000000" stroke="none" 
	d="
M231.899338,103.038269 
	C226.063721,103.692284 220.241638,104.687210 214.389282,104.919945 
	C205.740921,105.263870 197.069199,104.967896 188.410889,105.129593 
	C181.322586,105.261971 174.241348,105.748665 167.153168,105.919037 
	C162.216980,106.037689 157.274307,105.886826 152.163147,105.498894 
	C154.606064,104.779358 157.376007,104.850357 159.806458,103.976807 
	C168.259552,100.938576 176.855972,103.544739 185.358932,102.961311 
	C197.876831,102.102394 210.407227,101.361061 222.944336,100.890411 
	C226.215622,100.767601 229.531494,101.832413 232.749969,102.635925 
	C232.415146,102.959465 232.157242,102.998863 231.899338,103.038269 
z"/>
<path fill="#BDBEC0" opacity="1.000000" stroke="none" 
	d="
M232.091064,103.395729 
	C232.157242,102.998863 232.415146,102.959465 233.059265,102.846695 
	C247.027939,102.778320 260.651581,103.421455 274.177460,102.548775 
	C282.278931,102.026077 290.211578,103.218208 298.187744,102.847755 
	C302.215271,102.660706 306.139404,100.745888 310.171875,99.909248 
	C311.679718,99.596405 313.362579,100.127213 315.154846,100.601471 
	C307.770874,106.109581 299.457733,106.472534 290.735718,105.003304 
	C287.990845,104.540939 285.094360,104.999763 282.267273,105.001183 
	C267.321716,105.008675 252.375885,105.045143 237.430923,104.949738 
	C235.712402,104.938759 233.998703,104.170395 232.091064,103.395729 
z"/>
<path fill="#BBBDC0" opacity="1.000000" stroke="none" 
	d="
M350.867432,101.519638 
	C341.655243,102.896721 332.319244,104.005699 322.965210,104.932281 
	C321.800720,105.047638 320.540466,104.196022 319.134888,103.443481 
	C328.166321,101.903763 337.378204,100.628159 346.619202,99.619011 
	C347.919281,99.477036 349.361664,100.637932 350.867432,101.519638 
z"/>
<path fill="#BABCC0" opacity="1.000000" stroke="none" 
	d="
M146.846558,101.645844 
	C141.040146,103.630791 135.290894,105.650558 129.369492,106.682098 
	C126.854675,107.120201 123.979019,105.486893 121.117477,104.455338 
	C128.057388,102.682838 135.181030,101.393303 142.216660,99.731209 
	C144.373581,99.221657 146.038666,98.478416 146.846558,101.645844 
z"/>
<path fill="#BABCC0" opacity="1.000000" stroke="none" 
	d="
M167.854614,15.269070 
	C172.863510,19.281914 175.718109,24.590132 176.092010,31.563061 
	C174.727493,32.873581 173.296692,33.769951 171.865875,34.666325 
	C173.850327,27.199694 170.694611,21.415545 167.854614,15.269070 
z"/>
<path fill="#BABCC0" opacity="1.000000" stroke="none" 
	d="
M165.225922,13.434511 
	C165.645508,13.221222 166.243073,13.283508 166.952148,13.638222 
	C166.510406,13.857128 165.957138,13.783607 165.225922,13.434511 
z"/>
<path fill="#BBBDC0" opacity="1.000000" stroke="none" 
	d="
M42.359444,4.342560 
	C42.771484,4.167231 43.323154,4.272945 43.970932,4.656501 
	C43.544384,4.830762 43.021729,4.727182 42.359444,4.342560 
z"/>
<path fill="#BBBDC0" opacity="1.000000" stroke="none" 
	d="
M374.856506,40.393501 
	C375.100922,40.210846 375.488068,40.299137 375.980316,40.680855 
	C375.723358,40.871002 375.361298,40.767727 374.856506,40.393501 
z"/>
<path fill="#BBBDC0" opacity="1.000000" stroke="none" 
	d="
M376.016357,41.228397 
	C376.323914,41.090870 376.630920,41.270077 377.013489,41.714241 
	C376.731323,41.834511 376.373596,41.689823 376.016357,41.228397 
z"/>
<path fill="#BBBDC0" opacity="1.000000" stroke="none" 
	d="
M377.003967,42.239227 
	C377.327026,42.089760 377.631531,42.268108 378.012238,42.708740 
	C377.720764,42.836365 377.353058,42.701702 377.003967,42.239227 
z"/>
<path fill="#BABCC0" opacity="1.000000" stroke="none" 
	d="
M166.978760,14.252822 
	C167.334213,14.090501 167.635117,14.268146 168.011475,14.705517 
	C167.699356,14.841090 167.311783,14.716939 166.978760,14.252822 
z"/>
<path fill="#416FB2" opacity="1.000000" stroke="none" 
	d="
M310.641266,58.432693 
	C311.081055,62.998295 308.709808,67.036049 305.007660,68.025589 
	C300.962799,69.106735 295.813171,66.832642 294.746368,63.125904 
	C293.523041,58.875259 295.667633,56.024498 298.719757,54.147861 
	C300.511871,56.879387 301.660065,59.991047 303.890289,61.460678 
	C305.023987,62.207752 308.105652,59.998791 310.489105,58.801933 
	C310.671509,58.477734 310.641266,58.432693 310.641266,58.432693 
z"/>
<path fill="#4570AF" opacity="1.000000" stroke="none" 
	d="
M179.610748,55.745434 
	C180.710068,54.759960 181.566544,54.044243 182.464905,53.293526 
	C184.171463,58.182365 185.773682,62.772282 187.518478,67.770622 
	C178.261673,67.787010 175.469772,62.981201 179.610748,55.745434 
z"/>
<path fill="#4771AD" opacity="1.000000" stroke="none" 
	d="
M132.726761,44.696808 
	C131.730331,41.642899 131.105545,38.617432 130.316528,34.796776 
	C133.699142,34.796776 136.609818,34.796776 139.520477,34.796776 
	C139.819016,35.226273 140.117538,35.655766 140.416077,36.085262 
	C137.976852,38.965260 135.537628,41.845257 132.726761,44.696808 
z"/>
<path fill="#416FB2" opacity="1.000000" stroke="none" 
	d="
M310.665771,58.489449 
	C310.966309,58.585430 311.272614,58.669697 311.578918,58.753963 
	C311.373810,58.797688 311.168701,58.841412 310.802429,58.658913 
	C310.641266,58.432693 310.671509,58.477734 310.665771,58.489449 
z"/>
<path fill="#3F6DB5" opacity="1.000000" stroke="none" 
	d="
M84.425850,55.545555 
	C85.523872,54.548004 86.379776,53.840702 86.813522,53.482265 
	C88.167381,56.261124 88.807037,59.906437 90.864838,61.093609 
	C92.659111,62.128750 96.052483,60.392071 98.920967,59.845490 
	C98.229515,63.351818 96.714890,67.293961 92.653107,67.734192 
	C89.678566,68.056580 85.846123,66.642403 83.461380,64.696594 
	C80.332733,62.143791 82.234650,58.689758 84.425850,55.545555 
z"/>
</svg>